<?xml version="1.0" encoding="UTF-8"?>
<svg width="83px" height="39px" viewBox="0 0 83 39" version="1.1" xmlns="http://www.w3.org/2000/svg" xmlns:xlink="http://www.w3.org/1999/xlink">
    <!-- Generator: Sketch 51.1 (57501) - http://www.bohemiancoding.com/sketch -->
    <title>arrow</title>
    <desc>Created with Sketch.</desc>
    <defs></defs>
    <g id="Page-1" stroke="none" stroke-width="1" fill="none" fill-rule="evenodd">
        <g id="add" transform="translate(-348.000000, -543.000000)" fill="#B4D6DB" fill-rule="nonzero">
            <g id="img" transform="translate(185.000000, 374.000000)">
                <g id="arrow" transform="translate(204.000000, 188.500000) scale(1, -1) translate(-204.000000, -188.500000) translate(162.000000, 169.000000)">
                    <path d="M1.12804505,1.54448584 C0.276487959,-1.80686167 3.7175794,1.35551162 5.97555971,4.31049723 C10.612907,10.3793253 19.8884109,16.8130168 25.0654915,18.626511 C35.4040622,24.4171404 50.7056441,32.1843002 69.1424881,29.9534834 C69.4328321,29.9169126 69.7594691,29.8437711 70.0498131,29.8803418 C70.4853291,29.9169126 70.9208451,30.0997664 70.9934311,30.5751864 C71.0660171,31.1968895 70.5216221,31.1603187 70.1223991,31.270031 C68.4892141,31.6723095 66.8197361,31.8185925 65.1502581,31.9283049 C51.2863321,32.696291 33.6008625,27.3801123 22.1730907,19.8811047 C16.9354976,16.6196058 2.65235105,6.95695958 1.12804505,1.54448584 Z" id="Shape"></path>
                    <path d="M78.6048485,32.242276 C71.9665728,30.1312455 67.0600212,25.5816108 62.0813145,21.1411674 C61.6483834,20.7407995 60.4939007,20.4496229 61.25153,19.5032989 C61.9009265,18.6661661 62.730711,18.9937398 63.4522627,19.6124901 C66.1941592,21.9783001 68.7917453,24.4533014 71.7501073,26.5643319 C75.1414003,29.0029361 78.7130812,30.8227899 82.9702363,31.0047753 C83.4031673,31.0047753 83.8721759,30.9683783 83.9804087,31.5143344 C84.0886414,31.9510993 83.7278656,32.278673 83.4031673,32.278673 C82.6816156,32.3514672 80.7695036,32.4970555 80.7695036,32.4970555 C81.9961415,33.4797766 78.821314,34.134924 77.2699778,34.608086 C73.6622193,35.7363954 70.1266159,37.0466902 66.6631678,38.6481616 C66.4827798,38.7209557 66.3384695,38.7573528 66.1580816,38.830147 C65.3282971,39.1577207 64.4985127,39.0485294 64.1738144,38.1749996 C63.8130385,37.2286756 64.8232109,37.1194843 65.3282971,36.9011019 C69.1164436,35.1904392 73.0128228,33.7709532 76.9813571,32.6426438 C77.5585985,32.4970555 78.0997623,32.3878643 78.6048485,32.242276 Z" id="Shape"></path>
                </g>
            </g>
        </g>
    </g>
</svg>