<?xml version="1.0" encoding="UTF-8"?>
<svg width="22px" height="24px" viewBox="0 0 22 24" version="1.1" xmlns="http://www.w3.org/2000/svg" xmlns:xlink="http://www.w3.org/1999/xlink">
    <!-- Generator: Sketch 51.1 (57501) - http://www.bohemiancoding.com/sketch -->
    <title>calendar</title>
    <desc>Created with Sketch.</desc>
    <defs>
        <path d="M19.1666667,2.5 L18,2.5 L18,0.166666667 L15.6666667,0.166666667 L15.6666667,2.5 L6.33333333,2.5 L6.33333333,0.166666667 L4,0.166666667 L4,2.5 L2.83333333,2.5 C1.53833333,2.5 0.511666667,3.55 0.511666667,4.83333333 L0.5,21.1666667 C0.5,22.45 1.53833333,23.5 2.83333333,23.5 L19.1666667,23.5 C20.45,23.5 21.5,22.45 21.5,21.1666667 L21.5,4.83333333 C21.5,3.55 20.45,2.5 19.1666667,2.5 Z M19.1666667,21.1666667 L2.83333333,21.1666667 L2.83333333,8.33333333 L19.1666667,8.33333333 L19.1666667,21.1666667 Z M5.16666667,10.6666667 L11,10.6666667 L11,16.5 L5.16666667,16.5 L5.16666667,10.6666667 Z" id="path-1"></path>
    </defs>
    <g id="Page-1" stroke="none" stroke-width="1" fill="none" fill-rule="evenodd">
        <g id="add" transform="translate(-913.000000, -1806.000000)">
            <g id="calendar" transform="translate(913.000000, 1806.000000)">
                <mask id="mask-2" fill="white">
                    <use xlink:href="#path-1"></use>
                </mask>
                <g id="Shape" fill-rule="nonzero"></g>
                <g id="c/#000000/0.54" mask="url(#mask-2)" fill="#000000" fill-opacity="0.54">
                    <g transform="translate(-3.000000, -1.000000)" id="Rectangle">
                        <rect x="0" y="0" width="28" height="28"></rect>
                    </g>
                </g>
            </g>
        </g>
    </g>
</svg>