<svg width="160" height="160" viewBox="0 0 160 160" fill="none" xmlns="http://www.w3.org/2000/svg">
<path d="M136.566 23.4343C121.448 8.3165 101.38 0 80 0C58.6195 0 38.5522 8.3165 23.4343 23.4343C8.3165 38.5522 0 58.6195 0 80C0 101.38 8.3165 121.448 23.4343 136.566C38.5522 151.684 58.6195 160 80 160C101.38 160 121.448 151.684 136.566 136.566C151.684 121.448 160 101.38 160 80C160 58.6195 151.684 38.5522 136.566 23.4343ZM130.135 130.135C116.734 143.535 98.9226 150.909 80 150.909C61.0774 150.909 43.266 143.535 29.8653 130.135C2.22222 102.492 2.22222 57.5084 29.8653 29.8653C43.266 16.4646 61.0774 9.09091 80 9.09091C98.9226 9.09091 116.734 16.4646 130.135 29.8653C157.778 57.5084 157.778 102.492 130.135 130.135Z" fill="#FF0000"/>
<path d="M115.252 44.7475C113.468 42.963 110.606 42.963 108.822 44.7475L80 73.569L51.1784 44.7475C49.3939 42.963 46.532 42.963 44.7474 44.7475C42.9629 46.532 42.9629 49.3939 44.7474 51.1785L73.569 80L44.7474 108.822C42.9629 110.606 42.9629 113.468 44.7474 115.253C45.6229 116.128 46.8013 116.599 47.9461 116.599C49.0909 116.599 50.2693 116.162 51.1447 115.253L79.9663 86.431L108.788 115.253C109.663 116.128 110.842 116.599 111.986 116.599C113.165 116.599 114.31 116.162 115.185 115.253C116.97 113.468 116.97 110.606 115.185 108.822L86.4309 80L115.252 51.1785C117.037 49.3939 117.037 46.532 115.252 44.7475Z" fill="#FF0000"/>
</svg>
