<?xml version="1.0" encoding="UTF-8"?>
<svg width="90px" height="90px" viewBox="0 0 90 90" version="1.1" xmlns="http://www.w3.org/2000/svg" xmlns:xlink="http://www.w3.org/1999/xlink">
    <!-- Generator: Sketch 51.1 (57501) - http://www.bohemiancoding.com/sketch -->
    <title>cat</title>
    <desc>Created with Sketch.</desc>
    <defs></defs>
    <g id="Page-1" stroke="none" stroke-width="1" fill="none" fill-rule="evenodd">
        <g id="cat" transform="translate(0.000000, -1.000000)" fill="#000000" fill-rule="nonzero">
            <path d="M82.5,3.5 C82.5,2.5 81.9,1.6 81,1.2 C80.1,0.8 79,1 78.3,1.7 L61.4,18.6 C56.2,16.9 50.7,16 45,16 C39.3,16 33.8,16.9 28.6,18.6 L11.8,1.7 C11.1,1 10,0.8 9,1.2 C8.1,1.6 7.5,2.5 7.5,3.5 L7.5,32.8 C2.6,38.9 0,46.1 0,53.5 C0,74.2 20.2,91 45,91 C69.8,91 90,74.2 90,53.5 C90,46.1 87.4,38.9 82.5,32.8 L82.5,3.5 Z M85,53.5 C85,71.4 67.1,86 45,86 C22.9,86 5,71.4 5,53.5 C5,47 7.4,40.7 11.9,35.3 C12.3,34.8 12.5,34.3 12.5,33.7 L12.5,9.5 L26.2,23.2 C26.9,23.9 27.9,24.1 28.8,23.8 C33.9,21.9 39.4,21 45,21 C50.6,21 56.1,21.9 61.2,23.8 C62.1,24.1 63.1,23.9 63.8,23.2 L77.5,9.5 L77.5,33.6 C77.5,34.2 77.7,34.8 78.1,35.2 C82.6,40.7 85,47 85,53.5 Z" id="Shape"></path>
            <path d="M63.2,67.6 C62.5,68.3 61.7,68.9 60.9,69.4 C57.3,71.6 52.7,71.6 49,69.4 C48.6,69.2 48.2,68.9 47.8,68.6 L49.8,62.7 C50.1,61.9 49.9,61.1 49.5,60.4 C49,59.7 48.3,59.4 47.5,59.4 L42.5,59.4 C41.7,59.4 40.9,59.8 40.5,60.4 C40,61.1 39.9,61.9 40.2,62.7 L42.2,68.6 C41.8,68.9 41.4,69.2 41,69.4 C37.4,71.6 32.8,71.6 29.1,69.4 C28.3,68.9 27.5,68.3 26.8,67.6 C25.8,66.6 24.2,66.6 23.3,67.6 C22.3,68.6 22.3,70.2 23.3,71.1 C29.2,77 38.6,77.5 45.1,72.6 C48,74.8 51.6,75.9 55.1,75.9 C59.4,75.9 63.6,74.3 66.9,71 C67.9,70 67.9,68.4 66.9,67.5 C65.8,66.6 64.2,66.6 63.2,67.6 Z" id="Shape"></path>
            <path d="M30,51 C32.8,51 35,48.8 35,46 C35,43.2 32.8,41 30,41 C27.2,41 25,43.2 25,46 C25,48.8 27.2,51 30,51 Z" id="Shape"></path>
            <path d="M60,51 C62.8,51 65,48.8 65,46 C65,43.2 62.8,41 60,41 C57.2,41 55,43.2 55,46 C55,48.8 57.2,51 60,51 Z" id="Shape"></path>
        </g>
    </g>
</svg>