<?xml version="1.0" encoding="UTF-8"?>
<svg width="22px" height="30px" viewBox="0 0 22 30" version="1.1" xmlns="http://www.w3.org/2000/svg" xmlns:xlink="http://www.w3.org/1999/xlink">
    <!-- Generator: Sketch 52.2 (67145) - http://www.bohemiancoding.com/sketch -->
    <title>236493</title>
    <desc>Created with Sketch.</desc>
    <g id="Page-1" stroke="none" stroke-width="1" fill="none" fill-rule="evenodd">
        <g id="pet" transform="translate(-269.000000, -2773.000000)" fill="#FFFFFF">
            <g id="236493" transform="translate(269.000000, 2773.000000)">
                <path d="M18.9848641,5.86957031 L14.0186033,5.86957031 L14.0186033,0.97828125 C14.0186033,0.438222656 13.5472174,0 12.9962011,0 L9.00373913,0 C8.45272283,0 8.02994022,0.438222656 8.02994022,0.97828125 L8.02994022,5.86957031 L3.01507609,5.86957031 C2.46405978,5.86957031 2.04127717,6.30779297 2.04127717,6.84785156 L2.04127717,10.760918 C2.04127717,11.3009766 2.46405978,11.7391992 3.01507609,11.7391992 L8.02988043,11.7391992 L8.02988043,19.8382617 C8.69526087,19.6662891 9.99272283,19.5652734 11.024212,19.5652734 C12.0557011,19.5652734 13.353163,19.6662891 14.0185435,19.8382617 L14.0185435,11.7391406 L18.9848043,11.7391406 C19.5358207,11.7391406 20.0072065,11.300918 20.0072065,10.7608594 L20.0072065,6.84785156 C20.0072663,6.30773438 19.5358804,5.86957031 18.9848641,5.86957031 Z" id="Path"></path>
                <path d="M21.9525924,28.9555078 C21.6640815,24.7870313 16.8534946,21.5217188 11,21.5217188 C5.14650543,21.5217188 0.335918478,24.7870898 0.0474076087,28.9554492 C0.028576087,29.2255078 0.124706522,29.4917578 0.313858696,29.6898047 C0.502293478,29.8878516 0.766771739,30 1.04296739,30 L20.9570924,30 C21.2332283,30 21.4977663,29.8879102 21.6862011,29.6898047 C21.8752935,29.4917578 21.9714239,29.2255664 21.9525924,28.9555078 Z" id="Path"></path>
            </g>
        </g>
    </g>
</svg>