<?xml version="1.0" encoding="UTF-8"?>
<svg width="98px" height="81px" viewBox="0 0 98 81" version="1.1" xmlns="http://www.w3.org/2000/svg" xmlns:xlink="http://www.w3.org/1999/xlink">
    <!-- Generator: Sketch 51.1 (57501) - http://www.bohemiancoding.com/sketch -->
    <title>dog</title>
    <desc>Created with Sketch.</desc>
    <defs></defs>
    <g id="Page-1" stroke="none" stroke-width="1" fill="none" fill-rule="evenodd">
        <g id="dog" fill="#000000" fill-rule="nonzero">
            <path d="M9.699,60.729 C10.756,61.434 11.865,61.792 12.992,61.792 C14.306,61.792 15.878,61.402 17.662,59.685 C25.611,78.759 41.803,80.278 46.771,80.278 C47.819,80.278 48.563,80.161 48.924,80.123 C49.286,80.161 50.032,80.102 51.081,80.102 C56.075,80.102 72.355,78.65 80.272,59.397 C82.084,61.146 83.676,61.531 85.006,61.531 C85.006,61.531 85.009,61.531 85.01,61.531 C86.136,61.531 87.242,61.3 88.301,60.595 C95.379,55.875 99.041,43.174 96.636,31.515 C93.619,16.877 82.312,6.719 65.615,3.66 L65.23,3.588 C60.296,1.379 54.546,0.167 48.923,0.167 C44.789,0.167 38.545,0.79 32.168,3.721 C15.592,6.827 4.368,16.949 1.363,31.521 C-1.042,43.18 2.62,56.01 9.699,60.729 Z M49.05,63.963 C45.964,62.14 43.154,59.814 42.834,58.791 C43.161,58.568 44.51,57.905 49.027,57.905 C51.827,57.905 54.902,58.473 55.602,59.104 C55.428,59.506 54.448,61.022 49.05,63.963 Z M93.104,32.313 C95.449,43.683 91.398,54.453 86.301,57.85 C85.839,58.159 85.416,58.432 85.011,58.432 L85.01,58.432 C84.447,58.432 83.261,58.073 81.609,55.833 L81.653,55.716 L81.155,54.977 C74.239,44.737 68.967,16.314 67.5,7.755 C86.218,12.155 91.58,24.925 93.104,32.313 Z M34.339,6.716 C39.892,4.312 45.295,3.81 48.923,3.81 C54.021,3.81 59.223,4.931 63.685,6.917 C64.783,13.617 70.089,44.189 77.665,56.367 C71.085,74.845 56.925,77.003 51.081,77.003 C51.08,77.003 51.08,77.003 51.08,77.003 C50.95,77.003 50.828,76.999 50.711,76.995 L50.711,67.161 C57.271,63.6 59.811,60.908 59.149,58.233 C58.271,54.678 51.776,54.295 49.02,54.295 C44.919,54.295 40.109,54.699 39.299,57.852 C38.428,61.241 43.398,64.846 47.099,67.008 L47.099,76.726 C46.993,76.727 46.885,76.73 46.769,76.73 C40.948,76.73 26.849,74.731 20.24,56.4 C21.883,53.792 23.66,49.963 25.546,44.371 C30.398,30.057 33.616,11.184 34.339,6.716 Z M4.897,32.251 C6.42,24.862 11.782,12.155 30.501,7.755 C29.717,12.343 27.889,22.369 25.328,32.291 C23.522,39.281 21.836,44.394 20.318,48.132 C20.252,48.294 20.185,48.459 20.119,48.619 C20.104,48.655 20.089,48.691 20.075,48.724 C19.021,51.236 17.912,53.417 16.755,55.101 L16.295,55.763 C14.693,57.858 13.543,58.18 12.993,58.18 C12.585,58.18 12.162,58.032 11.702,57.725 C6.603,54.328 2.552,43.622 4.897,32.251 Z" id="Shape"></path>
            <path d="M38.406,42.793 C41.93,42.793 44.797,39.927 44.797,36.403 C44.797,32.879 41.93,30.012 38.406,30.012 C34.884,30.012 32.016,32.88 32.016,36.403 C32.016,39.926 34.883,42.793 38.406,42.793 Z M38.406,33.622 C39.94,33.622 41.188,34.871 41.188,36.404 C41.188,37.937 39.94,39.186 38.406,39.186 C36.872,39.186 35.625,37.937 35.625,36.404 C35.625,34.871 36.872,33.622 38.406,33.622 Z" id="Shape"></path>
            <path d="M59.154,42.793 C62.679,42.793 65.546,39.927 65.546,36.403 C65.546,32.879 62.68,30.012 59.154,30.012 C55.632,30.012 52.765,32.88 52.765,36.403 C52.765,39.926 55.632,42.793 59.154,42.793 Z M59.154,33.622 C60.689,33.622 61.936,34.871 61.936,36.404 C61.936,37.937 60.689,39.186 59.154,39.186 C57.621,39.186 56.373,37.937 56.373,36.404 C56.373,34.871 57.621,33.622 59.154,33.622 Z" id="Shape"></path>
        </g>
    </g>
</svg>