<?xml version="1.0" encoding="UTF-8"?>
<svg width="512px" height="512px" viewBox="0 0 512 512" version="1.1" xmlns="http://www.w3.org/2000/svg" xmlns:xlink="http://www.w3.org/1999/xlink">
    <!-- Generator: Sketch 51.2 (57519) - http://www.bohemiancoding.com/sketch -->
    <title>Shape</title>
    <desc>Created with Sketch.</desc>
    <defs></defs>
    <g id="Page-1" stroke="none" stroke-width="1" fill="none" fill-rule="evenodd">
        <g id="220342" fill="#FFFFFF" fill-rule="nonzero">
            <path d="M469.333,0 L42.667,0 C18.773,0 0,18.773 0,42.667 L0,469.334 C0,493.227 18.773,512 42.667,512 L238.934,512 L341.334,512 L469.334,512 C493.227,512 512,493.227 512,469.333 L512,42.667 C512,18.773 493.227,0 469.333,0 Z M256,494.933 L256,324.267 L187.733,324.267 L187.733,256 L256,256 L256,196.267 C256,147.627 293.547,106.667 341.333,102.4 L418.133,102.4 L418.133,170.667 L349.866,170.667 C335.359,170.667 324.266,181.76 324.266,196.267 L324.266,256 L409.6,256 L409.6,324.267 L324.267,324.267 L324.267,494.934 L256,494.934 L256,494.933 Z M494.933,469.333 C494.933,483.84 483.84,494.933 469.333,494.933 L341.333,494.933 L341.333,341.333 L426.666,341.333 L426.666,238.933 L341.333,238.933 L341.333,196.266 C341.333,191.146 344.746,187.733 349.866,187.733 L435.2,187.733 L435.2,85.333 L340.48,85.333 C283.307,90.453 238.933,139.093 238.933,196.266 L238.933,238.933 L170.666,238.933 L170.666,341.333 L238.933,341.333 L238.933,494.933 L42.667,494.933 C28.16,494.933 17.067,483.84 17.067,469.333 L17.067,42.667 C17.067,28.16 28.16,17.067 42.667,17.067 L469.334,17.067 C483.841,17.067 494.934,28.16 494.934,42.667 L494.934,469.333 L494.933,469.333 Z" id="Shape"></path>
        </g>
    </g>
</svg>