<?xml version="1.0" encoding="UTF-8"?>
<svg width="6px" height="24px" viewBox="0 0 6 24" version="1.1" xmlns="http://www.w3.org/2000/svg" xmlns:xlink="http://www.w3.org/1999/xlink">
    <!-- Generator: Sketch 51.1 (57501) - http://www.bohemiancoding.com/sketch -->
    <title>Icon / More Vert / Filled</title>
    <desc>Created with Sketch.</desc>
    <defs>
        <path d="M3,6 C4.65,6 6,4.65 6,3 C6,1.35 4.65,0 3,0 C1.35,0 0,1.35 0,3 C0,4.65 1.35,6 3,6 L3,6 Z M3,9 C1.35,9 0,10.35 0,12 C0,13.65 1.35,15 3,15 C4.65,15 6,13.65 6,12 C6,10.35 4.65,9 3,9 L3,9 Z M3,18 C1.35,18 0,19.35 0,21 C0,22.65 1.35,24 3,24 C4.65,24 6,22.65 6,21 C6,19.35 4.65,18 3,18 L3,18 Z" id="path-1"></path>
    </defs>
    <g id="Page-1" stroke="none" stroke-width="1" fill="none" fill-rule="evenodd">
        <g id="home" transform="translate(-1203.000000, -621.000000)">
            <g id="Icon-/-More-Vert-/-Filled" transform="translate(1203.000000, 621.000000)">
                <mask id="mask-2" fill="white">
                    <use xlink:href="#path-1"></use>
                </mask>
                <g id="Mask"></g>
                <g id="✱-/-Color-/-Icons-/-Selected-/-On-Surface-/-Inactive" mask="url(#mask-2)" fill="#000000" fill-opacity="0.54">
                    <g transform="translate(-6.000000, -6.000000)" id="Rectangle">
                        <rect x="0" y="0" width="17.9407895" height="35.8815789"></rect>
                    </g>
                </g>
            </g>
        </g>
    </g>
</svg>