<?xml version="1.0" encoding="UTF-8"?>
<svg width="45px" height="47px" viewBox="0 0 45 47" version="1.1" xmlns="http://www.w3.org/2000/svg" xmlns:xlink="http://www.w3.org/1999/xlink">
    <!-- Generator: Sketch 51.2 (57519) - http://www.bohemiancoding.com/sketch -->
    <title>off</title>
    <desc>Created with Sketch.</desc>
    <defs></defs>
    <g id="Page-1" stroke="none" stroke-width="1" fill="none" fill-rule="evenodd">
        <g id="off" fill="#FFFFFF" fill-rule="nonzero">
            <path d="M23,25.5 L23,1.06 C23,0.50771525 22.5522847,0.06 22,0.06 C21.4477153,0.06 21,0.50771525 21,1.06 L21,25.5 C21,26.0522847 21.4477153,26.5 22,26.5 C22.5522847,26.5 23,26.0522847 23,25.5 Z" id="Shape"></path>
            <path d="M12.63,6.54 L12.8,6.45 C13.2466667,6.21666667 13.7066667,6 14.18,5.8 C14.5827671,5.52897699 14.7327001,5.00782892 14.5355347,4.56420678 C14.3383693,4.12058463 13.8510672,3.88265221 13.38,4 C12.87,4.22 12.38,4.46 11.86,4.72 L11.69,4.81 C2.75561388,9.57136542 -1.79104636,19.8029001 0.662807913,29.6249394 C3.11666219,39.4469786 11.9410751,46.3379987 22.065,46.3379987 C32.1889249,46.3379987 41.0133378,39.4469786 43.4671921,29.6249394 C45.9210464,19.8029001 41.3743861,9.57136542 32.44,4.81 C31.88,4.51 31.31,4.24 30.75,4 C30.2901091,3.92071763 29.8365256,4.17007128 29.6570353,4.60084802 C29.4775449,5.03162477 29.6198763,5.52927626 30,5.8 C30.51,6.02 31,6.27 31.54,6.54 C39.6641126,10.869913 43.7982528,20.1737918 41.5667455,29.1051818 C39.3352382,38.0365718 31.3109411,44.3026658 22.105,44.3026658 C12.8990589,44.3026658 4.87476182,38.0365718 2.64325451,29.1051818 C0.4117472,20.1737918 4.54588739,10.869913 12.67,6.54 L12.63,6.54 Z" id="Shape"></path>
        </g>
    </g>
</svg>