<?xml version="1.0" encoding="UTF-8"?>
<svg width="230px" height="230px" viewBox="0 0 230 230" version="1.1" xmlns="http://www.w3.org/2000/svg" xmlns:xlink="http://www.w3.org/1999/xlink">
    <!-- Generator: Sketch 51.1 (57501) - http://www.bohemiancoding.com/sketch -->
    <title>179372</title>
    <desc>Created with Sketch.</desc>
    <defs></defs>
    <g id="Page-1" stroke="none" stroke-width="1" fill="none" fill-rule="evenodd">
        <g id="add-success" transform="translate(-605.000000, -298.000000)" fill="#3DB39E" fill-rule="nonzero">
            <g id="179372" transform="translate(605.000000, 298.000000)">
                <path d="M114.624146,0 C51.3108362,0 0.00320557491,51.3212544 0.00320557491,114.620941 C0.00320557491,177.92784 51.3172474,229.241882 114.624146,229.241882 C177.923833,229.241882 229.237875,177.92784 229.237875,114.620941 C229.237875,51.3284669 177.923833,0 114.624146,0 Z M114.624146,207.750105 C63.1882927,207.750105 21.4949826,166.056794 21.4949826,114.620941 C21.4949826,63.1850871 63.1955052,21.491777 114.624146,21.491777 C166.052787,21.491777 207.746098,63.1850871 207.746098,114.620941 C207.746098,166.056794 166.053589,207.750105 114.624146,207.750105 Z M159.670488,65.8641463 C154.798815,62.9558885 148.573589,64.6820906 145.772718,69.7324739 L107.338676,138.770139 L85.9334495,112.715226 C82.0579094,108.252265 76.9073519,105.938641 72.042892,108.846899 C67.1712195,111.762369 65.1581185,118.776167 68.3108014,123.275192 L98.0978049,159.531045 C100.325679,162.424878 102.868502,164.159094 105.526725,164.653554 L105.548362,164.696829 L105.820836,164.711254 C106.422683,164.804216 115.420732,166.466307 119.296272,159.531847 L163.411394,80.2932404 C166.210662,75.2340418 164.54216,68.7796167 159.670488,65.8641463 Z" id="Shape"></path>
            </g>
        </g>
    </g>
</svg>