<?xml version="1.0" encoding="UTF-8"?>
<svg width="20px" height="20px" viewBox="0 0 20 20" version="1.1" xmlns="http://www.w3.org/2000/svg" xmlns:xlink="http://www.w3.org/1999/xlink">
    <!-- Generator: Sketch 52.2 (67145) - http://www.bohemiancoding.com/sketch -->
    <title>64619</title>
    <desc>Created with Sketch.</desc>
    <g id="Page-1" stroke="none" stroke-width="1" fill="none" fill-rule="evenodd">
        <g id="pet" transform="translate(-235.000000, -625.000000)" fill="#FFFFFF" fill-rule="nonzero">
            <g id="Group-Copy-2" transform="translate(225.000000, 614.000000)">
                <g id="64619" transform="translate(10.000000, 11.000000)">
                    <path d="M15.7308604,13.733711 C15.9565303,13.388102 16.1511425,13.0226629 16.3119605,12.6430595 C16.6673907,11.8016997 16.8451058,10.9065156 16.8451058,9.98583569 C16.8451058,9.06515581 16.6645698,8.16997167 16.3119605,7.3286119 C15.9706347,6.51558074 15.4798025,5.78470255 14.8535684,5.15864023 C14.2301551,4.5325779 13.5023977,4.03966006 12.6927786,3.69405099 C12.0326939,3.41359773 11.3302962,3.2407932 10.6165867,3.18130312 C10.4050212,3.16430595 10.1906347,3.15864023 9.97906911,3.15864023 C9.06228491,3.15864023 8.17088858,3.33994334 7.33308886,3.69405099 C6.52349788,4.0368272 5.79571227,4.52974504 5.1722708,5.15864023 C4.54885755,5.78470255 4.05802539,6.51558074 3.71390691,7.3286119 C3.35844852,8.16997167 3.18076164,9.06515581 3.18076164,9.98583569 C3.18076164,10.9065156 3.36126939,11.8016997 3.71390691,12.6430595 C3.87466855,13.0226629 4.06933709,13.388102 4.29500705,13.733711 C4.54888575,14.121813 4.84507757,14.4844193 5.17229901,14.815864 C5.79574048,15.4419263 6.52349788,15.9348442 7.33311707,16.2804533 C8.05808181,16.5892068 8.82533145,16.7648725 9.61238364,16.8073654 C9.87754584,16.8215297 10.1455289,16.8215297 10.4106911,16.8073654 C11.200536,16.7648725 11.9678138,16.5892351 12.6927786,16.2804533 C13.5023695,15.9376487 14.2301551,15.4447592 14.8535684,14.815864 C15.1807898,14.4844193 15.4769817,14.121813 15.7308604,13.733711 Z M10.5601693,6.33427762 C10.8027927,5.49008499 11.5390127,4.9631728 12.2047673,5.15580737 C12.8704937,5.34844193 13.2117913,6.1898017 12.9692243,7.03399433 C12.7266291,7.87818697 11.9903808,8.40509915 11.3246544,8.21246459 C10.6617489,8.01983003 10.3176023,7.17847025 10.5601693,6.33427762 Z M7.82112835,5.15580737 C8.48685472,4.9631728 9.22310296,5.49008499 9.46569817,6.33427762 C9.70832158,7.17847025 9.36414669,8.01983003 8.70124118,8.21246459 C8.0354866,8.40509915 7.29926657,7.87818697 7.05667137,7.03399433 C6.81125529,6.1898017 7.15540197,5.34844193 7.82112835,5.15580737 Z M5.20617772,10.0226629 C4.8761354,9.20963173 5.12719323,8.33711048 5.76753173,8.07365439 C6.40787024,7.8101983 7.19489422,8.25779037 7.5277292,9.07082153 C7.85777151,9.88385269 7.60674189,10.7563739 6.96640339,11.01983 C6.32606488,11.2832861 5.53901269,10.8356941 5.20617772,10.0226629 Z M11.6800846,14.0141643 C10.6702116,13.7365439 9.51365303,13.7705099 8.49534556,13.98017 C8.44454161,13.9915014 8.39661495,14.0028329 8.34866008,14.0141643 C7.80705219,14.1614731 6.57715092,13.9150142 6.82253879,12.7790085 C7.06795487,11.6430312 8.15119887,11.6912181 8.44739069,10.1614731 C8.5348378,9.71104816 8.73794076,9.26628895 9.12155148,8.99433428 C9.49675599,8.72804533 10.0016643,8.66005666 10.4417489,8.77903683 C10.771763,8.86685552 11.0594922,9.07082153 11.2569535,9.35127479 C11.4262059,9.59206799 11.5249365,9.87535411 11.581354,10.1614731 C11.8775458,11.694051 12.9607616,11.6430595 13.2062059,12.7790085 C13.4487729,13.9150142 12.2188717,14.1614731 11.6800846,14.0141643 Z M13.0594922,11.01983 C12.4191537,10.7563739 12.165275,9.88385269 12.4981382,9.07082153 C12.8281805,8.25779037 13.6152327,7.8101983 14.2583639,8.07365439 C14.8987024,8.33711048 15.1525811,9.20963173 14.8196897,10.0226629 C14.4868547,10.8356941 13.6998307,11.2832861 13.0594922,11.01983 Z" id="Shape"></path>
                    <path d="M12.0214104,19.2577904 C12.1060367,19.2577904 12.1934838,19.2719547 12.27811,19.3031445 C13.2710578,19.6572521 14.5460931,19.1246459 14.9946121,18.17 C15.1187306,17.9065156 15.3726093,17.7365439 15.6603667,17.7252408 C16.7125529,17.6770822 17.6913963,16.6969122 17.7478138,15.6430878 C17.7619182,15.3598017 17.9283216,15.1105099 18.1822003,14.9915297 C19.132835,14.5354108 19.6603385,13.2549858 19.3049083,12.2606516 C19.2061777,11.9886969 19.268237,11.6855807 19.4629055,11.4731161 C20.1737659,10.6912465 20.1737659,9.30314448 19.4741608,8.51844193 C19.2851904,8.3088102 19.2287729,8.01419263 19.3218618,7.74790368 C19.6744711,6.75073654 19.1441467,5.47028329 18.193512,5.01985836 C17.9311707,4.89521246 17.7619182,4.64025496 17.7506347,4.35130312 C17.7280677,3.86971671 17.4995769,3.34847025 17.0792666,2.92637394 C16.664598,2.50994334 16.1511989,2.28048159 15.677292,2.25498584 C15.3952045,2.24082153 15.1469676,2.07368272 15.0284908,1.81872521 C14.822567,1.38813031 14.4163611,0.997195467 13.8747532,0.770566572 C13.5673061,0.643087819 13.2541608,0.580764873 12.957969,0.580764873 C12.7266855,0.580764873 12.5066291,0.617592068 12.306347,0.688413598 C12.2188999,0.719575071 12.1314528,0.733739377 12.0411848,0.733739377 C11.8522144,0.733739377 11.6632158,0.665750708 11.519323,0.529773371 C11.1666573,0.203966006 10.6335402,0 10.0411566,0 C10.0214104,0 9.99884344,0 9.97909732,0 C9.38671368,0 8.85638928,0.203966006 8.50377997,0.529745042 C8.3570945,0.662889518 8.17091678,0.733711048 7.98191819,0.733711048 C7.89444288,0.733711048 7.8042031,0.719546742 7.71957687,0.688385269 C7.52211566,0.617563739 7.29926657,0.580736544 7.06792666,0.580736544 C6.77173484,0.580736544 6.45861777,0.640226629 6.15114245,0.770538244 C5.60953456,0.997167139 5.20332863,1.38526912 4.997433,1.81869688 C4.87610719,2.07365439 4.62787024,2.2407932 4.34863188,2.25495751 C3.87469676,2.28045326 3.3612976,2.50991501 2.94665726,2.92634561 C2.52634697,3.34844193 2.29785614,3.86968839 2.27526093,4.35127479 C2.26115656,4.64022663 2.09190409,4.89518414 1.83241185,5.01983003 C0.881777151,5.47025496 0.35145275,6.75070822 0.704062059,7.74787535 C0.797150917,8.01416431 0.740733427,8.30878187 0.551734838,8.5184136 C-0.150662906,9.30311615 -0.147842031,10.6912181 0.563018336,11.4730878 C0.757630465,11.6883853 0.816897038,11.9886686 0.720987306,12.2606232 C0.365557123,13.2549858 0.893060649,14.5354108 1.84369535,14.9915014 C2.09757405,15.1133144 2.26400564,15.3626062 2.27811001,15.6430595 C2.3345275,16.6968839 3.31337094,17.6770538 4.36555712,17.7252125 C4.65328632,17.7393768 4.90716502,17.9093484 5.0312835,18.1699717 C5.06234133,18.2351275 5.09619182,18.2974504 5.13565585,18.359745 C5.15260931,18.3852408 5.16950635,18.4107649 5.18643159,18.4362323 C5.72803949,19.2209348 6.85359661,19.6232011 7.75060649,19.3031161 C7.83523272,19.2719263 7.91985896,19.257762 8.00730606,19.257762 C8.19351199,19.257762 8.37401975,19.3257507 8.51791255,19.4532295 C8.9212976,19.8158357 9.47136812,19.9829745 10.0101269,19.9744476 C10.5743018,19.9829745 11.1046544,19.8158074 11.5080395,19.4532295 C11.649055,19.325779 11.8352327,19.2577904 12.0214104,19.2577904 Z M10.0411566,17.8073654 C8.98332863,17.8102266 7.92550071,17.6062323 6.94944993,17.1926629 C6.02141044,16.7988952 5.18925247,16.2351275 4.47557123,15.5156091 C4.09757405,15.1360057 3.76186178,14.7224079 3.47131171,14.2776487 C3.21461213,13.883881 2.99176305,13.4674504 2.80558533,13.0283569 C2.39937941,12.0651841 2.19345557,11.0396884 2.19345557,9.98303116 C2.19345557,8.92637394 2.39937941,7.90371105 2.80558533,6.93770538 C3.19765867,6.00569405 3.7590409,5.17 4.47554302,4.45328612 C5.18922426,3.73657224 6.02417489,3.17283286 6.94942172,2.77623229 C7.61232722,2.49577904 8.3119323,2.30597734 9.02561354,2.21815864 C9.36411848,2.17566572 9.69977433,2.16150142 10.0411283,2.16150142 C11.0933145,2.16150142 12.117292,2.36830028 13.0763893,2.77623229 C14.004457,3.17 14.836615,3.73373938 15.5502962,4.45328612 C16.2639774,5.17 16.8253315,6.00852691 17.2202539,6.93770538 C17.6264316,7.90087819 17.8323836,8.92637394 17.8323836,9.98303116 C17.8323836,11.0396884 17.6264316,12.0623513 17.2202539,13.0283569 C17.036897,13.4674504 16.814048,13.8838527 16.5544993,14.2776487 C16.2639492,14.7195751 15.9282934,15.1360057 15.550268,15.5156091 C14.8365867,16.2323229 14.0016079,16.7960623 13.0735402,17.1926629 C12.2413822,17.5467705 11.3612694,17.7479037 10.4585896,17.7960623 C10.3203949,17.8016997 10.1822003,17.8073654 10.0411566,17.8073654 Z" id="Shape"></path>
                </g>
            </g>
        </g>
    </g>
</svg>