<?xml version="1.0" encoding="UTF-8"?>
<svg width="70px" height="92px" viewBox="0 0 70 92" version="1.1" xmlns="http://www.w3.org/2000/svg" xmlns:xlink="http://www.w3.org/1999/xlink">
    <!-- Generator: Sketch 51.1 (57501) - http://www.bohemiancoding.com/sketch -->
    <title>person</title>
    <desc>Created with Sketch.</desc>
    <defs></defs>
    <g id="Page-1" stroke="none" stroke-width="1" fill="none" fill-rule="evenodd">
        <g id="person" transform="translate(0.000000, -1.000000)" fill="#FFFFFF" fill-rule="nonzero">
            <g id="Group" transform="translate(0.000000, 0.637820)">
                <path d="M18.743201,6.9437 C16.350701,10.56735 15.393201,15.06165 15.119601,19.22299 C13.000801,19.28189 13.000801,21.28213 12.9955,23.47229 C13.249901,25.78123 14.000201,28.5206 15.994301,29.44009 C16.015301,29.44074 16.036301,29.44074 16.056301,29.44009 C16.936301,32.8206 18.345901,36.19554 20.304501,39.15729 C23.711901,44.3098 28.749501,48.2425 34.986001,48.3121 C41.202801,48.3811 46.199301,44.4972 49.605001,39.34475 C51.595901,36.33274 53.050701,32.88748 53.947001,29.44009 C56.134801,28.16479 56.751701,25.77197 56.977001,23.47229 C57.000001,21.28213 57.000001,19.28185 54.884101,19.22299 C54.633901,15.05035 53.713801,10.57818 51.354301,6.97495 C48.443301,2.52964 43.236601,-0.40352 35.173401,0.53848 C35.082401,0.52688 35.014101,0.54908 34.923501,0.53848 C28.870601,-0.35008 21.901701,2.31066 18.742701,6.9437 L18.743201,6.9437 Z M49.699201,8.06852 C50.975501,10.01751 51.785901,12.36263 52.291901,14.7862 C52.048901,14.49073 51.793201,14.16454 51.511001,13.84886 C49.640501,12.07653 48.084701,11.58465 45.825801,11.7867 C43.447101,12.27588 41.974101,14.30745 40.390501,15.56735 C38.463401,17.08609 35.194001,18.84365 28.739101,20.2541 C29.686501,18.15067 30.696401,15.82326 30.988101,13.88012 C31.045101,13.39222 30.687201,12.8907 30.207201,12.78654 C27.364301,12.22355 24.567201,13.20929 22.054301,14.78622 C20.311301,15.88002 18.679301,17.26028 17.181301,18.69185 C17.504701,14.95889 18.416501,11.07079 20.398701,8.06854 C24.594701,3.01684 29.286001,1.84611 34.924001,2.53816 C35.007001,2.54856 35.091001,2.54856 35.173901,2.53816 C40.658701,1.75916 47.000201,4.08647 49.699201,8.06852 Z M50.042801,15.19239 C50.874601,16.29345 51.730801,17.15703 52.760501,17.87946 C52.914101,19.36038 52.996801,20.82338 52.979101,22.22252 C52.916101,27.26321 51.117801,33.42739 47.949901,38.21996 C44.782101,43.01254 40.354001,46.3723 34.986501,46.3124 C29.578101,46.2524 25.129701,42.85595 21.960601,38.06374 C18.791501,33.27152 17.025101,27.1314 17.025101,22.09754 C18.354801,19.9548 21.134301,17.73925 23.116401,16.47343 C24.985501,15.30048 26.839901,14.76104 28.645401,14.7862 C28.212101,17.18881 26.728901,19.37733 26.052701,21.34765 C25.824001,22.0047 26.493101,22.78552 27.177201,22.65995 C35.282201,21.1552 39.260301,19.00499 41.640001,17.12958 C43.089901,15.81075 44.558201,14.35286 46.169401,13.75512 C47.673601,13.41084 49.207301,14.26555 50.042801,15.19239 Z M41.358901,50.3431 C38.985401,52.2335 37.229801,55.0051 34.861601,56.5296 C32.692401,54.7761 31.398101,52.2159 29.457501,50.468 C28.556101,49.596 27.593201,49.5422 26.583701,49.6557 C20.992201,52.2987 13.489801,54.9551 8.2788,58.3105 C3.4273,61.4983 -0.0618,65.5781 0.0008,71.2956 C0.0008,76.2948 0.0008,83.2937 0.0008,87.2931 C0.0008,91.2925 2.9996,92.2923 9.9968,92.2738 C28.279801,92.445 43.354901,92.3168 59.851401,92.3048 C63.838801,92.1419 68.187801,91.5807 69.409901,87.6181 C70.397401,84.2513 69.847201,79.3422 69.847201,71.4332 C69.847201,65.7412 66.270501,61.6838 61.413201,58.4352 C56.555901,55.1866 50.315001,52.5721 44.388901,49.5616 C43.209001,49.1201 42.299401,49.7026 41.358901,50.3429 L41.358901,50.3431 Z M17.774801,55.5922 L24.303301,64.872 C24.589801,65.2699 25.190901,65.3988 25.615301,65.1532 L29.051401,63.091 L29.051401,65.3406 C29.041401,65.6707 29.215801,65.9986 29.488701,66.1842 L31.956401,67.809 L27.239601,90.3366 C22.604201,90.3266 18.634401,90.3266 15.057101,90.3056 L15.057101,81.3383 C15.072101,80.7333 14.429201,80.206 13.838901,80.3385 C13.391901,80.4386 13.046901,80.8803 13.057901,81.3383 L13.057901,90.3056 C12.1272,90.2956 10.7753,90.2846 9.9967,90.2746 C4.9988,90.2926 2,90.2926 2,87.2935 C2,84.294 1.931,79.3511 2,71.2961 C1.7814,66.284 6.0949,62.1659 9.372,59.967 C12.2408,58.2065 15.225001,56.7384 17.774801,55.5926 L17.774801,55.5922 Z M52.323101,55.6862 C55.237201,57.1206 57.994401,58.5365 60.319801,60.0917 C64.924601,63.1715 67.848001,66.559 67.848001,71.4337 C67.848001,79.4255 68.265801,84.4602 67.504401,87.0562 C66.291901,90.3664 62.415401,90.2958 59.851301,90.3057 C59.212101,90.3057 57.774001,90.3057 57.039901,90.3057 L57.039901,81.3384 C57.054901,80.7333 56.412001,80.206 55.821701,80.3385 C55.374701,80.4386 55.029701,80.8803 55.040701,81.3384 L55.040701,90.3057 C51.606301,90.3187 47.377901,90.3287 42.889501,90.3367 L38.172701,67.8092 L40.609201,66.1844 C40.882101,65.9988 41.052101,65.6709 41.046501,65.3408 L41.046501,63.0599 L44.513801,65.1534 C44.943601,65.417 45.569101,65.2861 45.857001,64.8721 L52.323101,55.6862 Z M35.048901,59.3419 C36.985701,59.2979 37.424301,59.7479 38.360001,60.3105 C39.333801,61.6819 39.047201,63.0981 39.047201,64.7785 L36.485801,66.497 C36.153201,66.7249 35.984001,67.1676 36.079701,67.5593 L40.827801,90.3682 C36.692601,90.3782 33.453601,90.3682 29.301201,90.3682 L34.049301,67.5593 C34.139301,67.1613 33.955301,66.7165 33.612001,66.497 L31.050501,64.7785 C30.882801,63.1353 31.090501,61.5522 31.800201,60.3417 C33.084701,59.6287 32.987301,59.2979 35.048901,59.3419 Z" id="Shape"></path>
            </g>
        </g>
    </g>
</svg>