<svg width="159" height="159" viewBox="0 0 159 159" fill="none" xmlns="http://www.w3.org/2000/svg">
<path d="M46.905 64.395L35.775 75.525L71.55 111.3L151.05 31.8L139.92 20.67L71.55 89.04L46.905 64.395ZM143.1 79.5C143.1 114.48 114.48 143.1 79.5 143.1C44.52 143.1 15.9 114.48 15.9 79.5C15.9 44.52 44.52 15.9 79.5 15.9C85.86 15.9 91.425 16.695 96.99 18.285L109.71 5.565C100.17 2.385 89.835 0 79.5 0C35.775 0 0 35.775 0 79.5C0 123.225 35.775 159 79.5 159C123.225 159 159 123.225 159 79.5H143.1Z" fill="#32C739"/>
</svg>
