<?xml version="1.0" encoding="UTF-8"?>
<svg width="49px" height="37px" viewBox="0 0 49 37" version="1.1" xmlns="http://www.w3.org/2000/svg" xmlns:xlink="http://www.w3.org/1999/xlink">
    <!-- Generator: Sketch 51.2 (57519) - http://www.bohemiancoding.com/sketch -->
    <title>160205</title>
    <desc>Created with Sketch.</desc>
    <defs></defs>
    <g id="Page-1" stroke="none" stroke-width="1" fill="none" fill-rule="evenodd">
        <g id="160205" fill="#FFFFFF" fill-rule="nonzero">
            <path d="M39.256,0.5 L9.744,0.5 C4.371,0.5 0,4.885 0,10.274 L0,26.725 C0,32.115 4.371,36.499 9.744,36.499 L39.256,36.499 C44.629,36.499 49,32.114 49,26.725 L49,10.274 C49,4.885 44.629,0.5 39.256,0.5 Z M47,26.726 C47,31.013 43.526,34.5 39.256,34.5 L9.744,34.5 C5.474,34.5 2,31.012 2,26.726 L2,10.274 C2,5.988 5.474,2.5 9.744,2.5 L39.256,2.5 C43.526,2.5 47,5.988 47,10.274 L47,26.726 Z" id="Shape"></path>
            <path d="M33.36,18.138 L19.505,10.023 C19.197,9.843 18.814,9.84 18.503,10.018 C18.192,10.196 18,10.527 18,10.886 L18,27.115 C18,27.473 18.192,27.805 18.502,27.983 C18.656,28.071 18.828,28.115 19,28.115 C19.175,28.115 19.349,28.069 19.505,27.978 L33.36,19.865 C33.666,19.686 33.855,19.357 33.855,19.002 C33.855,18.647 33.667,18.317 33.36,18.138 Z M20,25.37 L20,12.63 L30.876,19.001 L20,25.37 Z" id="Shape"></path>
        </g>
    </g>
</svg>