<?xml version="1.0" encoding="UTF-8"?>
<svg width="140px" height="140px" viewBox="0 0 140 140" version="1.1" xmlns="http://www.w3.org/2000/svg" xmlns:xlink="http://www.w3.org/1999/xlink">
    <!-- Generator: Sketch 51.2 (57519) - http://www.bohemiancoding.com/sketch -->
    <title>cross</title>
    <desc>Created with Sketch.</desc>
    <defs></defs>
    <g id="Page-1" stroke="none" stroke-width="1" fill="none" fill-rule="evenodd">
        <g id="home-search-copy" transform="translate(-650.000000, -824.000000)" fill="#D0021B" fill-rule="nonzero">
            <g id="cross" transform="translate(650.000000, 824.000000)">
                <path d="M70,0 C31.5519531,0 0,31.5519531 0,70 C0,108.448047 31.5519531,140 70,140 C108.448047,140 140,108.448047 140,70 C140,31.5519531 108.448047,0 70,0 Z M70,16.6796875 C81.1390234,16.6796875 91.8216797,20.0921875 100.885859,26.5529688 C101.074805,26.6880469 101.243242,26.8392578 101.401563,26.9973047 L70,58.3991406 L38.5631641,26.9620312 C47.3839844,20.50125 58.2533984,16.6796875 70,16.6796875 Z M26.5529688,100.885859 C20.0921875,91.8216797 16.6796875,81.1390234 16.6796875,70 C16.6796875,58.2533984 20.50125,47.3839844 26.9620312,38.5628906 L58.3991406,70 L26.9973047,101.401836 C26.8392578,101.243242 26.6880469,101.074805 26.5529688,100.885859 Z M70,123.320312 C58.8609766,123.320312 48.1783203,119.907813 39.1141406,113.447031 C38.9251953,113.311953 38.7567578,113.160742 38.5984375,113.002695 L70,81.6008594 L101.436836,113.037695 C92.6160156,119.49875 81.7466016,123.320312 70,123.320312 Z M113.037969,101.437109 L81.6008594,70 L113.002148,38.5987109 C113.161016,38.7573047 113.3125,38.9260156 113.447031,39.1141406 C119.907813,48.1783203 123.320312,58.8609766 123.320312,70 C123.320312,81.7466016 119.49875,92.6160156 113.037969,101.437109 Z" id="Shape"></path>
            </g>
        </g>
    </g>
</svg>