<svg xmlns="http://www.w3.org/2000/svg" width="140" height="140" viewBox="0 0 140 140">
    <path fill="#3DB39E" fill-rule="nonzero" d="M70.002 0C31.335 0 0 31.342 0 70c0 38.662 31.339 70 70.002 70C108.662 140 140 108.662 140 70c0-38.653-31.339-70-69.998-70zm0 126.875c-31.413 0-56.876-25.463-56.876-56.875s25.467-56.875 56.876-56.875c31.41 0 56.872 25.463 56.872 56.875s-25.462 56.875-56.872 56.875zm27.511-86.651c-2.975-1.776-6.777-.722-8.487 2.362L65.553 84.748 52.48 68.836c-2.367-2.725-5.512-4.138-8.483-2.362-2.976 1.78-4.205 6.064-2.28 8.811L59.91 97.427c1.36 1.767 2.914 2.826 4.537 3.128l.013.027.167.009c.367.056 5.863 1.071 8.23-3.164l26.942-48.391c1.71-3.09.69-7.032-2.285-8.812z"/>
</svg>
