<?xml version="1.0" encoding="UTF-8"?>
<svg width="555px" height="441px" viewBox="0 0 555 441" version="1.1" xmlns="http://www.w3.org/2000/svg" xmlns:xlink="http://www.w3.org/1999/xlink">
    <!-- Generator: Sketch 53.2 (72643) - https://sketchapp.com -->
    <title>Group</title>
    <desc>Created with Sketch.</desc>
    <defs>
        <linearGradient x1="50.0849983%" y1="99.9781204%" x2="50.0849983%" y2="0.0392345446%" id="linearGradient-1">
            <stop stop-color="#5243F6" offset="0.2563985%"></stop>
            <stop stop-color="#240CBE" offset="100%"></stop>
        </linearGradient>
        <linearGradient x1="49.9149688%" y1="100.105157%" x2="49.9149688%" y2="0.115614025%" id="linearGradient-2">
            <stop stop-color="#CE9B24" offset="30.6%"></stop>
            <stop stop-color="#DAB12A" offset="100%"></stop>
        </linearGradient>
        <linearGradient x1="50.017906%" y1="99.8913625%" x2="50.017906%" y2="-0.0392713722%" id="linearGradient-3">
            <stop stop-color="#240C8C" offset="0%"></stop>
            <stop stop-color="#240CBE" offset="100%"></stop>
        </linearGradient>
        <linearGradient x1="50.2195225%" y1="100.182564%" x2="50.2195225%" y2="0.045162222%" id="linearGradient-4">
            <stop stop-color="#5D9166" offset="0%"></stop>
            <stop stop-color="#78C59D" offset="100%"></stop>
        </linearGradient>
        <linearGradient x1="50.0816778%" y1="99.9898652%" x2="50.0816778%" y2="0.0437418388%" id="linearGradient-5">
            <stop stop-color="#5D9166" offset="0%"></stop>
            <stop stop-color="#78C59D" offset="100%"></stop>
        </linearGradient>
    </defs>
    <g id="Page-1" stroke="none" stroke-width="1" fill="none" fill-rule="evenodd">
        <g id="lp" transform="translate(-720.000000, -1690.000000)">
            <g id="Group" transform="translate(720.000000, 1690.000000)">
                <path d="M113.449559,38.6028117 C90.2137453,24.452934 60.3291299,27.25489 40.1727617,45.4676039 C29.7446406,54.8541565 19.1765448,68.1634474 9.72824716,87.0766504 C1.46973518,103.67824 -0.839848676,125.883741 0.559899117,150.190709 C6.64880202,258.066015 81.535309,349.760024 185.676545,378.269927 C266.931904,400.545477 367.083859,415.535941 436.861286,383.593643 C573.406683,321.110024 570.677175,84.7650367 530.364439,39.2332518 C490.051702,-6.29853301 402.917402,-12.8130807 344.407945,26.2041565 C292.127364,61.1585575 171.889029,74.2577017 113.449559,38.6028117 Z" id="Path" fill="#F7F7FF" fill-rule="nonzero"></path>
                <path d="M141.164565,66.1320293 C121.848045,54.3638142 97.0725095,56.7454768 80.2755359,71.8760391 C71.5970996,79.651467 62.8486759,90.7191932 55.0100883,106.480196 C48.1513241,120.279829 46.2616646,138.772738 47.3814628,158.946822 C52.4205549,248.609413 114.639344,324.752567 201.143758,348.499144 C268.681589,366.992054 351.896595,379.460758 409.846154,352.912225 C523.295712,301.00599 520.986129,104.658924 487.532156,66.7624694 C454.078184,28.9360636 381.641236,23.5422983 333.069987,55.9749389 C289.607818,84.8350856 189.735813,95.692665 141.164565,66.1320293 Z" id="Path" fill="#E9E9FD" fill-rule="nonzero" opacity="0.74"></path>
                <path d="M306.754729,293.230562 L300.875788,299.885208 L295.066835,301.846577 C292.337327,302.757213 292.477301,306.75 295.276797,307.450489 L312.703657,311.86357 L318.582598,296.452812 L306.754729,293.230562 Z" id="Path" fill="#0B005E" fill-rule="nonzero"></path>
                <g transform="translate(312.843632, 311.303178)" fill-rule="nonzero" id="Path">
                    <polygon fill="#C5C9F3" points="0.209962169 3.85268949 10.9180328 27.949511 16.3070618 25.147555 15.2572509 0.630440098"></polygon>
                    <path d="M10.2881463,26.8287286 L7.69861286,35.0244499 L4.12925599,39.9979218 C2.44955864,42.3795844 4.82912989,45.4617359 7.55863808,44.4110024 L21.1361917,39.9278729 L16.8669609,23.9567237 L10.2881463,26.8287286 Z" fill="#0B005E"></path>
                </g>
                <g transform="translate(382.831021, 137.581907)" id="Path">
                    <polygon fill="#FFFFFF" fill-rule="nonzero" points="0.139974779 25.3577017 48.0813367 0.560391198 104.071248 30.6113692 56.3398487 57.0198044"></polygon>
                    <polygon fill="#EEF0FD" fill-rule="nonzero" points="103.721311 29.2804401 56.3398487 57.0198044 56.3398487 112.008191 103.721311 83.9185819"></polygon>
                    <polygon fill="#C7CCF6" fill-rule="nonzero" points="0.489911728 25.7079462 0.489911728 79.7856968 56.3398487 112.008191 56.3398487 57.0198044"></polygon>
                    <path d="M44.4419924,83.4282396 L104.281211,49.594621" stroke="#C7CCF6" stroke-width="1.23018"></path>
                    <path d="M76.8461538,57.5101467 L92.6633039,48.8240831" stroke="#C7CCF6" stroke-width="2.76787" stroke-linecap="round" stroke-linejoin="round"></path>
                    <path d="M76.9861286,75.9330073 L92.8732661,67.2469438" stroke="#C7CCF6" stroke-width="2.76787" stroke-linecap="round" stroke-linejoin="round"></path>
                    <path d="M76.9861286,93.5152812 L92.8732661,84.8292176" stroke="#C7CCF6" stroke-width="2.76787" stroke-linecap="round" stroke-linejoin="round"></path>
                    <path d="M48.2213115,98.9790954 L104.281211,66.5464548" stroke="#C7CCF6" stroke-width="1.23018"></path>
                </g>
                <path d="M135.285624,229.205868 L135.285624,304.578484" id="Path" stroke="#C7CCF6" stroke-width="7.06496" stroke-linecap="round"></path>
                <path d="M399.278058,189.418093 L399.278058,264.790709" id="Path" stroke="#C7CCF6" stroke-width="7.06496" stroke-linecap="round"></path>
                <path d="M234.037831,276.699022 L234.037831,352.071638" id="Path" stroke="#C7CCF6" stroke-width="7.06496" stroke-linecap="round"></path>
                <polygon id="Path" fill="#FFFFFF" fill-rule="nonzero" points="128.776797 225.353178 317.742749 121.120416 421.254098 176.038753 232.568096 282.933374"></polygon>
                <path d="M344.827869,264.370416 L374.852459,333.50868" id="Path" stroke="#D1D5F5" stroke-width="3.53248" stroke-linecap="round"></path>
                <path d="M320.752207,264.020171 L290.937579,333.298533" id="Path" stroke="#D1D5F5" stroke-width="3.53248" stroke-linecap="round"></path>
                <g transform="translate(286.248424, 243.355746)" fill-rule="nonzero" id="Path">
                    <path d="M42.202396,67.4570905 L29.6046658,5.04352078 L20.1563682,0.350244499 L9.16834805,3.92273839 L0.139974779,8.82616137 L5.66897856,24.5871638 L5.24905422,25.2876528 L24.9854981,72.4305623 C25.9653216,74.6721271 28.3448928,75.7929095 30.7244641,75.1624694 L38.7030265,72.8508557 C41.1525851,72.1503667 42.6223203,69.8387531 42.202396,67.4570905 Z" fill="url(#linearGradient-1)"></path>
                    <path d="M43.8121059,72.7107579 L27.1551072,77.4740831 C26.6651955,77.6141809 26.1752837,77.3339853 26.1052963,76.843643 L24.9854981,72.7808068 C24.8455233,72.2904645 25.1254729,71.8001222 25.6153846,71.7300733 L42.2723834,66.9667482 C42.7622951,66.8266504 43.2522068,67.106846 43.3221942,67.5971883 L44.4419924,71.6600244 C44.5819672,72.0803178 44.3020177,72.5706601 43.8121059,72.7107579 Z" fill="#3636F9"></path>
                </g>
                <path d="M290.727617,273.056479 L315.85309,290.21846 C320.332282,293.300611 326.071248,294.0011 331.11034,292.039731 L368.693569,277.889853 L355.675914,251.761614 L314.733291,246.437897 L290.447667,265.771394 C288.138083,267.662714 288.208071,271.305257 290.727617,273.056479 Z" id="Path" fill="#9CA5EB" fill-rule="nonzero"></path>
                <path d="M275.820303,170.364792 L231.448298,194.461614 C229.978562,195.232152 229.978562,197.333619 231.448298,198.104156 L268.681589,219.118826 C269.311475,219.469071 270.081337,219.469071 270.711223,219.118826 L315.013241,193.691076 C316.412989,192.850489 316.412989,190.819071 314.943253,190.048533 L277.77995,170.364792 C277.150063,170.014548 276.450189,170.014548 275.820303,170.364792 Z" id="Path" fill="#9CA5EB" fill-rule="nonzero"></path>
                <path d="M290.447667,256.524939 C290.447667,256.524939 327.261034,282.022738 332.580076,282.022738 C337.899117,282.022738 336.709332,257.645721 336.709332,257.645721 L319.492434,238.032029 L290.447667,256.524939 Z" id="Path" fill="#5243F6" fill-rule="nonzero"></path>
                <path d="M332.72005,279.220782 C327.750946,279.220782 295.626734,257.155379 291.147541,254.073227 L288.697982,255.614303 C288.697982,255.614303 325.511349,281.112103 330.830391,281.112103 C331.740227,281.112103 332.510088,280.341565 333.069987,279.150733 C332.930013,279.220782 332.790038,279.220782 332.72005,279.220782 Z" id="Path" fill="#240CBE" fill-rule="nonzero"></path>
                <path d="M302.555485,194.04132 C302.555485,194.04132 294.156999,193.831174 290.517654,189.908435 C286.87831,185.985697 296.956494,185.355257 305.145019,188.787653 C313.473518,192.079951 302.555485,194.04132 302.555485,194.04132 Z" id="Path" fill="#D8DBF7" fill-rule="nonzero"></path>
                <polygon id="Path" fill="#D8DBF7" fill-rule="nonzero" points="323.201765 189.698289 302.905422 188.087164 303.745271 193.41088 322.151955 196.563081"></polygon>
                <polygon id="Path" fill="#CACDF4" fill-rule="nonzero" points="324.251576 177.50978 330.480454 188.227262 340.278689 189.978484 345.59773 183.183741 334.049811 169.524205"></polygon>
                <polygon id="Path" fill="#EEF0FD" fill-rule="nonzero" points="232.568096 282.933374 412.925599 180.171638 412.3657 186.756235 232.568096 290.078362"></polygon>
                <path d="M329.150694,186.265892 C329.150694,186.265892 310.184111,210.64291 319.982346,249.169804 C329.78058,287.696699 370.723203,226.894254 370.723203,226.894254 C370.723203,226.894254 365.964061,178.77066 343.428121,178.77066 C343.498108,189.137897 329.150694,186.265892 329.150694,186.265892 Z" id="Path" fill="url(#linearGradient-2)" fill-rule="nonzero"></path>
                <path d="M355.535939,179.751345 C352.666456,177.159535 348.467213,176.318949 344.897856,177.860024 C344.127995,178.210269 343.498108,178.560513 343.218159,179.050856 C342.028373,180.802078 365.334174,201.326406 365.334174,201.326406 C365.334174,201.326406 365.824086,188.927751 355.535939,179.751345 Z" id="Path" fill="#EFC330" fill-rule="nonzero"></path>
                <path d="M309.694199,157.055501 C309.694199,157.055501 315.29319,184.094377 324.671501,179.611247 C334.049811,175.128117 340.558638,162.659413 340.558638,162.659413 L327.890921,152.572372 L309.694199,157.055501 Z" id="Path" fill="#C1C5F2" fill-rule="nonzero"></path>
                <polygon id="Path" fill="#C5C9F3" fill-rule="nonzero" points="301.435687 218.488386 285.688525 234.529584 291.287516 243.70599 304.375158 237.191443 311.793821 225.91357"></polygon>
                <path d="M328.660782,186.40599 C328.660782,186.40599 317.952711,190.538875 298.42623,222.06088 C297.86633,230.046455 302.905422,238.102078 302.905422,238.102078 C302.905422,238.102078 314.803279,233.058557 322.781841,221.500489 C330.760404,209.872372 328.660782,186.40599 328.660782,186.40599 Z" id="Path" fill="#EFC330" fill-rule="nonzero"></path>
                <g transform="translate(265.952081, 202.026895)" fill="#D8DBF7" fill-rule="nonzero" id="Path">
                    <path d="M9.93820933,13.7996333 L21.906053,33.1331296 L26.3852459,41.0486553 C26.3852459,41.0486553 16.7969735,52.1864303 10.9880202,39.5075795 C5.17906683,26.8987775 4.12925599,14.64022 4.12925599,14.64022 L9.93820933,13.7996333 Z"></path>
                    <path d="M4.12925599,14.64022 C4.12925599,14.64022 -0.489911728,7.63533007 0.629886507,2.38166259 C1.74968474,-2.87200489 8.04854981,5.04352078 9.93820933,13.7996333 C11.8978562,22.4856968 4.12925599,14.64022 4.12925599,14.64022 Z"></path>
                </g>
                <path d="M431.332282,178.420416 C423.913619,166.512103 400.467844,175.758557 388.010088,156.425061 C375.552333,137.091565 360.155107,141.014303 350.356873,144.866993 C346.437579,146.408068 342.448298,146.267971 339.088903,145.637531 C335.799496,141.154401 328.800757,139.473227 313.333544,144.586797 C313.333544,144.586797 304.865069,142.205134 303.745271,150.260758 C302.905422,156.775306 311.373897,159.787408 318.022699,158.736675 C319.072509,159.086919 320.262295,159.647311 321.592055,160.417848 C323.62169,161.60868 324.881463,163.710147 324.95145,166.02176 C325.091425,170.434841 325.511349,177.019438 326.631148,177.019438 C328.310845,177.019438 334.259773,175.408313 335.869483,170.154645 C338.039092,168.263325 341.04855,164.830929 341.818411,159.997555 C349.656999,162.099022 359.595208,178.280318 368.13367,187.736919 C377.022068,197.543765 380.591425,239.993399 420.904161,230.466748 C461.216898,220.940098 438.750946,190.328729 431.332282,178.420416 Z" id="Path" fill="url(#linearGradient-3)" fill-rule="nonzero"></path>
                <path d="M338.039092,233.5489 L377.651955,217.087408 C381.921185,215.336186 386.400378,219.048778 385.420555,223.601956 L374.712484,272.916381 C374.29256,274.737653 373.032787,276.278729 371.35309,276.979218 L336.919294,291.549389 C332.860025,293.230562 328.520807,289.938264 329.010719,285.595232 L334.60971,238.172127 C334.749685,236.07066 336.079445,234.319438 338.039092,233.5489 Z" id="Path" fill="#9CA5EB" fill-rule="nonzero"></path>
                <polygon id="Path" fill="#C7CCF6" fill-rule="nonzero" points="128.776797 225.353178 128.776797 230.95709 232.568096 290.078362 232.568096 282.933374"></polygon>
                <path d="M152.572509,138.422494 L219.130517,101.856968 C220.39029,101.156479 221.860025,102.067115 221.860025,103.468093 L222.139975,156.214914 C222.139975,156.915403 221.790038,157.545844 221.160151,157.826039 L154.602144,194.951956 C153.342371,195.652445 151.872636,194.741809 151.802648,193.340831 L151.522699,140.033619 C151.592686,139.33313 152.01261,138.702689 152.572509,138.422494 Z" id="Path" fill="#D1D5F5" fill-rule="nonzero"></path>
                <path d="M93.3631778,195.932641 L126.957125,177.50978 C127.587011,177.159535 128.356873,177.649878 128.356873,178.350367 L128.496847,204.968949 C128.496847,205.319193 128.286885,205.599389 128.006936,205.809535 L94.4129887,224.512592 C93.7831021,224.862836 93.0132409,224.442543 93.0132409,223.672005 L92.8732661,196.773227 C92.8732661,196.422983 93.0832282,196.072738 93.3631778,195.932641 Z" id="Path" fill="#FFFFFF" fill-rule="nonzero"></path>
                <path d="M185.81652,131.347555 L212.691677,116.637286 C213.181589,116.35709 213.811475,116.707335 213.811475,117.267726 L213.95145,138.562592 C213.95145,138.842787 213.811475,139.122983 213.531526,139.193032 L186.656368,154.183496 C186.166456,154.463692 185.53657,154.113447 185.53657,153.553056 L185.396595,132.048044 C185.396595,131.6978 185.606557,131.487653 185.81652,131.347555 Z" id="Path" fill="#FFFFFF" fill-rule="nonzero"></path>
                <ellipse id="Oval" fill="#EAECFC" fill-rule="nonzero" cx="200.583859" cy="124.412714" rx="3.84930643" ry="3.85268949"></ellipse>
                <ellipse id="Oval" stroke="#E7A7C5" stroke-width="3.02785" cx="42.6223203" cy="143.74621" rx="4.7591425" ry="4.76332518"></ellipse>
                <ellipse id="Oval" stroke="#82E0D2" stroke-width="2.52994" stroke-linecap="round" stroke-linejoin="round" cx="355.680328" cy="434.816381" rx="4.7591425" ry="4.76332518"></ellipse>
                <ellipse id="Oval" stroke="#82E0D2" stroke-width="2.52994" stroke-linecap="round" stroke-linejoin="round" cx="512.027743" cy="192.079951" rx="4.40920555" ry="4.41308068"></ellipse>
                <g transform="translate(412.925599, 97.654034)" fill-rule="nonzero">
                    <path d="M23.5157629,49.2443765 L23.5157629,49.0342298 L22.4659521,49.1743276 L21.4161412,49.0342298 L21.4161412,49.2443765 L9.23833544,50.5052567 L12.5277427,71.8701711 L12.5277427,71.8701711 C19.7364439,75.7228606 25.1254729,75.7228606 32.334174,71.94022 L32.4741488,71.8701711 L35.7635561,50.5052567 L23.5157629,49.2443765 Z" id="Path" fill="#D1D5F5"></path>
                    <ellipse id="Oval" fill="#9CA5EB" cx="22.5359395" cy="50.5052567" rx="13.3675914" ry="7.42518337"></ellipse>
                    <ellipse id="Oval" fill="#EEF0FD" cx="22.2559899" cy="65.005379" rx="5.03909206" ry="5.04352078"></ellipse>
                    <path d="M25.3354351,48.8240831 C25.3354351,48.8240831 22.9558638,46.3023227 21.9760404,35.7949878 C20.9962169,25.2876528 19.5264817,17.442176 10.9880202,14.9904645 C2.44955864,12.5387531 7.55863808,21.4349633 4.12925599,26.8987775 C0.699873897,32.3625917 -1.81967213,40.9786064 4.54918033,44.6211491 C10.9180328,48.2636919 21.4161412,53.5173594 21.4161412,53.5173594 L25.3354351,48.8240831 Z" id="Path" fill="url(#linearGradient-4)"></path>
                    <path d="M21.2761665,52.2564792 C21.2761665,52.2564792 26.1052963,46.092176 25.1954603,38.9471883 C24.2856242,31.8022005 21.0662043,26.548533 25.3354351,18.0726161 C29.6046658,9.59669927 34.7137453,0.910635697 40.1027743,0.490342298 C45.4918033,0 39.0529634,8.40586797 39.1229508,18.2127139 C39.1929382,28.0195599 47.6614124,33.2732274 47.3114754,36.355379 C46.9615385,39.4375306 38.1431274,51.5559902 27.295082,53.4473105 C16.517024,55.3386308 21.2761665,52.2564792 21.2761665,52.2564792 Z" id="Path" fill="url(#linearGradient-5)"></path>
                </g>
                <polyline id="Path" stroke="#F6DF9E" stroke-width="2.69472" stroke-linecap="round" stroke-linejoin="round" points="215.001261 39.0231051 226.82913 39.0231051 226.82913 47.0086797 241.386507 47.0086797"></polyline>
                <polyline id="Path" stroke="#F6DF9E" stroke-width="3.02785" stroke-linecap="round" stroke-linejoin="round" points="462.546658 39.1632029 477.104035 46.098044 463.03657 52.7526895"></polyline>
                <path d="M286.87831,70.6852078 L272.600883,83.7143032" id="Path" stroke="#CFF1F3" stroke-width="3.02785" stroke-linecap="round" stroke-linejoin="round"></path>
                <g transform="translate(202.263556, 206.930318)">
                    <g transform="translate(2.099622, 0.000000)" fill-rule="nonzero">
                        <path d="M10.8480454,4.69327628 L10.8480454,4.48312958 L10.0781841,4.62322738 L9.30832282,4.48312958 L9.30832282,4.69327628 L0.349936948,5.95415648 L2.7295082,27.3190709 L2.7295082,27.3190709 C7.97856242,31.1717604 11.9678436,31.1717604 17.2168979,27.3891198 L17.2868852,27.3190709 L19.6664565,5.95415648 L10.8480454,4.69327628 Z" id="Path" fill="#D1D5F5"></path>
                        <ellipse id="Oval" fill="#9CA5EB" cx="10.1481715" cy="6.23435208" rx="9.79823455" ry="5.95415648"></ellipse>
                        <ellipse id="Oval" fill="#EEF0FD" cx="10.4281211" cy="20.8045232" rx="3.84930643" ry="3.85268949"></ellipse>
                    </g>
                    <path d="M3.91929382,13.0290954 C3.91929382,13.0290954 0.349936948,13.309291 0.349936948,16.8817848 C0.349936948,20.4542787 5.389029,24.3069682 5.389029,24.3069682" id="Path" stroke="#D1D5F5" stroke-width="2.52322"></path>
                </g>
                <path d="M209.752207,199.78533 C209.752207,199.78533 207.372636,202.026895 209.752207,203.63802 C212.131778,205.249144 209.752207,207.700856 209.752207,207.700856 C209.752207,207.700856 207.232661,209.662225 209.752207,211.343399" id="Path" stroke="#D1D5F5" stroke-width="0.83482" stroke-linecap="round"></path>
                <path d="M214.511349,199.78533 C214.511349,199.78533 212.131778,202.026895 214.511349,203.63802 C216.890921,205.249144 214.511349,207.700856 214.511349,207.700856 C214.511349,207.700856 211.991803,209.662225 214.511349,211.343399" id="Path" stroke="#D1D5F5" stroke-width="0.83482" stroke-linecap="round"></path>
                <path d="M219.270492,199.78533 C219.270492,199.78533 216.890921,202.026895 219.270492,203.63802 C221.650063,205.249144 219.270492,207.700856 219.270492,207.700856 C219.270492,207.700856 216.750946,209.662225 219.270492,211.343399" id="Path" stroke="#D1D5F5" stroke-width="0.83482" stroke-linecap="round"></path>
                <polyline id="Path" fill="#D1D5F5" fill-rule="nonzero" points="93.5031526 217.927995 106.520807 198.874694 116.598991 204.828851 127.307062 192.360147 137.105296 202.447188 105.960908 226.54401 91.96343 228.015037 93.7831021 216.456968"></polyline>
                <ellipse id="Oval" fill="#D1D5F5" fill-rule="nonzero" cx="116.039092" cy="194.181418" rx="4.12925599" ry="4.13288509"></ellipse>
                <path d="M163.28058,180.311736 L176.998108,172.956601 C177.48802,172.676406 177.76797,172.256112 177.76797,171.695721 L177.76797,150.190709 C177.76797,149.139976 176.648172,148.439487 175.668348,148.929829 L161.880832,156.074817 C161.390921,156.355012 161.110971,156.845355 161.110971,157.335697 L161.180958,179.050856 C161.180958,180.171638 162.370744,180.802078 163.28058,180.311736 Z" id="Path" fill="#F7F7FF" fill-rule="nonzero"></path>
                <ellipse id="Oval" fill="#EAECFC" fill-rule="nonzero" cx="169.089533" cy="152.292176" rx="3.84930643" ry="3.85268949"></ellipse>
                <g transform="translate(381.431274, 47.919315)" fill-rule="nonzero" id="Path">
                    <path d="M1.11979823,19.1233496 L34.7137453,0.700488998 C35.3436318,0.350244499 36.1134931,0.840586797 36.1134931,1.54107579 L36.2534678,28.1596577 C36.2534678,28.5099022 36.0435057,28.7900978 35.7635561,29.0002445 L2.16960908,47.7033007 C1.53972257,48.0535452 0.769861286,47.6332518 0.769861286,46.8627139 L0.629886507,19.9639364 C0.629886507,19.6136919 0.839848676,19.3334963 1.11979823,19.1233496 Z" fill="#FFFFFF"></path>
                    <path d="M18.0567465,34.8843521 L51.6506936,16.4614914 C52.2805801,16.1112469 53.0504414,16.6015892 53.0504414,17.3020782 L53.1904161,43.9206601 C53.1904161,44.2709046 52.980454,44.5511002 52.7005044,44.7612469 L19.1065574,63.4643032 C18.4766709,63.8145477 17.7068096,63.3942543 17.7068096,62.6237164 L17.5668348,35.7249389 C17.5668348,35.3746944 17.776797,35.0244499 18.0567465,34.8843521 Z" fill="#D1D5F5"></path>
                </g>
                <path d="M70.5472888,107.180685 L104.141236,88.757824 C104.771122,88.4075795 105.540984,88.8979218 105.540984,89.5984108 L105.680958,116.216993 C105.680958,116.567237 105.470996,116.847433 105.191047,117.057579 L71.5970996,135.760636 C70.9672131,136.11088 70.1973518,135.690587 70.1973518,134.920049 L70.057377,108.021271 C70.057377,107.600978 70.1973518,107.320782 70.5472888,107.180685 Z" id="Path" fill="#D1D5F5" fill-rule="nonzero"></path>
                <path d="M90.1437579,118.738753 L123.737705,100.315892 C124.367591,99.9656479 125.137453,100.45599 125.137453,101.156479 L125.277427,127.775061 C125.277427,128.125306 125.067465,128.405501 124.787516,128.615648 L91.1935687,147.318704 C90.5636822,147.668949 89.7938209,147.248655 89.7938209,146.478117 L89.6538462,119.57934 C89.6538462,119.229095 89.7938209,118.878851 90.1437579,118.738753 Z" id="Path" fill="#FFFFFF" fill-rule="nonzero"></path>
                <path d="M107.010719,134.499756 L140.604666,116.076895 C141.234552,115.72665 142.004414,116.216993 142.004414,116.917482 L142.144388,143.536064 C142.144388,143.886308 141.934426,144.166504 141.654477,144.37665 L108.06053,163.079707 C107.430643,163.429951 106.660782,163.009658 106.660782,162.23912 L106.520807,135.340342 C106.520807,134.920049 106.730769,134.639853 107.010719,134.499756 Z" id="Path" fill="#D1D5F5" fill-rule="nonzero"></path>
                <path d="M249.645019,246.507946 L232.708071,236.210758 C231.798235,235.650367 231.798235,234.389487 232.708071,233.759046 L242.296343,227.594743 C242.786255,227.314548 243.346154,227.314548 243.836066,227.594743 L260.773014,237.821883 C261.68285,238.382274 261.68285,239.643154 260.843001,240.273594 L251.254729,246.577995 C250.69483,246.788142 250.064943,246.788142 249.645019,246.507946 Z" id="Path" fill="#D1D5F5" fill-rule="nonzero"></path>
                <path d="M247.755359,243.215648 L234.59773,235.230073 C233.897856,234.80978 233.897856,233.829095 234.59773,233.338753 L242.016393,228.505379 C242.36633,228.295232 242.856242,228.295232 243.206179,228.505379 L256.363808,236.420905 C257.063682,236.841198 257.063682,237.821883 256.363808,238.312225 L248.875158,243.215648 C248.595208,243.425795 248.105296,243.425795 247.755359,243.215648 Z" id="Path" fill="#9CA5EB" fill-rule="nonzero"></path>
                <ellipse id="Oval" fill="#EEF0FD" fill-rule="nonzero" cx="254.824086" cy="241.394377" rx="1" ry="1"></ellipse>
                <ellipse id="Oval" fill="#C1C5F2" fill-rule="nonzero" cx="325.441362" cy="164.200489" rx="4.7591425" ry="4.76332518"></ellipse>
                <g transform="translate(412.225725, 232.848411)" fill-rule="nonzero" id="Path">
                    <path d="M23.5857503,0.280195599 C24.3556116,0.280195599 24.9854981,0.630440098 25.6153846,0.910635697 C26.2452711,1.1207824 26.8751576,0.840586797 27.4350567,0.560391198 C28.0649433,0.280195599 28.7648172,0.280195599 29.3947037,0.210146699 C30.0945776,0.210146699 30.8644388,0.210146699 31.5643127,0.350244499 C32.1242119,0.490342298 32.6141236,0.910635697 33.2440101,0.910635697 C34.1538462,0.980684597 34.9936948,0.420293399 35.9735183,0.420293399 C36.1134931,1.1207824 36.1834805,1.82127139 35.8335435,2.45171149 C35.4836066,3.15220049 35.5535939,3.92273839 35.5535939,4.62322738 C35.9035309,4.69327628 36.1834805,4.69327628 36.5334174,4.76332518 C36.2534678,5.04352078 35.8335435,5.25366748 35.6235813,5.60391198 C35.4836066,6.09425428 35.5535939,6.58459658 35.5535939,7.07493888 C35.8335435,7.14498778 36.1134931,7.14498778 36.3934426,7.21503667 C36.3934426,7.28508557 36.3934426,7.49523227 36.3934426,7.56528117 C36.0435057,7.56528117 35.6235813,7.56528117 35.2736444,7.63533007 C34.9237074,8.12567237 34.5037831,8.61601467 34.0138714,8.96625917 C33.8039092,9.10635697 33.6639344,9.24645477 33.4539723,9.38655257 C32.2641866,9.52665037 31.074401,10.0870416 29.814628,10.0169927 C28.0649433,10.0870416 26.4552333,9.45660147 24.8455233,8.89621027 C25.1254729,9.94694377 25.9653216,10.7174817 26.8051702,11.3479218 C27.6450189,11.6981663 28.4848676,11.7682152 29.3247163,11.908313 C30.7944515,11.908313 32.2641866,11.4179707 33.3839849,10.507335 C33.5239596,10.507335 33.7339218,10.5773839 33.8738966,10.5773839 C34.0138714,11.9783619 34.0838588,13.4493888 33.8738966,14.8503667 C32.9640605,16.4614914 31.8442623,17.9325183 30.4445145,19.1933985 C29.8846154,19.6136919 29.7446406,20.244132 29.7446406,20.8745721 C29.7446406,22.1354523 29.3247163,23.4663814 29.8846154,24.6572127 C29.6746532,25.147555 29.5346784,25.5678484 29.5346784,26.1282396 C29.5346784,28.5799511 29.5346784,31.0316626 29.5346784,33.4833741 C29.5346784,33.8336186 29.6746532,34.1838631 29.8846154,34.4640587 C30.1645649,34.8143032 30.5145019,35.2345966 31.0044136,35.3046455 C31.5643127,35.4447433 32.1242119,35.7249389 32.684111,36.0051345 C32.8940731,36.4254279 33.1040353,36.8457213 33.3139975,37.1959658 C31.2843632,37.2660147 29.3247163,37.2660147 27.295082,37.1959658 C27.2250946,36.5655257 27.1551072,36.0051345 27.0851198,35.3746944 C27.0851198,34.5341076 27.0851198,33.7635697 27.0851198,32.9229829 C26.945145,32.9229829 26.7351828,32.852934 26.5952081,32.7828851 C26.5952081,32.5026895 26.5952081,32.2224939 26.5952081,32.0123472 C26.5252207,31.5920538 26.4552333,31.2418093 26.3152585,30.8915648 C26.4552333,29.7007335 26.1052963,28.5099022 26.1052963,27.3190709 C26.035309,26.1982885 25.8953342,25.0074572 25.4754098,23.9567237 C24.425599,24.6572127 23.2358134,25.3577017 22.0460277,25.848044 C22.2559899,26.8987775 22.7459016,27.8794621 22.7459016,29.0002445 C22.7459016,30.4712714 22.3959647,31.9422983 21.7660782,33.2732274 C21.556116,33.7635697 21.2061791,34.3940098 21.4861286,34.954401 C22.1860025,35.3746944 23.0958386,35.3046455 23.8656999,35.65489 C24.4955864,36.0051345 24.7055485,36.7056235 24.9854981,37.2660147 C22.6059269,37.3360636 20.2263556,37.3360636 17.9167718,37.2660147 C17.9167718,36.9858191 17.9167718,36.6355746 17.8467844,36.355379 C16.6569987,36.2152812 15.5372005,36.2853301 14.3474149,36.2853301 C13.3675914,36.355379 12.387768,36.0051345 11.4779319,35.8650367 C11.1979823,35.8650367 10.9880202,35.7949878 10.7080706,35.7949878 C10.6380832,35.7249389 10.5680958,35.5848411 10.5680958,35.4447433 C10.4981084,35.4447433 10.2881463,35.3746944 10.1481715,35.3046455 C9.37831021,35.0244499 8.60844893,34.6041565 8.1185372,33.9737164 C7.62862547,33.4833741 7.34867591,32.852934 6.99873897,32.2925428 C6.7887768,31.9422983 6.29886507,32.0123472 5.94892812,32.0123472 C5.24905422,32.0123472 4.47919294,32.0123472 3.77931904,32.0123472 C3.77931904,31.8722494 3.70933165,31.6621027 3.63934426,31.5920538 C3.42938209,31.5920538 3.21941992,31.5920538 3.00945776,31.5220049 C2.44955864,31.5220049 2.09962169,31.0316626 1.67969735,30.6814181 C1.3297604,30.3311736 0.909836066,30.050978 0.839848676,29.4905868 C0.839848676,29.4205379 0.769861286,29.2103912 0.769861286,29.1403423 C0.699873897,29.0702934 0.489911728,29.0002445 0.419924338,29.0002445 C0.419924338,28.5099022 0.349936948,28.0195599 0.629886507,27.5292176 C1.04981084,26.8287286 1.39974779,26.0581907 1.60970996,25.2876528 C1.95964691,26.0581907 1.74968474,26.9688264 2.0296343,27.8094132 C2.23959647,28.5099022 2.51954603,29.2804401 3.14943253,29.7007335 C4.0592686,30.4012225 5.24905422,30.1210269 6.29886507,30.1910758 C6.36885246,29.0702934 6.15889029,27.8094132 6.64880202,26.7586797 C7.20870113,25.5678484 7.76860025,24.3770171 8.74842371,23.4663814 C9.09836066,23.1161369 9.37831021,22.8359413 9.72824716,22.4856968 C10.4981084,21.7852078 11.1979823,21.0146699 12.037831,20.5243276 C12.2477932,20.3842298 12.387768,20.1740831 12.5977301,20.0339853 C13.5075662,19.8938875 14.4174023,19.8238386 15.2572509,20.1740831 C16.0970996,20.5943765 16.3770492,21.5750611 17.0769231,22.2055012 C17.3568726,22.345599 17.7068096,22.345599 17.9867591,22.4156479 C17.9167718,21.2948655 17.1469105,20.3842298 16.3770492,19.6837408 C15.8171501,19.1933985 15.1172762,18.9832518 14.4873897,18.7030562 C15.1872636,18.2827628 15.7471627,17.5822738 16.4470366,17.1619804 C17.3568726,17.1619804 18.3366961,17.3020782 19.03657,17.9325183 C19.6664565,18.4929095 20.0163934,19.3334963 20.4363178,20.0339853 C20.7162673,19.8238386 20.9962169,19.6136919 21.2761665,19.3334963 C20.9262295,18.5629584 20.5063052,17.7924205 19.8064313,17.3020782 C19.1765448,16.8117359 18.5466583,16.3914425 17.8467844,15.9711491 C18.1967213,15.6909535 18.4066835,15.2006112 18.8965952,15.1305623 C19.7364439,15.0605134 20.6462799,15.2006112 21.4161412,15.6909535 C22.1160151,16.1112469 22.3259773,16.8817848 22.8858764,17.442176 C23.165826,17.5822738 23.5157629,17.5122249 23.8656999,17.5122249 C23.7257251,16.8117359 23.4457755,16.1112469 22.9558638,15.5508557 C22.2559899,14.7102689 21.1361917,14.3600244 20.2263556,13.8696822 C21.2061791,12.8189487 22.3959647,12.0484108 23.3757881,10.9976773 C23.7957125,10.507335 24.3556116,10.1570905 24.7055485,9.59669927 C24.8455233,9.03630807 24.425599,8.54596577 24.2856242,8.05562347 C24.0056747,7.98557457 23.7257251,7.91552567 23.4457755,7.84547677 C23.5857503,7.56528117 23.7257251,7.21503667 23.7957125,6.93484108 C23.7957125,6.30440098 23.5857503,5.74400978 23.4457755,5.18361858 C23.5857503,4.90342298 23.8656999,4.62322738 23.7257251,4.34303178 C23.5157629,2.80195599 23.4457755,1.54107579 23.5857503,0.280195599 Z" fill="#EFC330"></path>
                    <path d="M24.9854981,8.89621027 C26.5952081,9.45660147 28.204918,10.1570905 29.9546028,10.0169927 C31.2143758,10.0870416 32.334174,9.52665037 33.593947,9.38655257 C33.593947,9.73679707 33.6639344,10.0870416 33.6639344,10.4372861 C32.4741488,11.3479218 31.074401,11.7682152 29.6046658,11.8382641 C28.7648172,11.6981663 27.8549811,11.6281174 27.0851198,11.2778729 C26.1052963,10.6474328 25.2654477,9.94694377 24.9854981,8.89621027 Z" fill="#DE6E1A"></path>
                    <path d="M33.5239596,9.38655257 C33.7339218,9.24645477 33.8738966,9.10635697 34.0838588,8.96625917 C34.0838588,9.45660147 34.0838588,10.0169927 34.0838588,10.507335 C33.943884,10.507335 33.7339218,10.4372861 33.593947,10.4372861 C33.5239596,10.0870416 33.5239596,9.73679707 33.5239596,9.38655257 Z" fill="#DE6E1A"></path>
                    <g transform="translate(16.097100, 13.309291)" fill="#F6E599">
                        <path d="M3.98928121,0.630440098 C4.0592686,0.490342298 4.12925599,0.350244499 4.19924338,0.210146699 L4.33921816,0.280195599 C5.24905422,0.770537897 6.36885246,1.1207824 7.06872636,1.96136919 C7.55863808,2.52176039 7.83858764,3.22224939 7.97856242,3.92273839 C7.69861286,3.92273839 7.34867591,3.99278729 6.99873897,3.85268949 C6.43883985,3.29229829 6.22887768,2.52176039 5.52900378,2.10146699 C4.82912989,1.61112469 3.91929382,1.47102689 3.00945776,1.54107579 C3.07944515,1.3309291 3.14943253,1.1207824 3.21941992,0.910635697 C3.42938209,0.770537897 3.70933165,0.700488998 3.98928121,0.630440098 Z"></path>
                        <path d="M0.769861286,2.87200489 C1.18978562,2.73190709 1.60970996,2.52176039 1.95964691,2.38166259 C2.65952081,2.80195599 3.28940731,3.22224939 3.91929382,3.71259169 C4.54918033,4.27298289 4.96910467,5.04352078 5.389029,5.74400978 C5.10907945,5.95415648 4.82912989,6.16430318 4.54918033,6.44449878 C4.12925599,5.74400978 3.70933165,4.97347188 3.14943253,4.34303178 C2.44955864,3.71259169 1.46973518,3.50244499 0.559899117,3.57249389 C0.629886507,3.36234719 0.699873897,3.08215159 0.769861286,2.87200489 Z"></path>
                    </g>
                    <path d="M30.5844893,19.1233496 C31.9842371,17.9325183 33.1040353,16.3914425 34.0138714,14.7803178 C34.5737705,15.5508557 34.5037831,16.4614914 34.6437579,17.3721271 C34.6437579,17.6523227 34.6437579,17.8624694 34.7137453,18.142665 C34.7837327,18.2127139 34.9936948,18.2827628 35.1336696,18.2827628 C35.203657,18.7030562 35.3436318,19.1233496 35.5535939,19.4735941 C36.1134931,20.3141809 36.46343,21.2948655 36.9533417,22.1354523 C37.3732661,22.7658924 37.5132409,23.5364303 37.7931904,24.3069682 C38.1431274,25.2876528 37.9331652,26.4084352 38.0031526,27.4591687 C37.8631778,27.4591687 37.6532156,27.5292176 37.5832282,27.5992665 C37.5832282,27.8794621 37.5832282,28.1596577 37.5132409,28.3698044 C37.5132409,29.0002445 37.0233291,29.6306846 36.46343,29.7707824 C35.9735183,29.7007335 35.6235813,29.4905868 35.203657,29.2804401 C35.203657,28.65 35.1336696,28.0896088 35.2736444,27.4591687 C35.3436318,26.8987775 35.4836066,26.4084352 35.3436318,25.848044 C35.1336696,24.7272616 34.3638083,23.8866748 33.593947,23.1161369 C33.1040353,22.6257946 32.684111,21.9953545 32.1242119,21.5750611 C31.8442623,21.5750611 31.7042875,21.9253056 31.5643127,22.1354523 C31.1443884,22.9059902 30.5145019,23.6064792 30.1645649,24.447066 C29.6046658,23.2562347 29.9546028,21.9253056 30.0245902,20.6644254 C29.8846154,20.1740831 30.0245902,19.4735941 30.5844893,19.1233496 Z" fill="#DFB52B"></path>
                    <path d="M34.6437579,17.3721271 C34.9936948,17.5122249 35.0636822,17.9325183 35.0636822,18.2827628 C34.9936948,18.2127139 34.7837327,18.142665 34.6437579,18.142665 C34.6437579,17.8624694 34.6437579,17.6523227 34.6437579,17.3721271 Z" fill="#DDC567"></path>
                    <path d="M14.6973518,18.4228606 C15.3272383,18.7030562 16.0970996,18.9132029 16.5870113,19.4035452 C17.3568726,20.1740831 18.1267339,21.0146699 18.1967213,22.1354523 C17.9167718,22.0654034 17.5668348,22.0654034 17.2868852,21.9253056 C16.6569987,21.2948655 16.3770492,20.3141809 15.4672131,19.8938875 C14.6273644,19.543643 13.7175284,19.6136919 12.8076923,19.7537897 C13.0876419,19.1933985 14.6273644,18.4228606 14.6973518,18.4228606 Z" fill="#F6E495"></path>
                    <path d="M12.3177806,19.8238386 C12.4577554,19.8238386 12.6677175,19.7537897 12.8076923,19.7537897 C12.5977301,19.8938875 12.4577554,20.1040342 12.2477932,20.244132 C12.3177806,20.1740831 12.3177806,19.8938875 12.3177806,19.8238386 Z" fill="#F2D665"></path>
                    <path d="M8.95838588,22.6958435 C9.23833544,22.4856968 9.58827238,22.345599 9.93820933,22.2755501 C9.65825977,22.6257946 9.30832282,22.9059902 8.95838588,23.2562347 C9.02837327,23.046088 9.02837327,22.8359413 8.95838588,22.6958435 Z" fill="#F8E69C"></path>
                    <path d="M22.3259773,25.7079462 C23.5157629,25.147555 24.6355612,24.5171149 25.7553594,23.8166259 C26.1752837,24.8673594 26.3852459,26.0581907 26.3852459,27.1789731 C26.4552333,28.3698044 26.7351828,29.5606357 26.5952081,30.751467 C26.5252207,30.9616137 26.5252207,31.1717604 26.4552333,31.3819071 C26.4552333,31.5220049 26.3852459,31.7321516 26.3852459,31.8722494 C26.2452711,31.9422983 26.035309,32.0123472 25.8953342,32.0123472 C25.8953342,32.2925428 25.8253468,32.6427873 25.8253468,32.9229829 C25.8253468,33.3432763 25.8253468,33.8336186 25.8253468,34.253912 C25.8253468,34.3239609 25.8253468,34.5341076 25.8253468,34.6742054 C26.3152585,34.8843521 26.8051702,35.0944988 27.295082,35.3046455 C27.295082,35.9350856 27.4350567,36.5655257 27.5050441,37.1259169 C26.7351828,37.1959658 25.9653216,37.1959658 25.1954603,37.1259169 C24.9155107,36.5655257 24.6355612,35.8650367 24.075662,35.5147922 C23.3058008,35.1645477 22.4659521,35.1645477 21.6960908,34.8143032 C21.4861286,34.253912 21.8360656,33.6935208 21.9760404,33.1331296 C22.6059269,31.8022005 22.9558638,30.3311736 22.9558638,28.8601467 C23.0258512,27.7393643 22.5359395,26.7586797 22.3259773,25.7079462 Z" fill="#DFB52B"></path>
                    <path d="M37.5132409,27.5992665 C37.6532156,27.5992665 37.8631778,27.5292176 37.9331652,27.4591687 C37.8631778,27.8094132 37.8631778,28.2297066 37.4432535,28.3698044 C37.5132409,28.0896088 37.5132409,27.8794621 37.5132409,27.5992665 Z" fill="#E9CF61"></path>
                    <path d="M0.699873897,28.7900978 C0.769861286,28.8601467 0.979823455,28.9301956 1.04981084,28.9301956 C1.04981084,29.0002445 1.11979823,29.2103912 1.11979823,29.2804401 C0.979823455,29.2804401 0.769861286,29.2103912 0.699873897,29.2103912 C0.769861286,29.1403423 0.769861286,28.9301956 0.699873897,28.7900978 Z" fill="#F5DF81"></path>
                    <path d="M26.4552333,31.3118582 C26.5252207,31.1017115 26.5252207,30.8915648 26.5952081,30.6814181 C26.7351828,31.0316626 26.8051702,31.451956 26.8751576,31.8022005 C26.7351828,31.6621027 26.5952081,31.5220049 26.4552333,31.3118582 Z" fill="#F0D979"></path>
                    <path d="M3.3593947,31.3819071 C3.56935687,31.3819071 3.77931904,31.451956 3.98928121,31.451956 C3.98928121,31.5920538 4.0592686,31.8022005 4.12925599,31.8722494 C3.77931904,31.8022005 3.49936948,31.7321516 3.3593947,31.3819071 Z" fill="#F4DC76"></path>
                    <path d="M26.4552333,31.3118582 C26.5952081,31.5220049 26.7351828,31.6621027 26.8751576,31.8722494 C26.8751576,32.152445 26.8751576,32.4326406 26.8751576,32.6427873 C26.8751576,33.3432763 26.945145,34.0437653 27.0851198,34.8143032 C26.6651955,34.6041565 26.2452711,34.4640587 25.8953342,34.1838631 C25.8953342,33.7635697 25.8253468,33.2732274 25.8953342,32.852934 C26.035309,32.852934 26.2452711,32.7828851 26.3852459,32.7828851 C26.3852459,32.4326406 26.4552333,32.152445 26.4552333,31.8022005 C26.4552333,31.6621027 26.4552333,31.451956 26.4552333,31.3118582 Z" fill="#FDFDFA"></path>
                    <path d="M26.8751576,32.6427873 C27.0151324,32.6427873 27.2250946,32.7128362 27.3650694,32.7828851 C27.4350567,33.6234719 27.3650694,34.3940098 27.3650694,35.2345966 C26.8751576,35.0244499 26.3852459,34.8143032 25.8953342,34.6041565 C25.8953342,34.5341076 25.8953342,34.3239609 25.8953342,34.1838631 C26.3152585,34.3940098 26.6651955,34.6041565 27.0851198,34.8143032 C26.945145,34.1138142 26.8751576,33.3432763 26.8751576,32.6427873 Z" fill="#F4D96E"></path>
                    <path d="M10.4281211,35.2345966 C10.4981084,35.2345966 10.7080706,35.3046455 10.8480454,35.3746944 C10.9180328,35.4447433 10.9880202,35.5848411 10.9880202,35.7249389 C10.8480454,35.7249389 10.5680958,35.7249389 10.4981084,35.7249389 C10.4981084,35.5848411 10.4281211,35.3046455 10.4281211,35.2345966 Z" fill="#F4DD7B"></path>
                    <path d="M11.7578815,35.7249389 C12.7377049,35.8650367 13.647541,36.1452323 14.6273644,36.1452323 C15.8171501,36.0751834 16.9369483,36.0751834 18.1267339,36.2152812 C18.1267339,36.4954768 18.1267339,36.8457213 18.1967213,37.1259169 C18.0567465,37.1259169 17.8467844,37.1259169 17.7068096,37.1259169 C17.7068096,36.8457213 17.7068096,36.5655257 17.7068096,36.2853301 C15.8871375,36.355379 14.0674653,36.4954768 12.2477932,36.2152812 C11.9678436,36.1452323 11.8978562,35.9350856 11.7578815,35.7249389 Z" fill="#F2D55E"></path>
                </g>
                <path d="M229.208701,155.23423 L274.000631,129.946577 C275.400378,129.176039 277.080076,130.156724 277.080076,131.767848 L277.080076,169.734352 C277.080076,170.50489 276.660151,171.205379 275.960277,171.555623 L231.168348,196.002689 C229.7686,196.773227 228.088903,195.722494 228.088903,194.181418 L228.088903,157.055501 C228.15889,156.355012 228.578815,155.654523 229.208701,155.23423 Z" id="Path" fill="#9CA5EB" fill-rule="nonzero"></path>
                <path d="M233.197982,156.565159 L270.361286,135.620538 C271.481084,134.990098 272.95082,135.830685 272.95082,137.161614 L272.95082,168.683619 C272.95082,169.314059 272.600883,169.87445 272.040984,170.224694 L234.87768,190.538875 C233.757881,191.169315 232.288146,190.328729 232.288146,188.9978 L232.288146,158.176284 C232.288146,157.475795 232.638083,156.915403 233.197982,156.565159 Z" id="Path" fill="#EDEEF4" fill-rule="nonzero"></path>
                <path d="M270.501261,135.48044 L232.778058,156.425061 C232.218159,156.705257 231.868222,157.335697 231.868222,157.966137 L231.868222,169.87445 C231.938209,169.87445 231.938209,169.87445 232.008197,169.87445 C232.008197,169.87445 232.358134,168.053178 232.918033,167.772983 L270.641236,146.828362 C271.551072,146.267971 272.67087,146.758313 273.090794,147.5989 L273.090794,137.021516 C273.090794,135.620538 271.621059,134.779951 270.501261,135.48044 Z" id="Path" fill="#284677" fill-rule="nonzero"></path>
                <g transform="translate(236.557377, 103.257946)">
                    <ellipse id="Oval" fill="#82E0D2" fill-rule="nonzero" cx="10.4981084" cy="10.3672372" rx="9.86822194" ry="9.87689487"></ellipse>
                    <polyline id="Path" stroke="#FFFFFF" stroke-width="2.47954" stroke-linecap="round" stroke-linejoin="round" points="6.29886507 12.0484108 9.93820933 15.8310513 15.7471627 6.58459658"></polyline>
                </g>
                <g transform="translate(471.015132, 120.069682)" fill-rule="nonzero">
                    <ellipse id="Oval" fill="#DC4C12" cx="8.04854981" cy="8.19572127" rx="7.97856242" ry="7.98557457"></ellipse>
                    <path d="M11.127995,7.84547677 L6.71878941,5.25366748 C6.50882724,5.11356968 6.22887768,5.25366748 6.22887768,5.53386308 L6.22887768,10.6474328 C6.22887768,10.9276284 6.50882724,11.0677262 6.71878941,10.9276284 L11.127995,8.33581907 C11.3379571,8.33581907 11.3379571,7.98557457 11.127995,7.84547677 Z" id="Path" stroke="#FFFFFF" stroke-width="0.5" fill="#FFFFFF" stroke-linecap="round" stroke-linejoin="round"></path>
                </g>
                <g transform="translate(153.272383, 177.509780)" fill-rule="nonzero">
                    <g transform="translate(0.699874, 1.400978)">
                        <path d="M16.9369483,33.7635697 L16.9369483,33.553423 L16.0271122,33.6234719 L15.1172762,33.553423 L15.1172762,33.7635697 L4.12925599,34.8843521 L7.06872636,54.0777506 L7.06872636,54.0777506 C13.5075662,57.5101467 18.4066835,57.5801956 24.8455233,54.1477995 L24.9854981,54.0777506 L27.9249685,34.8843521 L16.9369483,33.7635697 Z" id="Path" fill="#D1D5F5"></path>
                        <ellipse id="Oval" fill="#9CA5EB" cx="16.0970996" cy="34.8843521" rx="12.037831" ry="6.65464548"></ellipse>
                        <path d="M14.3474149,33.4133252 C14.3474149,33.4133252 -0.629886507,26.2683374 0.0699873897,17.7924205 C0.769861286,9.31650367 5.52900378,9.10635697 8.74842371,11.908313 C11.9678436,14.7102689 16.517024,19.6837408 18.686633,28.2297066 C20.8562421,36.8457213 14.3474149,33.4133252 14.3474149,33.4133252 Z" id="Path" fill="#70B993"></path>
                        <path d="M13.9974779,34.1838631 C13.9974779,34.1838631 2.65952081,14.5701711 9.93820933,5.67396088 C17.2168979,-3.22224939 22.7459016,0.1400978 24.2156368,5.81405868 C25.685372,11.4880196 27.0151324,20.5243276 22.815889,31.8022005 C18.6166456,43.0100244 13.9974779,34.1838631 13.9974779,34.1838631 Z" id="Path" fill="#78C59D"></path>
                    </g>
                    <g transform="translate(7.698613, 0.000000)" fill="#DAFFEE" id="Path">
                        <path d="M3.14943253,5.81405868 C3.3593947,6.09425428 3.63934426,6.23435208 3.91929382,6.37444988 C4.33921816,6.58459658 4.68915511,5.95415648 4.26923077,5.81405868 C3.98928121,5.67396088 3.77931904,5.53386308 3.63934426,5.32371638 C3.3593947,5.04352078 2.86948298,5.53386308 3.14943253,5.81405868 L3.14943253,5.81405868 Z"></path>
                        <path d="M9.30832282,0.700488998 C9.37831021,1.1207824 9.4482976,1.54107579 9.51828499,1.96136919 C9.58827238,2.38166259 10.2181589,2.24156479 10.1481715,1.75122249 C10.0781841,1.3309291 10.0081967,0.910635697 9.93820933,0.490342298 C9.86822194,0.0700488998 9.23833544,0.280195599 9.30832282,0.700488998 L9.30832282,0.700488998 Z"></path>
                        <path d="M16.2370744,9.59669927 C16.8669609,9.66674817 17.42686,9.59669927 17.9867591,9.52665037 C18.4066835,9.45660147 18.2667087,8.82616137 17.776797,8.89621027 C17.2168979,8.96625917 16.7269861,8.96625917 16.167087,8.96625917 C15.7471627,8.89621027 15.7471627,9.52665037 16.2370744,9.59669927 L16.2370744,9.59669927 Z"></path>
                        <path d="M9.37831021,10.9276284 C9.23833544,10.6474328 9.09836066,10.3672372 8.95838588,10.1570905 C8.74842371,9.80684597 8.18852459,10.0870416 8.39848676,10.507335 C8.53846154,10.7875306 8.67843632,11.0677262 8.8184111,11.2778729 C9.02837327,11.6981663 9.58827238,11.3479218 9.37831021,10.9276284 L9.37831021,10.9276284 Z"></path>
                        <path d="M2.51954603,14.3600244 C1.81967213,14.3600244 1.18978562,14.3600244 0.489911728,14.3600244 C0.0699873897,14.3600244 0.0699873897,15.0605134 0.489911728,15.0605134 C1.18978562,15.0605134 1.81967213,15.0605134 2.51954603,15.0605134 C2.93947037,14.9904645 2.93947037,14.3600244 2.51954603,14.3600244 L2.51954603,14.3600244 Z"></path>
                        <path d="M2.79949559,19.2634474 C2.16960908,19.6837408 1.60970996,20.1740831 1.04981084,20.6644254 C0.699873897,20.944621 1.18978562,21.4349633 1.53972257,21.1547677 C2.0296343,20.6644254 2.58953342,20.244132 3.14943253,19.8938875 C3.49936948,19.6136919 3.14943253,19.0533007 2.79949559,19.2634474 L2.79949559,19.2634474 Z"></path>
                        <path d="M17.2868852,14.9904645 C17.7068096,14.9904645 18.0567465,14.9204156 18.4766709,14.9204156 C18.8965952,14.8503667 18.8965952,14.2199267 18.4766709,14.2199267 C18.1267339,14.2199267 17.7068096,14.2899756 17.2868852,14.2899756 C16.8669609,14.3600244 16.8669609,15.0605134 17.2868852,14.9904645 L17.2868852,14.9904645 Z"></path>
                        <path d="M9.51828499,16.041198 C9.51828499,16.1112469 9.51828499,16.1812958 9.51828499,16.2513447 C9.51828499,16.6716381 10.2181589,16.6716381 10.2181589,16.2513447 C10.2181589,16.1812958 10.2181589,16.1112469 10.2181589,16.041198 C10.2181589,15.5508557 9.51828499,15.5508557 9.51828499,16.041198 L9.51828499,16.041198 Z"></path>
                        <path d="M17.2168979,22.0654034 C17.42686,22.2755501 17.7068096,22.4156479 17.9867591,22.4856968 C18.4066835,22.5557457 18.6166456,21.9253056 18.1967213,21.8552567 C17.9867591,21.7852078 17.8467844,21.7151589 17.7068096,21.5750611 C17.42686,21.2248166 16.9369483,21.7151589 17.2168979,22.0654034 L17.2168979,22.0654034 Z"></path>
                        <path d="M4.26923077,27.4591687 C3.84930643,27.4591687 3.49936948,27.3891198 3.07944515,27.3891198 C2.65952081,27.3891198 2.65952081,28.0195599 3.07944515,28.0896088 C3.49936948,28.0896088 3.84930643,28.1596577 4.26923077,28.1596577 C4.7591425,28.2297066 4.7591425,27.5292176 4.26923077,27.4591687 L4.26923077,27.4591687 Z"></path>
                        <path d="M10.7080706,25.9881418 C11.127995,25.9881418 11.127995,25.2876528 10.7080706,25.2876528 C10.2881463,25.2876528 10.2881463,25.9881418 10.7080706,25.9881418 L10.7080706,25.9881418 Z"></path>
                        <path d="M16.3770492,28.0195599 C16.7969735,28.4398533 17.2168979,28.7900978 17.6368222,29.2103912 C17.9867591,29.4905868 18.4066835,29.0002445 18.1267339,28.7200489 C17.7068096,28.2997555 17.2868852,27.949511 16.8669609,27.5292176 C16.5870113,27.249022 16.0970996,27.6693154 16.3770492,28.0195599 L16.3770492,28.0195599 Z"></path>
                        <path d="M6.36885246,32.5026895 C5.66897856,32.5727384 4.96910467,32.6427873 4.26923077,32.7128362 C3.84930643,32.7828851 3.98928121,33.4133252 4.47919294,33.3432763 C5.10907945,33.2031785 5.73896595,33.1331296 6.43883985,33.1331296 C6.7887768,33.1331296 6.7887768,32.4326406 6.36885246,32.5026895 L6.36885246,32.5026895 Z"></path>
                        <path d="M14.557377,4.34303178 C15.1172762,4.13288509 15.6771753,3.92273839 16.2370744,3.57249389 C16.5870113,3.36234719 16.2370744,2.73190709 15.8871375,3.01210269 C15.3972257,3.29229829 14.907314,3.57249389 14.3474149,3.71259169 C13.9274905,3.85268949 14.1374527,4.48312958 14.557377,4.34303178 L14.557377,4.34303178 Z"></path>
                    </g>
                    <g transform="translate(0.000000, 11.207824)" fill="#BCD9CB" id="Path">
                        <path d="M5.03909206,1.1207824 C4.96910467,0.840586797 4.82912989,0.560391198 4.7591425,0.350244499 C4.61916772,-0.0700488998 3.98928121,0.1400978 4.12925599,0.560391198 C4.19924338,0.840586797 4.33921816,1.1207824 4.40920555,1.3309291 C4.47919294,1.75122249 5.17906683,1.54107579 5.03909206,1.1207824 L5.03909206,1.1207824 Z"></path>
                        <path d="M2.79949559,2.94205379 C2.51954603,2.94205379 2.23959647,2.87200489 1.88965952,2.87200489 C1.46973518,2.80195599 1.46973518,3.50244499 1.88965952,3.57249389 C2.16960908,3.57249389 2.44955864,3.64254279 2.79949559,3.64254279 C3.28940731,3.64254279 3.28940731,3.01210269 2.79949559,2.94205379 L2.79949559,2.94205379 Z"></path>
                        <path d="M1.74968474,10.7875306 C1.46973518,10.7875306 1.18978562,10.7875306 0.979823455,10.7875306 C0.559899117,10.7875306 0.559899117,11.4880196 0.979823455,11.4880196 C1.25977301,11.4880196 1.53972257,11.4880196 1.74968474,11.4880196 C2.16960908,11.4880196 2.16960908,10.7875306 1.74968474,10.7875306 L1.74968474,10.7875306 Z"></path>
                        <path d="M5.66897856,16.8117359 C5.45901639,17.0218826 5.31904161,17.3020782 5.10907945,17.5122249 C4.82912989,17.8624694 5.45901639,18.2127139 5.66897856,17.8624694 C5.87894073,17.6523227 6.01891551,17.3721271 6.22887768,17.1619804 C6.50882724,16.8117359 5.94892812,16.4614914 5.66897856,16.8117359 L5.66897856,16.8117359 Z"></path>
                        <path d="M5.389029,8.82616137 C5.45901639,8.33581907 5.52900378,7.84547677 5.45901639,7.28508557 C5.45901639,6.86479218 4.7591425,6.86479218 4.7591425,7.28508557 C4.7591425,7.70537897 4.7591425,8.19572127 4.68915511,8.61601467 C4.61916772,9.03630807 5.31904161,9.24645477 5.389029,8.82616137 L5.389029,8.82616137 Z"></path>
                        <path d="M6.36885246,9.87689487 C6.50882724,9.94694377 6.64880202,10.0169927 6.7887768,10.0870416 C7.20870113,10.2271394 7.34867591,9.59669927 6.99873897,9.45660147 C6.85876419,9.38655257 6.71878941,9.31650367 6.57881463,9.24645477 C6.15889029,9.03630807 6.01891551,9.66674817 6.36885246,9.87689487 L6.36885246,9.87689487 Z"></path>
                        <path d="M7.20870113,15.8310513 C7.20870113,15.8310513 7.13871375,15.8310513 7.13871375,15.8310513 C6.71878941,15.8310513 6.71878941,16.5315403 7.13871375,16.5315403 C7.13871375,16.5315403 7.20870113,16.5315403 7.20870113,16.5315403 C7.62862547,16.5315403 7.62862547,15.8310513 7.20870113,15.8310513 L7.20870113,15.8310513 Z"></path>
                        <path d="M6.71878941,1.2608802 C6.71878941,1.0507335 6.7887768,0.910635697 6.7887768,0.700488998 C6.85876419,0.280195599 6.22887768,0.0700488998 6.15889029,0.490342298 C6.15889029,0.700488998 6.0889029,0.840586797 6.0889029,1.0507335 C6.01891551,1.47102689 6.64880202,1.68117359 6.71878941,1.2608802 L6.71878941,1.2608802 Z"></path>
                        <path d="M1.46973518,6.86479218 C1.18978562,6.86479218 0.909836066,6.86479218 0.559899117,6.86479218 C0.139974779,6.86479218 0.139974779,7.56528117 0.559899117,7.56528117 C0.839848676,7.56528117 1.11979823,7.56528117 1.46973518,7.56528117 C1.95964691,7.56528117 1.95964691,6.86479218 1.46973518,6.86479218 L1.46973518,6.86479218 Z"></path>
                    </g>
                </g>
                <ellipse id="Oval" fill="#DC4C12" fill-rule="nonzero" cx="454.778058" cy="268.363203" rx="5.31904161" ry="5.32371638"></ellipse>
                <path d="M287.788146,197.053423 L280.019546,201.67665 C279.739596,201.816748 279.809584,202.166993 280.019546,202.30709 L286.808323,205.809535 C286.948298,205.879584 287.088272,205.879584 287.15826,205.809535 L294.92686,200.976161 C295.20681,200.836064 295.136822,200.41577 294.856873,200.345721 L288.068096,197.053423 C288.068096,196.983374 287.928121,196.983374 287.788146,197.053423 Z" id="Path" fill="#7E86B6" fill-rule="nonzero"></path>
                <g transform="translate(244.255990, 175.408313)" fill="#D1D5F5" fill-rule="nonzero" id="Path">
                    <path d="M2.0296343,20.0339853 L0.209962169,21.0847188 C0.139974779,21.0847188 0.139974779,21.2248166 0.209962169,21.2248166 L1.81967213,22.0654034 C1.81967213,22.0654034 1.88965952,22.0654034 1.88965952,22.0654034 L3.70933165,20.944621 C3.77931904,20.8745721 3.77931904,20.8045232 3.70933165,20.8045232 L2.09962169,20.0339853 C2.09962169,20.0339853 2.0296343,20.0339853 2.0296343,20.0339853 Z"></path>
                    <path d="M5.24905422,18.2827628 L3.42938209,19.3334963 C3.3593947,19.4035452 3.3593947,19.4735941 3.42938209,19.4735941 L5.03909206,20.3141809 C5.03909206,20.3141809 5.10907945,20.3141809 5.10907945,20.3141809 L6.92875158,19.1933985 C6.99873897,19.1233496 6.99873897,19.0533007 6.92875158,19.0533007 L5.31904161,18.2827628 C5.31904161,18.2827628 5.31904161,18.2827628 5.24905422,18.2827628 Z"></path>
                    <path d="M8.53846154,16.4614914 L6.71878941,17.5122249 C6.64880202,17.5822738 6.64880202,17.6523227 6.71878941,17.6523227 L8.32849937,18.4929095 C8.32849937,18.4929095 8.39848676,18.4929095 8.39848676,18.4929095 L10.2181589,17.3721271 C10.2881463,17.3020782 10.2881463,17.2320293 10.2181589,17.2320293 L8.60844893,16.4614914 C8.60844893,16.4614914 8.53846154,16.4614914 8.53846154,16.4614914 Z"></path>
                    <path d="M11.8278689,14.7102689 L10.0081967,15.7610024 C9.93820933,15.7610024 9.93820933,15.9011002 10.0081967,15.9011002 L11.6179067,16.741687 C11.6179067,16.741687 11.6878941,16.741687 11.6878941,16.741687 L13.5075662,15.6209046 C13.5775536,15.5508557 13.5775536,15.4808068 13.5075662,15.4808068 L11.8978562,14.7102689 C11.8278689,14.7102689 11.8278689,14.7102689 11.8278689,14.7102689 Z"></path>
                    <path d="M15.0472888,12.9590465 L13.2276166,14.00978 C13.1576293,14.00978 13.1576293,14.1498778 13.2276166,14.1498778 L14.8373266,14.9904645 C14.8373266,14.9904645 14.907314,14.9904645 14.907314,14.9904645 L16.7269861,13.8696822 C16.7969735,13.7996333 16.7969735,13.7295844 16.7269861,13.7295844 L15.1172762,12.9590465 C15.1172762,12.8889976 15.1172762,12.8889976 15.0472888,12.9590465 Z"></path>
                    <path d="M18.3366961,11.1377751 L16.517024,12.1885086 C16.4470366,12.1885086 16.4470366,12.3286064 16.517024,12.3286064 L18.1267339,13.1691932 C18.1267339,13.1691932 18.1967213,13.1691932 18.1967213,13.1691932 L20.0163934,12.0484108 C20.0863808,11.9783619 20.0863808,11.908313 20.0163934,11.908313 L18.4066835,11.1377751 C18.4066835,11.1377751 18.3366961,11.1377751 18.3366961,11.1377751 Z"></path>
                    <path d="M21.556116,9.38655257 L19.7364439,10.4372861 C19.6664565,10.507335 19.6664565,10.5773839 19.7364439,10.5773839 L21.3461538,11.4179707 C21.3461538,11.4179707 21.4161412,11.4179707 21.4161412,11.4179707 L23.2358134,10.2971883 C23.3058008,10.2271394 23.3058008,10.1570905 23.2358134,10.1570905 L21.6261034,9.38655257 C21.6261034,9.31650367 21.6261034,9.31650367 21.556116,9.38655257 Z"></path>
                    <path d="M24.8455233,7.56528117 L23.0258512,8.61601467 C22.9558638,8.68606357 22.9558638,8.75611247 23.0258512,8.75611247 L24.6355612,9.59669927 C24.6355612,9.59669927 24.7055485,9.59669927 24.7055485,9.59669927 L26.5252207,8.47591687 C26.5952081,8.40586797 26.5952081,8.33581907 26.5252207,8.33581907 L24.9155107,7.56528117 C24.9155107,7.56528117 24.8455233,7.56528117 24.8455233,7.56528117 Z"></path>
                    <path d="M28.1349306,5.81405868 L26.3152585,6.86479218 C26.2452711,6.86479218 26.2452711,7.00488998 26.3152585,7.00488998 L27.9249685,7.84547677 C27.9249685,7.84547677 27.9949559,7.84547677 27.9949559,7.84547677 L29.814628,6.72469438 C29.8846154,6.65464548 29.8846154,6.58459658 29.814628,6.58459658 L28.204918,5.81405868 C28.1349306,5.81405868 28.1349306,5.81405868 28.1349306,5.81405868 Z"></path>
                    <path d="M31.3543506,3.99278729 L29.5346784,5.04352078 C29.464691,5.04352078 29.464691,5.18361858 29.5346784,5.18361858 L31.1443884,6.02420538 C31.1443884,6.02420538 31.2143758,6.02420538 31.2143758,6.02420538 L33.0340479,4.90342298 C33.1040353,4.83337408 33.1040353,4.76332518 33.0340479,4.76332518 L31.424338,3.99278729 C31.424338,3.99278729 31.424338,3.99278729 31.3543506,3.99278729 Z"></path>
                    <path d="M34.6437579,2.24156479 L32.8240858,3.29229829 C32.7540984,3.29229829 32.7540984,3.43239609 32.8240858,3.43239609 L34.4337957,4.27298289 C34.4337957,4.27298289 34.5037831,4.27298289 34.5037831,4.27298289 L36.3234552,3.15220049 C36.3934426,3.08215159 36.3934426,3.01210269 36.3234552,3.01210269 L34.7137453,2.24156479 C34.7137453,2.24156479 34.6437579,2.24156479 34.6437579,2.24156479 Z"></path>
                    <path d="M37.9331652,0.490342298 L36.1134931,1.54107579 C36.0435057,1.54107579 36.0435057,1.68117359 36.1134931,1.68117359 L37.723203,2.52176039 C37.723203,2.52176039 37.7931904,2.52176039 37.7931904,2.52176039 L39.6128625,1.400978 C39.6828499,1.3309291 39.6828499,1.2608802 39.6128625,1.2608802 L38.0031526,0.490342298 C37.9331652,0.420293399 37.9331652,0.420293399 37.9331652,0.490342298 Z"></path>
                </g>
                <g transform="translate(247.755359, 177.509780)" fill="#D1D5F5" fill-rule="nonzero" id="Path">
                    <path d="M2.09962169,20.0339853 L0.279949559,21.0847188 C0.209962169,21.0847188 0.209962169,21.2248166 0.279949559,21.2248166 L1.88965952,22.0654034 C1.88965952,22.0654034 1.95964691,22.0654034 1.95964691,22.0654034 L3.77931904,20.944621 C3.84930643,20.8745721 3.84930643,20.8045232 3.77931904,20.8045232 L2.16960908,20.0339853 C2.09962169,20.0339853 2.09962169,20.0339853 2.09962169,20.0339853 Z"></path>
                    <path d="M5.31904161,18.2827628 L3.49936948,19.3334963 C3.42938209,19.3334963 3.42938209,19.4735941 3.49936948,19.4735941 L5.10907945,20.3141809 C5.10907945,20.3141809 5.17906683,20.3141809 5.17906683,20.3141809 L6.99873897,19.1933985 C7.06872636,19.1233496 7.06872636,19.0533007 6.99873897,19.0533007 L5.389029,18.2827628 C5.389029,18.2127139 5.389029,18.2127139 5.31904161,18.2827628 Z"></path>
                    <path d="M8.60844893,16.4614914 L6.7887768,17.5122249 C6.71878941,17.5822738 6.71878941,17.6523227 6.7887768,17.6523227 L8.39848676,18.4929095 C8.39848676,18.4929095 8.46847415,18.4929095 8.46847415,18.4929095 L10.2881463,17.3721271 C10.3581337,17.3020782 10.3581337,17.2320293 10.2881463,17.2320293 L8.67843632,16.4614914 C8.67843632,16.4614914 8.60844893,16.4614914 8.60844893,16.4614914 Z"></path>
                    <path d="M11.8278689,14.7102689 L10.0081967,15.7610024 C9.93820933,15.8310513 9.93820933,15.9011002 10.0081967,15.9011002 L11.6179067,16.741687 C11.6179067,16.741687 11.6878941,16.741687 11.6878941,16.741687 L13.5075662,15.6209046 C13.5775536,15.5508557 13.5775536,15.4808068 13.5075662,15.4808068 L11.8978562,14.7102689 C11.8978562,14.64022 11.8978562,14.64022 11.8278689,14.7102689 Z"></path>
                    <path d="M15.1172762,12.8889976 L13.297604,13.9397311 C13.2276166,13.9397311 13.2276166,14.0798289 13.297604,14.0798289 L14.907314,14.9204156 C14.907314,14.9204156 14.9773014,14.9204156 14.9773014,14.9204156 L16.7969735,13.7996333 C16.8669609,13.7295844 16.8669609,13.6595355 16.7969735,13.6595355 L15.1872636,12.8889976 C15.1872636,12.8889976 15.1172762,12.8889976 15.1172762,12.8889976 Z"></path>
                    <path d="M18.4066835,11.1377751 L16.5870113,12.1885086 C16.517024,12.1885086 16.517024,12.3286064 16.5870113,12.3286064 L18.1967213,13.1691932 C18.1967213,13.1691932 18.2667087,13.1691932 18.2667087,13.1691932 L20.0863808,12.0484108 C20.1563682,11.9783619 20.1563682,11.908313 20.0863808,11.908313 L18.4766709,11.1377751 C18.4066835,11.1377751 18.4066835,11.1377751 18.4066835,11.1377751 Z"></path>
                    <path d="M21.6261034,9.31650367 L19.8064313,10.3672372 C19.7364439,10.3672372 19.7364439,10.507335 19.8064313,10.507335 L21.4161412,11.3479218 C21.4161412,11.3479218 21.4861286,11.3479218 21.4861286,11.3479218 L23.3058008,10.2271394 C23.3757881,10.1570905 23.3757881,10.0870416 23.3058008,10.0870416 L21.6960908,9.31650367 C21.6960908,9.31650367 21.6960908,9.31650367 21.6261034,9.31650367 Z"></path>
                    <path d="M24.9155107,7.56528117 L23.0958386,8.61601467 C23.0258512,8.61601467 23.0258512,8.75611247 23.0958386,8.75611247 L24.7055485,9.59669927 C24.7055485,9.59669927 24.7755359,9.59669927 24.7755359,9.59669927 L26.5952081,8.47591687 C26.6651955,8.40586797 26.6651955,8.33581907 26.5952081,8.33581907 L24.9854981,7.56528117 C24.9854981,7.56528117 24.9155107,7.56528117 24.9155107,7.56528117 Z"></path>
                    <path d="M28.204918,5.81405868 L26.3852459,6.86479218 C26.3152585,6.93484108 26.3152585,7.00488998 26.3852459,7.00488998 L27.9949559,7.84547677 C27.9949559,7.84547677 28.0649433,7.84547677 28.0649433,7.84547677 L29.8846154,6.72469438 C29.9546028,6.65464548 29.9546028,6.58459658 29.8846154,6.58459658 L28.2749054,5.81405868 C28.204918,5.74400978 28.204918,5.74400978 28.204918,5.81405868 Z"></path>
                    <path d="M31.424338,3.99278729 L29.6046658,5.04352078 C29.5346784,5.04352078 29.5346784,5.18361858 29.6046658,5.18361858 L31.2143758,6.02420538 C31.2143758,6.02420538 31.2843632,6.02420538 31.2843632,6.02420538 L33.1040353,4.90342298 C33.1740227,4.83337408 33.1740227,4.76332518 33.1040353,4.76332518 L31.4943253,3.99278729 C31.4943253,3.99278729 31.4943253,3.99278729 31.424338,3.99278729 Z"></path>
                    <path d="M34.7137453,2.24156479 L32.8940731,3.29229829 C32.8240858,3.29229829 32.8240858,3.43239609 32.8940731,3.43239609 L34.5037831,4.27298289 C34.5037831,4.27298289 34.5737705,4.27298289 34.5737705,4.27298289 L36.3934426,3.15220049 C36.46343,3.08215159 36.46343,3.01210269 36.3934426,3.01210269 L34.7837327,2.24156479 C34.7837327,2.17151589 34.7137453,2.17151589 34.7137453,2.24156479 Z"></path>
                    <path d="M37.9331652,0.420293399 L36.1134931,1.47102689 C36.0435057,1.47102689 36.0435057,1.61112469 36.1134931,1.61112469 L37.723203,2.45171149 C37.723203,2.45171149 37.7931904,2.45171149 37.7931904,2.45171149 L39.6128625,1.3309291 C39.6828499,1.2608802 39.6828499,1.1908313 39.6128625,1.1908313 L38.0031526,0.420293399 C38.0031526,0.420293399 38.0031526,0.420293399 37.9331652,0.420293399 Z"></path>
                </g>
                <g transform="translate(250.554855, 179.611247)" fill="#D1D5F5" fill-rule="nonzero" id="Path">
                    <path d="M2.23959647,19.6837408 L0.419924338,20.7344743 C0.349936948,20.7344743 0.349936948,20.8745721 0.419924338,20.8745721 L2.0296343,21.7151589 C2.0296343,21.7151589 2.09962169,21.7151589 2.09962169,21.7151589 L3.91929382,20.5943765 C3.98928121,20.5243276 3.98928121,20.4542787 3.91929382,20.4542787 L2.30958386,19.6837408 C2.30958386,19.6837408 2.23959647,19.6837408 2.23959647,19.6837408 Z"></path>
                    <path d="M5.52900378,17.9325183 L3.70933165,18.9832518 C3.63934426,18.9832518 3.63934426,19.1233496 3.70933165,19.1233496 L5.31904161,19.9639364 C5.31904161,19.9639364 5.389029,19.9639364 5.389029,19.9639364 L7.20870113,18.843154 C7.27868852,18.7731051 7.27868852,18.7030562 7.20870113,18.7030562 L5.59899117,17.9325183 C5.52900378,17.9325183 5.52900378,17.9325183 5.52900378,17.9325183 Z"></path>
                    <path d="M8.74842371,16.1812958 L6.92875158,17.2320293 C6.85876419,17.2320293 6.85876419,17.3721271 6.92875158,17.3721271 L8.53846154,18.2127139 C8.53846154,18.2127139 8.60844893,18.2127139 8.60844893,18.2127139 L10.4281211,17.0919315 C10.4981084,17.0218826 10.4981084,16.9518337 10.4281211,16.9518337 L8.8184111,16.1812958 C8.8184111,16.1112469 8.8184111,16.1112469 8.74842371,16.1812958 Z"></path>
                    <path d="M12.037831,14.3600244 L10.2181589,15.4107579 C10.1481715,15.4808068 10.1481715,15.5508557 10.2181589,15.5508557 L11.8278689,16.3914425 C11.8278689,16.3914425 11.8978562,16.3914425 11.8978562,16.3914425 L13.7175284,15.2706601 C13.7875158,15.2006112 13.7875158,15.1305623 13.7175284,15.1305623 L12.1078184,14.3600244 C12.1078184,14.3600244 12.037831,14.3600244 12.037831,14.3600244 Z"></path>
                    <path d="M15.2572509,12.608802 L13.4375788,13.6595355 C13.3675914,13.7295844 13.3675914,13.7996333 13.4375788,13.7996333 L15.0472888,14.64022 C15.0472888,14.64022 15.1172762,14.64022 15.1172762,14.64022 L16.9369483,13.5194377 C17.0069357,13.4493888 17.0069357,13.3793399 16.9369483,13.3793399 L15.3272383,12.608802 C15.3272383,12.5387531 15.3272383,12.5387531 15.2572509,12.608802 Z"></path>
                    <path d="M18.5466583,10.7875306 L16.7269861,11.8382641 C16.6569987,11.8382641 16.6569987,11.9783619 16.7269861,11.9783619 L18.3366961,12.8189487 C18.3366961,12.8189487 18.4066835,12.8189487 18.4066835,12.8189487 L20.2263556,11.6981663 C20.296343,11.6281174 20.296343,11.5580685 20.2263556,11.5580685 L18.6166456,10.7875306 C18.6166456,10.7875306 18.5466583,10.7875306 18.5466583,10.7875306 Z"></path>
                    <path d="M21.8360656,9.03630807 L20.0163934,10.0870416 C19.9464061,10.0870416 19.9464061,10.2271394 20.0163934,10.2271394 L21.6261034,11.0677262 C21.6261034,11.0677262 21.6960908,11.0677262 21.6960908,11.0677262 L23.5157629,9.94694377 C23.5857503,9.87689487 23.5857503,9.80684597 23.5157629,9.80684597 L21.906053,9.03630807 C21.8360656,9.03630807 21.8360656,9.03630807 21.8360656,9.03630807 Z"></path>
                    <path d="M25.0554855,7.21503667 L23.2358134,8.26577017 C23.165826,8.26577017 23.165826,8.40586797 23.2358134,8.40586797 L24.8455233,9.24645477 C24.8455233,9.24645477 24.9155107,9.24645477 24.9155107,9.24645477 L26.7351828,8.12567237 C26.8051702,8.05562347 26.8051702,7.98557457 26.7351828,7.98557457 L25.1254729,7.21503667 C25.1254729,7.21503667 25.1254729,7.21503667 25.0554855,7.21503667 Z"></path>
                    <path d="M28.3448928,5.46381418 L26.5252207,6.51454768 C26.4552333,6.51454768 26.4552333,6.65464548 26.5252207,6.65464548 L28.1349306,7.49523227 C28.1349306,7.49523227 28.204918,7.49523227 28.204918,7.49523227 L30.0245902,6.37444988 C30.0945776,6.30440098 30.0945776,6.23435208 30.0245902,6.23435208 L28.4148802,5.46381418 C28.4148802,5.46381418 28.3448928,5.46381418 28.3448928,5.46381418 Z"></path>
                    <path d="M31.6343001,3.71259169 L29.814628,4.76332518 C29.7446406,4.83337408 29.7446406,4.90342298 29.814628,4.90342298 L31.424338,5.74400978 C31.424338,5.74400978 31.4943253,5.74400978 31.4943253,5.74400978 L33.3139975,4.62322738 C33.3839849,4.55317848 33.3839849,4.48312958 33.3139975,4.48312958 L31.7042875,3.71259169 C31.6343001,3.64254279 31.6343001,3.64254279 31.6343001,3.71259169 Z"></path>
                    <path d="M34.8537201,1.89132029 L33.0340479,2.94205379 C32.9640605,2.94205379 32.9640605,3.08215159 33.0340479,3.08215159 L34.6437579,3.92273839 C34.6437579,3.92273839 34.7137453,3.92273839 34.7137453,3.92273839 L36.5334174,2.80195599 C36.6034048,2.73190709 36.6034048,2.66185819 36.5334174,2.66185819 L34.9237074,1.89132029 C34.9237074,1.89132029 34.9237074,1.89132029 34.8537201,1.89132029 Z"></path>
                    <path d="M38.1431274,0.1400978 L36.3234552,1.1908313 C36.2534678,1.1908313 36.2534678,1.3309291 36.3234552,1.3309291 L37.9331652,2.17151589 C37.9331652,2.17151589 38.0031526,2.17151589 38.0031526,2.17151589 L39.8228247,1.0507335 C39.8928121,0.980684597 39.8928121,0.910635697 39.8228247,0.910635697 L38.2131148,0.1400978 C38.2131148,0.0700488998 38.1431274,0.0700488998 38.1431274,0.1400978 Z"></path>
                </g>
                <g transform="translate(253.354351, 181.012225)" fill="#D1D5F5" fill-rule="nonzero" id="Path">
                    <path d="M2.37957125,20.1040342 L0.559899117,21.1547677 C0.489911728,21.2248166 0.489911728,21.2948655 0.559899117,21.2948655 L2.16960908,22.1354523 C2.16960908,22.1354523 2.23959647,22.1354523 2.23959647,22.1354523 L4.0592686,21.0146699 C4.12925599,20.944621 4.12925599,20.8745721 4.0592686,20.8745721 L2.44955864,20.1040342 C2.44955864,20.1040342 2.44955864,20.1040342 2.37957125,20.1040342 Z"></path>
                    <path d="M5.66897856,18.2827628 L3.84930643,19.3334963 C3.77931904,19.3334963 3.77931904,19.4735941 3.84930643,19.4735941 L5.45901639,20.3141809 C5.45901639,20.3141809 5.52900378,20.3141809 5.52900378,20.3141809 L7.34867591,19.1933985 C7.4186633,19.1233496 7.4186633,19.0533007 7.34867591,19.0533007 L5.73896595,18.2827628 C5.73896595,18.2827628 5.66897856,18.2827628 5.66897856,18.2827628 Z"></path>
                    <path d="M8.95838588,16.5315403 L7.13871375,17.5822738 C7.06872636,17.5822738 7.06872636,17.7223716 7.13871375,17.7223716 L8.74842371,18.5629584 C8.74842371,18.5629584 8.8184111,18.5629584 8.8184111,18.5629584 L10.6380832,17.442176 C10.7080706,17.3721271 10.7080706,17.3020782 10.6380832,17.3020782 L9.02837327,16.5315403 C8.95838588,16.5315403 8.95838588,16.5315403 8.95838588,16.5315403 Z"></path>
                    <path d="M12.1778058,14.7803178 L10.3581337,15.8310513 C10.2881463,15.8310513 10.2881463,15.9711491 10.3581337,15.9711491 L11.9678436,16.8117359 C11.9678436,16.8117359 12.037831,16.8117359 12.037831,16.8117359 L13.8575032,15.6909535 C13.9274905,15.6209046 13.9274905,15.5508557 13.8575032,15.5508557 L12.2477932,14.7803178 C12.2477932,14.7102689 12.2477932,14.7102689 12.1778058,14.7803178 Z"></path>
                    <path d="M15.4672131,12.9590465 L13.647541,14.00978 C13.5775536,14.0798289 13.5775536,14.1498778 13.647541,14.1498778 L15.2572509,14.9904645 C15.2572509,14.9904645 15.3272383,14.9904645 15.3272383,14.9904645 L17.1469105,13.8696822 C17.2168979,13.7996333 17.2168979,13.7295844 17.1469105,13.7295844 L15.5372005,12.9590465 C15.5372005,12.9590465 15.4672131,12.9590465 15.4672131,12.9590465 Z"></path>
                    <path d="M18.686633,11.207824 L16.8669609,12.2585575 C16.7969735,12.3286064 16.7969735,12.3986553 16.8669609,12.3986553 L18.4766709,13.2392421 C18.4766709,13.2392421 18.5466583,13.2392421 18.5466583,13.2392421 L20.3663304,12.1184597 C20.4363178,12.0484108 20.4363178,11.9783619 20.3663304,11.9783619 L18.7566204,11.207824 C18.7566204,11.1377751 18.7566204,11.1377751 18.686633,11.207824 Z"></path>
                    <path d="M21.9760404,9.38655257 L20.1563682,10.4372861 C20.0863808,10.4372861 20.0863808,10.5773839 20.1563682,10.5773839 L21.7660782,11.4179707 C21.7660782,11.4179707 21.8360656,11.4179707 21.8360656,11.4179707 L23.6557377,10.2971883 C23.7257251,10.2271394 23.7257251,10.1570905 23.6557377,10.1570905 L22.0460277,9.38655257 C22.0460277,9.38655257 21.9760404,9.38655257 21.9760404,9.38655257 Z"></path>
                    <path d="M25.2654477,7.63533007 L23.4457755,8.68606357 C23.3757881,8.68606357 23.3757881,8.82616137 23.4457755,8.82616137 L25.0554855,9.66674817 C25.0554855,9.66674817 25.1254729,9.66674817 25.1254729,9.66674817 L26.945145,8.54596577 C27.0151324,8.47591687 27.0151324,8.40586797 26.945145,8.40586797 L25.3354351,7.63533007 C25.3354351,7.63533007 25.2654477,7.63533007 25.2654477,7.63533007 Z"></path>
                    <path d="M28.4848676,5.81405868 L26.6651955,6.86479218 C26.5952081,6.86479218 26.5952081,7.00488998 26.6651955,7.00488998 L28.2749054,7.84547677 C28.2749054,7.84547677 28.3448928,7.84547677 28.3448928,7.84547677 L30.1645649,6.72469438 C30.2345523,6.65464548 30.2345523,6.58459658 30.1645649,6.58459658 L28.554855,5.81405868 C28.554855,5.81405868 28.554855,5.81405868 28.4848676,5.81405868 Z"></path>
                    <path d="M31.7742749,4.06283619 L29.9546028,5.11356968 C29.8846154,5.11356968 29.8846154,5.25366748 29.9546028,5.25366748 L31.5643127,6.09425428 C31.5643127,6.09425428 31.6343001,6.09425428 31.6343001,6.09425428 L33.4539723,4.97347188 C33.5239596,4.90342298 33.5239596,4.83337408 33.4539723,4.83337408 L31.8442623,4.06283619 C31.8442623,4.06283619 31.7742749,4.06283619 31.7742749,4.06283619 Z"></path>
                    <path d="M35.0636822,2.31161369 L33.2440101,3.36234719 C33.1740227,3.43239609 33.1740227,3.50244499 33.2440101,3.50244499 L34.8537201,4.34303178 C34.8537201,4.34303178 34.9237074,4.34303178 34.9237074,4.34303178 L36.7433796,3.22224939 C36.813367,3.15220049 36.813367,3.08215159 36.7433796,3.08215159 L35.1336696,2.31161369 C35.0636822,2.24156479 35.0636822,2.24156479 35.0636822,2.31161369 Z"></path>
                    <path d="M38.2831021,0.490342298 L36.46343,1.54107579 C36.3934426,1.54107579 36.3934426,1.68117359 36.46343,1.68117359 L38.07314,2.52176039 C38.07314,2.52176039 38.1431274,2.52176039 38.1431274,2.52176039 L39.9627995,1.400978 C40.0327869,1.3309291 40.0327869,1.2608802 39.9627995,1.2608802 L38.3530895,0.490342298 C38.3530895,0.490342298 38.3530895,0.490342298 38.2831021,0.490342298 Z"></path>
                </g>
                <g transform="translate(256.853720, 183.113692)" fill="#D1D5F5" fill-rule="nonzero" id="Path">
                    <path d="M1.88965952,19.7537897 L0.0699873897,20.8045232 C1.59129654e-13,20.8745721 1.59129654e-13,20.944621 0.0699873897,20.944621 L1.67969735,21.7852078 C1.67969735,21.7852078 1.74968474,21.7852078 1.74968474,21.7852078 L3.56935687,20.6644254 C3.63934426,20.5943765 3.63934426,20.5243276 3.56935687,20.5243276 L1.95964691,19.7537897 C1.95964691,19.7537897 1.88965952,19.7537897 1.88965952,19.7537897 Z"></path>
                    <path d="M5.10907945,18.0025672 L3.28940731,19.0533007 C3.21941992,19.1233496 3.21941992,19.1933985 3.28940731,19.1933985 L4.89911728,20.0339853 C4.89911728,20.0339853 4.96910467,20.0339853 4.96910467,20.0339853 L6.7887768,18.9132029 C6.85876419,18.843154 6.85876419,18.7731051 6.7887768,18.7731051 L5.17906683,18.0025672 C5.17906683,18.0025672 5.17906683,18.0025672 5.10907945,18.0025672 Z"></path>
                    <path d="M8.39848676,16.1812958 L6.57881463,17.2320293 C6.50882724,17.2320293 6.50882724,17.3721271 6.57881463,17.3721271 L8.18852459,18.2127139 C8.18852459,18.2127139 8.25851198,18.2127139 8.25851198,18.2127139 L10.0781841,17.0919315 C10.1481715,17.0218826 10.1481715,16.9518337 10.0781841,16.9518337 L8.46847415,16.1812958 C8.46847415,16.1812958 8.39848676,16.1812958 8.39848676,16.1812958 Z"></path>
                    <path d="M11.6878941,14.4300733 L9.86822194,15.4808068 C9.79823455,15.4808068 9.79823455,15.6209046 9.86822194,15.6209046 L11.4779319,16.4614914 C11.4779319,16.4614914 11.5479193,16.4614914 11.5479193,16.4614914 L13.3675914,15.340709 C13.4375788,15.2706601 13.4375788,15.2006112 13.3675914,15.2006112 L11.7578815,14.4300733 C11.6878941,14.4300733 11.6878941,14.4300733 11.6878941,14.4300733 Z"></path>
                    <path d="M14.907314,12.6788509 L13.0876419,13.7295844 C13.0176545,13.7295844 13.0176545,13.8696822 13.0876419,13.8696822 L14.6973518,14.7102689 C14.6973518,14.7102689 14.7673392,14.7102689 14.7673392,14.7102689 L16.5870113,13.5894866 C16.6569987,13.5194377 16.6569987,13.4493888 16.5870113,13.4493888 L14.9773014,12.6788509 C14.9773014,12.608802 14.9773014,12.608802 14.907314,12.6788509 Z"></path>
                    <path d="M18.1967213,10.8575795 L16.3770492,11.908313 C16.3070618,11.9783619 16.3070618,12.0484108 16.3770492,12.0484108 L17.9867591,12.8889976 C17.9867591,12.8889976 18.0567465,12.8889976 18.0567465,12.8889976 L19.8764187,11.7682152 C19.9464061,11.6981663 19.9464061,11.6281174 19.8764187,11.6281174 L18.2667087,10.8575795 C18.2667087,10.8575795 18.1967213,10.8575795 18.1967213,10.8575795 Z"></path>
                    <path d="M21.4161412,9.10635697 L19.5964691,10.1570905 C19.5264817,10.2271394 19.5264817,10.2971883 19.5964691,10.2971883 L21.2061791,11.1377751 C21.2061791,11.1377751 21.2761665,11.1377751 21.2761665,11.1377751 L23.0958386,10.0169927 C23.165826,9.94694377 23.165826,9.87689487 23.0958386,9.87689487 L21.4861286,9.10635697 C21.4861286,9.03630807 21.4861286,9.03630807 21.4161412,9.10635697 Z"></path>
                    <path d="M24.7055485,7.28508557 L22.8858764,8.33581907 C22.815889,8.33581907 22.815889,8.47591687 22.8858764,8.47591687 L24.4955864,9.31650367 C24.4955864,9.31650367 24.5655738,9.31650367 24.5655738,9.31650367 L26.3852459,8.19572127 C26.4552333,8.12567237 26.4552333,8.05562347 26.3852459,8.05562347 L24.7755359,7.28508557 C24.7755359,7.28508557 24.7055485,7.28508557 24.7055485,7.28508557 Z"></path>
                    <path d="M27.9949559,5.53386308 L26.1752837,6.58459658 C26.1052963,6.58459658 26.1052963,6.72469438 26.1752837,6.72469438 L27.7849937,7.56528117 C27.7849937,7.56528117 27.8549811,7.56528117 27.8549811,7.56528117 L29.6746532,6.44449878 C29.7446406,6.37444988 29.7446406,6.30440098 29.6746532,6.30440098 L28.0649433,5.53386308 C28.0649433,5.53386308 27.9949559,5.53386308 27.9949559,5.53386308 Z"></path>
                    <path d="M31.2143758,3.71259169 L29.3947037,4.76332518 C29.3247163,4.76332518 29.3247163,4.90342298 29.3947037,4.90342298 L31.0044136,5.74400978 C31.0044136,5.74400978 31.074401,5.74400978 31.074401,5.74400978 L32.8940731,4.62322738 C32.9640605,4.55317848 32.9640605,4.48312958 32.8940731,4.48312958 L31.2843632,3.71259169 C31.2843632,3.71259169 31.2843632,3.71259169 31.2143758,3.71259169 Z"></path>
                    <path d="M34.5037831,1.96136919 L32.684111,3.01210269 C32.6141236,3.01210269 32.6141236,3.15220049 32.684111,3.15220049 L34.2938209,3.99278729 C34.2938209,3.99278729 34.3638083,3.99278729 34.3638083,3.99278729 L36.1834805,2.87200489 C36.2534678,2.80195599 36.2534678,2.73190709 36.1834805,2.73190709 L34.5737705,1.96136919 C34.5737705,1.96136919 34.5037831,1.96136919 34.5037831,1.96136919 Z"></path>
                    <path d="M37.7931904,0.210146699 L35.9735183,1.2608802 C35.9035309,1.3309291 35.9035309,1.400978 35.9735183,1.400978 L37.5832282,2.24156479 C37.5832282,2.24156479 37.6532156,2.24156479 37.6532156,2.24156479 L39.4728878,1.1207824 C39.5428752,1.0507335 39.5428752,0.980684597 39.4728878,0.980684597 L37.8631778,0.210146699 C37.7931904,0.1400978 37.7931904,0.1400978 37.7931904,0.210146699 Z"></path>
                </g>
                <g transform="translate(259.653216, 184.514670)" fill="#D1D5F5" fill-rule="nonzero" id="Path">
                    <path d="M2.30958386,20.1740831 L0.489911728,21.2248166 C0.419924338,21.2248166 0.419924338,21.3649144 0.489911728,21.3649144 L2.09962169,22.2055012 C2.09962169,22.2055012 2.16960908,22.2055012 2.16960908,22.2055012 L3.98928121,21.0847188 C4.0592686,21.0146699 4.0592686,20.944621 3.98928121,20.944621 L2.37957125,20.1740831 C2.37957125,20.1040342 2.37957125,20.1040342 2.30958386,20.1740831 Z"></path>
                    <path d="M5.59899117,18.3528117 L3.77931904,19.4035452 C3.70933165,19.4735941 3.70933165,19.543643 3.77931904,19.543643 L5.389029,20.3842298 C5.389029,20.3842298 5.45901639,20.3842298 5.45901639,20.3842298 L7.27868852,19.2634474 C7.34867591,19.1933985 7.34867591,19.1233496 7.27868852,19.1233496 L5.66897856,18.3528117 C5.66897856,18.3528117 5.59899117,18.3528117 5.59899117,18.3528117 Z"></path>
                    <path d="M8.88839849,16.6015892 L7.06872636,17.6523227 C6.99873897,17.7223716 6.99873897,17.7924205 7.06872636,17.7924205 L8.67843632,18.6330073 C8.67843632,18.6330073 8.74842371,18.6330073 8.74842371,18.6330073 L10.5680958,17.5122249 C10.6380832,17.442176 10.6380832,17.3721271 10.5680958,17.3721271 L8.95838588,16.6015892 C8.88839849,16.6015892 8.88839849,16.6015892 8.88839849,16.6015892 Z"></path>
                    <path d="M12.1078184,14.7803178 L10.2881463,15.8310513 C10.2181589,15.8310513 10.2181589,15.9711491 10.2881463,15.9711491 L11.8978562,16.8117359 C11.8978562,16.8117359 11.9678436,16.8117359 11.9678436,16.8117359 L13.7875158,15.6909535 C13.8575032,15.6209046 13.8575032,15.5508557 13.7875158,15.5508557 L12.1778058,14.7803178 C12.1778058,14.7803178 12.1778058,14.7803178 12.1078184,14.7803178 Z"></path>
                    <path d="M15.3972257,13.0290954 L13.5775536,14.0798289 C13.5075662,14.0798289 13.5075662,14.2199267 13.5775536,14.2199267 L15.1872636,15.0605134 C15.1872636,15.0605134 15.2572509,15.0605134 15.2572509,15.0605134 L17.0769231,13.9397311 C17.1469105,13.8696822 17.1469105,13.7996333 17.0769231,13.7996333 L15.4672131,13.0290954 C15.4672131,13.0290954 15.3972257,13.0290954 15.3972257,13.0290954 Z"></path>
                    <path d="M18.6166456,11.2778729 L16.7969735,12.3286064 C16.7269861,12.3286064 16.7269861,12.4687042 16.7969735,12.4687042 L18.4066835,13.309291 C18.4066835,13.309291 18.4766709,13.309291 18.4766709,13.309291 L20.296343,12.1885086 C20.3663304,12.1184597 20.3663304,12.0484108 20.296343,12.0484108 L18.686633,11.2778729 C18.686633,11.207824 18.686633,11.207824 18.6166456,11.2778729 Z"></path>
                    <path d="M21.906053,9.45660147 L20.0863808,10.507335 C20.0163934,10.5773839 20.0163934,10.6474328 20.0863808,10.6474328 L21.6960908,11.4880196 C21.6960908,11.4880196 21.7660782,11.4880196 21.7660782,11.4880196 L23.5857503,10.3672372 C23.6557377,10.2971883 23.6557377,10.2271394 23.5857503,10.2271394 L21.9760404,9.45660147 C21.9760404,9.45660147 21.906053,9.45660147 21.906053,9.45660147 Z"></path>
                    <path d="M25.1954603,7.70537897 L23.3757881,8.75611247 C23.3058008,8.82616137 23.3058008,8.89621027 23.3757881,8.89621027 L24.9854981,9.73679707 C24.9854981,9.73679707 25.0554855,9.73679707 25.0554855,9.73679707 L26.8751576,8.61601467 C26.945145,8.54596577 26.945145,8.47591687 26.8751576,8.47591687 L25.2654477,7.70537897 C25.2654477,7.63533007 25.1954603,7.63533007 25.1954603,7.70537897 Z"></path>
                    <path d="M28.4148802,5.88410758 L26.5952081,6.93484108 C26.5252207,6.93484108 26.5252207,7.07493888 26.5952081,7.07493888 L28.204918,7.91552567 C28.204918,7.91552567 28.2749054,7.91552567 28.2749054,7.91552567 L30.0945776,6.79474328 C30.1645649,6.72469438 30.1645649,6.65464548 30.0945776,6.65464548 L28.4848676,5.88410758 C28.4848676,5.88410758 28.4848676,5.88410758 28.4148802,5.88410758 Z"></path>
                    <path d="M31.7042875,4.13288509 L29.8846154,5.18361858 C29.814628,5.18361858 29.814628,5.32371638 29.8846154,5.32371638 L31.4943253,6.16430318 C31.4943253,6.16430318 31.5643127,6.16430318 31.5643127,6.16430318 L33.3839849,5.04352078 C33.4539723,4.97347188 33.4539723,4.90342298 33.3839849,4.90342298 L31.7742749,4.13288509 C31.7742749,4.13288509 31.7042875,4.13288509 31.7042875,4.13288509 Z"></path>
                    <path d="M34.9936948,2.31161369 L33.1740227,3.36234719 C33.1040353,3.36234719 33.1040353,3.50244499 33.1740227,3.50244499 L34.7837327,4.34303178 C34.7837327,4.34303178 34.8537201,4.34303178 34.8537201,4.34303178 L36.6733922,3.22224939 C36.7433796,3.15220049 36.7433796,3.08215159 36.6733922,3.08215159 L35.0636822,2.31161369 C34.9936948,2.31161369 34.9936948,2.31161369 34.9936948,2.31161369 Z"></path>
                    <path d="M38.2131148,0.560391198 L36.3934426,1.61112469 C36.3234552,1.61112469 36.3234552,1.75122249 36.3934426,1.75122249 L38.0031526,2.59180929 C38.0031526,2.59180929 38.07314,2.59180929 38.07314,2.59180929 L39.8928121,1.47102689 C39.9627995,1.400978 39.9627995,1.3309291 39.8928121,1.3309291 L38.2831021,0.560391198 C38.2831021,0.560391198 38.2831021,0.560391198 38.2131148,0.560391198 Z"></path>
                    <polygon points="18.3366961 11.4179707 24.8455233 7.84547677 25.7553594 9.31650367 18.6166456 13.1691932"></polygon>
                </g>
                <path d="M236.277427,159.437164 L261.332913,145.00709" id="Path" stroke="#FFFFFF" stroke-width="1.51389" stroke-linecap="round" stroke-linejoin="round"></path>
                <path d="M236.837327,162.099022 L261.962799,147.668949" id="Path" stroke="#FFFFFF" stroke-width="1.00926" stroke-linecap="round" stroke-linejoin="round"></path>
                <polyline id="Path" stroke="#82E0D2" stroke-width="2.52994" stroke-linecap="round" stroke-linejoin="round" points="46.8215637 41.9651589 53.7503153 27.4650367 60.3291299 41.4047677"></polyline>
            </g>
        </g>
    </g>
</svg>