<?xml version="1.0" encoding="UTF-8"?>
<svg width="564px" height="359px" viewBox="0 0 564 359" version="1.1" xmlns="http://www.w3.org/2000/svg" xmlns:xlink="http://www.w3.org/1999/xlink">
    <!-- Generator: Sketch 53.2 (72643) - https://sketchapp.com -->
    <title>Group</title>
    <desc>Created with Sketch.</desc>
    <defs>
        <linearGradient x1="-0.309313137%" y1="50.0986896%" x2="99.7553607%" y2="50.0986896%" id="linearGradient-1">
            <stop stop-color="#250491" offset="0%"></stop>
            <stop stop-color="#2504C4" offset="100%"></stop>
        </linearGradient>
        <linearGradient x1="-0.057383879%" y1="49.907682%" x2="99.8136591%" y2="49.907682%" id="linearGradient-2">
            <stop stop-color="#E19D00" offset="30.6%"></stop>
            <stop stop-color="#EAB300" offset="100%"></stop>
        </linearGradient>
        <linearGradient x1="-0.305635491%" y1="50.0674874%" x2="98.9558649%" y2="50.0674874%" id="linearGradient-3">
            <stop stop-color="#E19D00" offset="30.6%"></stop>
            <stop stop-color="#EAB300" offset="100%"></stop>
        </linearGradient>
        <linearGradient x1="-0.148909877%" y1="49.9389968%" x2="99.8249596%" y2="49.9389968%" id="linearGradient-4">
            <stop stop-color="#E19D00" offset="30.6%"></stop>
            <stop stop-color="#EAB300" offset="100%"></stop>
        </linearGradient>
        <linearGradient x1="-0.490435471%" y1="49.9690647%" x2="99.7074094%" y2="49.9690647%" id="linearGradient-5">
            <stop stop-color="#E19D00" offset="30.6%"></stop>
            <stop stop-color="#EAB300" offset="100%"></stop>
        </linearGradient>
        <linearGradient x1="0.459799602%" y1="50.3295937%" x2="100.7515%" y2="50.3295937%" id="linearGradient-6">
            <stop stop-color="#E19D00" offset="30.6%"></stop>
            <stop stop-color="#EAB300" offset="100%"></stop>
        </linearGradient>
    </defs>
    <g id="Page-1" stroke="none" stroke-width="1" fill="none" fill-rule="evenodd">
        <g id="lp" transform="translate(-680.000000, -327.000000)">
            <g id="Group" transform="translate(680.000000, 327.000000)">
                <g fill-rule="nonzero" id="Path">
                    <path d="M105.858736,34.3604288 C84.1548947,21.6939571 56.2199504,24.2832359 37.3866171,40.5187135 C27.6548947,48.9163743 17.7831475,60.8130604 8.96158612,77.6783626 C1.19021066,92.51423 -0.91016109,112.318713 0.350061958,134.012671 C6.02106568,230.305848 75.9634449,312.183041 173.280669,337.655945 C249.174102,357.530409 342.780669,370.896686 407.962206,342.41462 C535.524783,286.640156 532.934325,75.6489279 495.33767,34.9902534 C457.671004,-5.66842105 376.316605,-11.4768031 321.636927,23.3734893 C272.768278,54.5148148 160.398389,66.2015595 105.858736,34.3604288 Z" fill="#F8F8FF"></path>
                    <path d="M131.763321,58.9935673 C113.770136,48.4964912 90.5260223,50.5959064 74.8432466,64.1021442 C66.7918216,71.0302144 58.5303594,80.9674464 51.2490706,94.9635478 C44.8079306,107.280117 43.0576208,123.795517 44.1078067,141.780507 C48.7986369,221.838207 106.978934,289.789279 187.773234,310.993372 C250.854399,327.508772 328.568154,338.635673 382.757745,314.982261 C488.756506,268.655166 486.586121,93.3539961 455.360595,59.5534113 C424.065056,25.7528265 356.433086,20.9241715 311.065056,49.8961014 C270.387856,75.7189084 177.061338,85.3762183 131.763321,58.9935673 Z" fill="#EBEBFF" opacity="0.74"></path>
                </g>
                <rect id="Rectangle" fill="#9BA8EF" fill-rule="nonzero" x="232.72119" y="113.22846" width="7.84138786" height="74.5992203"></rect>
                <g transform="translate(131.623296, 73.479532)">
                    <path d="M276.05886,217.289474 L38.2967782,217.289474 C33.6759603,217.289474 29.8952912,213.510526 29.8952912,208.891813 L29.8952912,161.375049 C29.8952912,156.756335 33.6759603,152.977388 38.2967782,152.977388 L276.128872,152.977388 C280.74969,152.977388 284.530359,156.756335 284.530359,161.375049 L284.530359,208.891813 C284.460347,213.510526 280.679678,217.289474 276.05886,217.289474 Z" id="Path" fill="#9BA8EF" fill-rule="nonzero"></path>
                    <path d="M261.216233,217.289474 L23.3841388,217.289474 C18.7633209,217.289474 14.9826518,213.510526 14.9826518,208.891813 L14.9826518,161.375049 C14.9826518,156.756335 18.7633209,152.977388 23.3841388,152.977388 L261.216233,152.977388 C265.837051,152.977388 269.61772,156.756335 269.61772,161.375049 L269.61772,208.891813 C269.61772,213.510526 265.837051,217.289474 261.216233,217.289474 Z" id="Path" fill="#C7CEF9" fill-rule="nonzero"></path>
                    <path d="M246.513631,217.289474 L8.75154895,217.289474 C4.1307311,217.289474 0.350061958,213.510526 0.350061958,208.891813 L0.350061958,161.375049 C0.350061958,156.756335 4.1307311,152.977388 8.75154895,152.977388 L246.583643,152.977388 C251.204461,152.977388 254.98513,156.756335 254.98513,161.375049 L254.98513,208.891813 C254.915118,213.510526 251.134449,217.289474 246.513631,217.289474 Z" id="Path" fill="#C7CEF9" fill-rule="nonzero"></path>
                    <ellipse id="Oval" fill="#C7CEF9" fill-rule="nonzero" cx="209.477076" cy="22.8836257" rx="22.2639405" ry="22.2538012"></ellipse>
                    <path d="M274.5886,162.424756 L20.3736059,162.424756 C18.413259,162.424756 16.8729864,160.815205 16.8729864,158.925731 L16.8729864,148.918519 C16.8729864,146.959064 18.4832714,145.419493 20.3736059,145.419493 L274.5886,145.419493 C276.548947,145.419493 278.089219,147.029045 278.089219,148.918519 L278.089219,158.925731 C278.089219,160.815205 276.548947,162.424756 274.5886,162.424756 Z" id="Path" fill="#C7CEF9" fill-rule="nonzero"></path>
                    <path d="M264.92689,163.334503 L11.1319703,163.334503 C9.1016109,163.334503 7.42131351,161.654971 7.42131351,159.625536 L7.42131351,149.05848 C7.42131351,147.029045 9.1016109,145.349513 11.1319703,145.349513 L264.996902,145.349513 C267.027261,145.349513 268.707559,147.029045 268.707559,149.05848 L268.707559,159.625536 C268.637546,161.654971 266.957249,163.334503 264.92689,163.334503 Z" id="Path" fill="#FFFFFF" fill-rule="nonzero"></path>
                    <path d="M40.5371747,85.7961014 L257.295539,85.7961014 C266.6772,85.7961014 274.30855,93.4239766 274.30855,102.801365 L274.30855,146.32924 L23.5241636,146.32924 L23.5241636,102.801365 C23.5241636,93.4239766 31.1555143,85.7961014 40.5371747,85.7961014 Z" id="Path" fill="#C7CEF9" fill-rule="nonzero"></path>
                    <path d="M31.9956629,85.7961014 L248.754027,85.7961014 C258.135688,85.7961014 265.767038,93.4239766 265.767038,102.801365 L265.767038,146.32924 L14.9826518,146.32924 L14.9826518,102.801365 C14.9826518,93.4239766 22.6140025,85.7961014 31.9956629,85.7961014 Z" id="Path" fill="#FFFFFF" fill-rule="nonzero"></path>
                    <path d="M177.761462,142.550292 C177.761462,142.550292 181.542131,159.555556 169.21995,161.445029 C156.89777,163.334503 123.781908,161.445029 123.781908,161.445029 L105.788724,161.445029 C105.788724,161.445029 101.027881,149.12846 112.439901,146.32924 C123.851921,143.460039 177.761462,142.550292 177.761462,142.550292 Z" id="Path" fill="#2504C4" fill-rule="nonzero"></path>
                    <path d="M203.315985,143.460039 C203.315985,143.460039 207.096654,160.465302 194.774473,162.354776 C182.452292,164.24425 149.336431,162.354776 149.336431,162.354776 L131.343247,162.354776 C131.343247,162.354776 126.582404,150.038207 137.994424,147.238986 C149.406444,144.439766 203.315985,143.460039 203.315985,143.460039 Z" id="Path" fill="#5641FC" fill-rule="nonzero"></path>
                    <path d="M170.270136,72.079922 L175.871128,84.8163743 C175.871128,84.8163743 173.980793,94.2637427 167.329616,92.374269 C162.568773,90.4847953 163.548947,87.6155945 163.548947,87.6155945 C163.548947,87.6155945 163.548947,78.1682261 161.658612,76.2787524 C159.768278,74.3892788 170.270136,72.079922 170.270136,72.079922 Z" id="Path" fill="#C2C7F5" fill-rule="nonzero"></path>
                    <path d="M147.796159,64.6619883 C147.796159,64.6619883 152.206939,85.9360624 159.628253,82.437037 C167.049566,78.9380117 172.160471,69.0707602 172.160471,69.0707602 L162.218711,61.0929825 L147.796159,64.6619883 Z" id="Path" fill="#C2C7F5" fill-rule="nonzero"></path>
                    <path d="M158.508055,66.3415205 C160.328377,67.111306 161.5886,68.7908382 161.938662,70.6803119 C162.008674,70.9602339 162.008674,71.3101365 162.078686,71.5900585 C163.618959,72.7797271 165.719331,74.1093567 168.309789,74.9491228 C169.78005,75.4389864 171.390335,74.5292398 171.670384,73.0596491 L171.670384,73.0596491 C173.350682,71.2401559 175.451053,68.0210526 175.66109,63.8222222 C176.921314,56.5442495 167.329616,39.0491228 149.966543,53.8849903 C149.966543,53.8849903 142.545229,52.7653021 142.475217,59.6233918 C142.405204,65.2218324 149.89653,66.831384 155.427509,65.2918129 C156.197646,65.5017544 157.247831,65.8516569 158.508055,66.3415205 Z" id="Path" fill="url(#linearGradient-1)" fill-rule="nonzero"></path>
                    <ellipse id="Oval" fill="#C2C7F5" fill-rule="nonzero" cx="160.188352" cy="68.3709552" rx="3.71065675" ry="3.70896686"></ellipse>
                    <path d="M195.754647,196.925146 C195.754647,196.925146 202.195787,200.14425 202.615861,202.593567 C203.035936,205.042885 204.226146,206.652437 206.256506,206.652437 C208.286865,206.652437 215.148079,210.291423 213.537794,217.149513 C213.957869,219.948733 210.317224,219.948733 210.317224,219.948733 C210.317224,219.948733 209.127014,223.587719 210.737299,224.007602 C212.347584,224.427485 216.828377,224.847368 216.828377,224.847368 C216.828377,224.847368 218.858736,224.007602 219.27881,222.048148 C219.698885,220.018713 217.248451,217.219493 217.248451,217.219493 C217.248451,217.219493 217.668525,211.970955 218.438662,210.781287 C219.27881,209.591618 220.048947,206.722417 218.018587,205.112865 C215.988228,203.503314 212.767658,201.893762 212.767658,199.444444 C212.767658,196.995127 211.577447,184.468616 207.516729,182.089279 C203.45601,179.639961 189.313507,182.929045 189.313507,182.929045 L195.754647,196.925146 Z" id="Path" fill="url(#linearGradient-2)" fill-rule="nonzero"></path>
                    <path d="M175.871128,84.8163743 C175.871128,84.8163743 195.754647,81.9471735 198.555143,90.4847953 C201.425651,99.0224172 210.877323,114.138207 211.787485,135.902144 C214.657993,152.907407 164.459108,142.550292 164.459108,142.550292 L164.459108,137.791618 L175.871128,84.8163743 Z" id="Path" fill="#31BB93" fill-rule="nonzero"></path>
                    <path d="M175.871128,84.8163743 L186.302974,99.0224172 L200.515489,133.102924 L164.52912,137.861598 C164.52912,137.861598 157.877943,137.861598 157.877943,136.881871 C157.877943,135.902144 160.748451,118.896881 149.336431,107.560039 C149.336431,98.1126706 163.478934,85.3762183 163.478934,85.3762183 L175.871128,84.8163743 Z" id="Path" fill="#39C79E" fill-rule="nonzero"></path>
                    <path d="M163.548947,85.7961014 C163.548947,85.7961014 151.226766,86.7758285 148.42627,90.5547758 C145.555762,94.3337232 143.665428,133.102924 143.665428,133.102924 L137.994424,134.082651 L141.775093,143.530019 L153.1171,143.530019 C153.1171,143.530019 156.89777,128.41423 157.877943,120.856335 C158.858116,113.298441 160.748451,95.3134503 160.748451,95.3134503" id="Path" fill="#31BB93" fill-rule="nonzero"></path>
                    <path d="M164.52912,137.791618 C164.52912,137.791618 156.967782,133.032943 149.406444,134.922417 C141.845105,136.811891 154.167286,140.590838 156.057621,140.590838 C157.947955,140.590838 165.159232,142.620273 165.159232,142.620273 L164.52912,137.791618 Z" id="Path" fill="#C2C7F5" fill-rule="nonzero"></path>
                    <path d="M85.9052045,110.359259 L127.282528,110.359259 C128.052664,110.359259 128.8228,110.849123 129.10285,111.548928 L141.775093,143.669981 C142.26518,144.92963 141.355019,146.32924 139.954771,146.32924 L139.954771,146.32924 L97.7372986,146.32924 C96.8971499,146.32924 96.197026,145.839376 95.9169765,145.069591 L84.0848823,112.948538 C83.5947955,111.688889 84.574969,110.359259 85.9052045,110.359259 Z" id="Path" fill="#9BA8EF" fill-rule="nonzero"></path>
                    <path d="M175.100991,146.32924 L125.532218,146.32924 C125.112144,146.32924 124.762082,145.979337 124.762082,145.559454 L124.762082,143.320078 C124.762082,142.900195 125.112144,142.550292 125.532218,142.550292 L175.100991,142.550292 C175.521066,142.550292 175.871128,142.900195 175.871128,143.320078 L175.871128,145.559454 C175.871128,145.979337 175.521066,146.32924 175.100991,146.32924 Z" id="Path" fill="#9BA8EF" fill-rule="nonzero"></path>
                    <polygon id="Path" fill="#39C79E" fill-rule="nonzero" points="162.638786 82.017154 174.960967 81.0374269 176.851301 86.705848 168.309789 88.5953216 163.548947 85.7961014"></polygon>
                    <path d="M166.769517,141.710526 C166.769517,141.710526 162.638786,138.07154 160.328377,141.710526 C158.228005,144.92963 163.05886,146.049318 164.319083,148.148733 C164.80917,148.988499 165.159232,149.828265 165.719331,150.668031 C168.799876,155.496686 170.340149,162.354776 170.340149,162.354776 L175.100991,162.354776 C174.960967,162.424756 174.610905,148.428655 166.769517,141.710526 Z" id="Path" fill="url(#linearGradient-3)" fill-rule="nonzero"></path>
                    <path d="M176.921314,144.439766 C176.921314,144.439766 184.412639,163.334503 199.605328,172.851852 C214.728005,182.29922 212.83767,187.967641 205.276332,196.505263 C197.714994,205.042885 198.48513,189.997076 182.592317,181.389474 C159.908302,169.072904 160.818463,164.384211 164.599133,144.509747 C168.379802,124.635283 176.921314,144.439766 176.921314,144.439766 Z" id="Path" fill="#FFC507" fill-rule="nonzero"></path>
                    <ellipse id="Oval" fill="#FFFFFF" fill-rule="nonzero" cx="206.67658" cy="22.8836257" rx="22.2639405" ry="22.2538012"></ellipse>
                    <g transform="translate(148.426270, 118.966862)" fill-rule="nonzero" id="Path">
                        <g>
                            <path d="M21.4237918,0.699805068 C21.4237918,0.699805068 15.1226766,0.349902534 12.7422553,3.28908382 C10.361834,6.1582846 11.622057,7.62787524 7.42131351,8.11773879 C3.22057001,8.60760234 1.12019827,9.2374269 0.350061958,11.1968811 C-0.420074349,13.1563353 2.73048327,17.7750487 6.44114002,18.4048733 C10.1517968,19.0346979 12.7422553,17.4251462 12.7422553,17.4251462 C12.7422553,17.4251462 16.1028501,16.9352827 16.2428748,23.2335283 C15.6127633,25.6128655 15.6127633,27.7122807 15.6127633,27.7122807 C15.6127633,27.7122807 25.4144981,26.102729 27.0247831,24.9830409 C28.6350682,23.8633528 33.605948,10.7070175 33.1158612,8.88752437 C32.6257745,7.06803119 29.1251549,1.81949318 21.4237918,0.699805068 Z" fill="#FFC507"></path>
                            <path d="M32.7657993,8.88752437 C32.7657993,8.88752437 37.8066914,14.9758285 36.0563817,19.9444444 C34.3060719,24.9130604 33.4659232,26.3826511 32.3457249,27.6423002 C31.2255266,28.9019493 31.0855019,31.8411306 29.1251549,30.7214425 C27.1648079,29.6017544 24.1542751,26.2426901 24.1542751,25.262963 C24.1542751,24.2832359 32.7657993,8.88752437 32.7657993,8.88752437 Z" fill="url(#linearGradient-4)"></path>
                            <path d="M32.7657993,7.90779727 C32.7657993,7.90779727 37.8066914,13.9961014 36.0563817,18.9647173 C34.3060719,23.9333333 33.4659232,25.402924 32.3457249,26.6625731 C31.2255266,27.9222222 31.0855019,30.8614035 29.1251549,29.7417154 C27.1648079,28.6220273 24.1542751,25.262963 24.1542751,24.2832359 C24.1542751,23.3035088 32.7657993,7.90779727 32.7657993,7.90779727 Z" fill="#FFC507"></path>
                        </g>
                        <path d="M28.4950434,6.29824561 C28.4950434,6.29824561 27.5148699,14.9758285 24.1542751,17.2152047 C21.5638166,20.0844055 24.1542751,24.2832359 24.1542751,24.2832359 L24.9244114,25.7528265 C24.9244114,25.7528265 24.3643123,25.6128655 24.0842627,25.402924 C21.7038414,23.7933723 20.8636927,20.3643275 22.6840149,18.1249513 C25.9045849,14.1360624 28.4950434,6.29824561 28.4950434,6.29824561 Z" fill="url(#linearGradient-5)"></path>
                        <path d="M22.5439901,23.8633528 C19.8835192,24.1432749 17.5731103,24.0033138 16.1028501,23.7933723 C15.9628253,24.5631579 15.8228005,25.262963 15.7527881,25.822807 C17.7131351,26.2426901 20.2335812,26.3126706 22.8240397,26.1727096 C23.244114,26.102729 23.7342007,25.962768 24.0842627,25.8927875 C23.3841388,25.1929825 22.894052,24.4931774 22.5439901,23.8633528 Z" fill="#FE4B00"></path>
                        <path d="M22.0539033,22.9536062 C21.7738538,22.6037037 23.8742255,26.102729 26.1146221,28.1321637 C28.3550186,30.1615984 22.6840149,23.5134503 22.6840149,23.5134503 L22.0539033,22.9536062 Z" fill="url(#linearGradient-6)"></path>
                    </g>
                    <path d="M148.776332,130.093762 C148.566295,130.583626 148.636307,131.14347 148.846344,131.843275 C151.016729,130.163743 150.386617,128.554191 150.316605,128.34425 C149.616481,128.764133 149.056382,129.323977 148.776332,130.093762 Z" id="Path" fill="#2504C4" fill-rule="nonzero"></path>
                    <g transform="translate(49.708798, 95.173489)" id="Path">
                        <path d="M40.8872367,20.2243665 C40.8872367,20.2243665 42.917596,27.5023392 42.917596,38.8391813 C42.917596,50.1760234 31.5755886,43.5978558 31.5755886,43.5978558 L40.8872367,20.2243665 Z" fill="#EFB700" fill-rule="nonzero"></path>
                        <g transform="translate(43.407683, 11.896686)" stroke="#FEE693" stroke-linecap="round" stroke-width="0.657859989">
                            <path d="M1.6802974,0.629824561 L6.09107807,2.23937622"></path>
                            <path d="M0.490086741,2.58927875 L4.1307311,5.59844055"></path>
                        </g>
                        <g transform="translate(26.604709, 9.097466)" stroke="#FEE693" stroke-linecap="round" stroke-width="0.657859989">
                            <path d="M5.11090458,0.699805068 L0.420074349,0.20994152"></path>
                            <path d="M5.32094176,2.93918129 L0.770136307,4.1288499"></path>
                        </g>
                        <path d="M32.4857497,13.2263158 C32.4857497,13.2263158 17.9931846,25.822807 21.5638166,40.6586745 C16.1028501,33.5206628 18.9033457,46.8869396 18.9033457,46.8869396 C18.9033457,46.8869396 22.8240397,57.3840156 34.1660471,53.1152047 C43.4076828,51.225731 43.9677819,50.3159844 45.0879802,46.537037 C46.2081784,42.7580897 43.4076828,35.8300195 40.9572491,34.5003899 C38.5068154,33.1707602 38.5068154,35.8300195 38.5068154,35.8300195 C38.5068154,35.8300195 38.7868649,27.5723197 40.3971499,23.0235867 C43.9677819,12.8764133 32.4857497,13.2263158 32.4857497,13.2263158 Z" fill="#FFC507" fill-rule="nonzero"></path>
                        <path d="M46.138166,13.7861598 C46.6282528,13.4362573 47.2583643,10.497076 48.0285006,9.79727096 C48.7986369,9.16744639 49.1486989,8.25769981 49.2887237,7.27797271 C48.098513,6.78810916 46.7682776,6.99805068 45.5780669,6.43820663 C44.8079306,6.08830409 44.3878563,5.31851852 43.7577447,4.82865497 C42.917596,4.26881092 42.0074349,3.91890838 41.0972739,3.49902534 C40.2571252,3.14912281 39.3469641,2.79922027 38.436803,2.86920078 C37.5966543,2.93918129 36.6164808,3.00916179 35.9163569,2.37933723 C35.216233,1.74951267 34.5861214,0.909746589 33.6759603,0.489863548 C33.0458488,1.81949318 32.4157373,3.14912281 32.1356877,4.54873294 C32.0656753,4.96861598 31.9256506,5.38849903 31.7156134,5.80838207 C31.1555143,7.06803119 30.4553903,10.217154 30.7354399,10.4270955 C30.7354399,11.1269006 31.0154895,11.9666667 30.5254027,12.5964912 C30.5254027,12.5964912 30.4553903,12.5964912 30.4553903,12.6664717 C30.5954151,12.7364522 30.7354399,12.8764133 30.8754647,12.9463938 C30.8754647,12.6664717 30.8754647,12.3865497 30.8754647,12.1066277 C32.5557621,13.7161793 34.3060719,15.3957115 36.5464684,16.1654971 C38.086741,16.9352827 39.8370508,16.8653021 41.4473358,17.2851852 C41.7273854,17.2152047 42.0774473,17.0752437 42.3574969,17.0052632 C43.1976456,16.7953216 43.8977695,16.4454191 44.5978934,15.9555556 C45.1579926,16.2354776 45.7180917,14.2760234 46.138166,13.7861598 Z" fill="#FFC507" fill-rule="nonzero"></path>
                        <path d="M42.8475836,16.5853801 C42.8475836,16.5853801 39.0669145,27.5023392 38.3667906,31.4912281 C37.6666667,35.480117 25.2744734,29.0419103 25.2744734,29.0419103 C25.2744734,29.0419103 31.295539,16.5853801 30.8054523,12.1766082 C30.3853779,7.62787524 42.8475836,16.5853801 42.8475836,16.5853801 Z" fill="#FFC507" fill-rule="nonzero"></path>
                        <path d="M27.5148699,25.8927875 C27.5148699,25.8927875 29.5452292,28.5520468 34.6561338,27.2224172 C28.6350682,30.791423 27.5148699,25.8927875 27.5148699,25.8927875 Z" fill="#FEE693" fill-rule="nonzero"></path>
                        <path d="M26.6047088,28.7619883 C26.6047088,28.7619883 28.6350682,31.4212476 33.7459727,30.0916179 C27.7249071,33.6606238 26.6047088,28.7619883 26.6047088,28.7619883 Z" fill="#FEE693" fill-rule="nonzero"></path>
                        <path d="M30.7354399,14.3460039 C30.7354399,14.3460039 34.4460967,18.6148148 42.6375465,17.0052632 C42.3574969,17.8450292 42.1474597,18.6148148 42.1474597,18.6148148 C42.1474597,18.6148148 33.1858736,20.6442495 30.5954151,15.2557505 C30.5954151,14.7658869 30.7354399,14.3460039 30.7354399,14.3460039 Z" fill="#FD6E01" fill-rule="nonzero"></path>
                        <path d="M33.0458488,48.9863548 C33.0458488,48.9863548 21.9138786,58.2937622 14.1425031,47.8666667 C6.37112763,37.4395712 4.1307311,27.8522417 0.140024783,30.7214425" stroke="#FFC507" stroke-width="2.79593995" stroke-linecap="round"></path>
                        <path d="M28.1449814,23.0235867 C28.1449814,23.0235867 30.1753408,25.682846 35.2862454,24.3532164 C29.2651797,27.9222222 28.1449814,23.0235867 28.1449814,23.0235867 Z" fill="#FEE693" fill-rule="nonzero"></path>
                    </g>
                    <path d="M121.961586,161.445029 C121.961586,161.445029 123.431846,179.360039 119.16109,192.026511 C117.270756,197.554971 116.010533,203.293372 115.660471,209.101754 C115.380421,213.650487 115.380421,217.289474 115.380421,217.289474 L105.928748,217.289474 L104.948575,160.535283 C104.948575,160.535283 103.05824,146.32924 112.509913,146.32924 C121.961586,146.32924 136.174102,146.32924 136.174102,146.32924 C136.174102,146.32924 126.722429,151.087914 130.503098,161.445029 L121.961586,161.445029 L121.961586,161.445029 Z" id="Path" fill="#2504C4" fill-rule="nonzero"></path>
                    <path d="M148.42627,162.424756 C148.42627,162.424756 149.89653,180.339766 145.625774,193.006238 C143.73544,198.534698 142.475217,204.273099 142.125155,210.081481 C141.845105,214.630214 141.845105,218.269201 141.845105,218.269201 L132.32342,218.269201 L131.343247,161.51501 C131.343247,161.51501 129.452912,147.308967 138.904585,147.308967 C148.356258,147.308967 162.568773,147.308967 162.568773,147.308967 C162.568773,147.308967 153.1171,152.067641 156.89777,162.424756 L148.42627,162.424756 L148.42627,162.424756 Z" id="Path" fill="#5641FC" fill-rule="nonzero"></path>
                    <path d="M157.247831,142.620273 C157.247831,142.620273 153.1171,138.981287 150.806691,142.620273 C148.70632,145.839376 153.537175,146.959064 154.797398,149.05848 C155.287485,149.898246 155.637546,150.738012 156.197646,151.577778 C159.278191,156.406433 165.509294,168.023197 165.509294,168.023197 L165.509294,163.264522 C165.509294,163.334503 165.159232,149.408382 157.247831,142.620273 Z" id="Path" fill="#FFC507" fill-rule="nonzero"></path>
                    <path d="M201.425651,200.774074 C201.425651,200.774074 207.866791,203.993177 208.286865,206.442495 C208.706939,208.891813 209.89715,210.501365 211.927509,210.501365 C213.957869,210.501365 220.819083,214.140351 219.208798,220.998441 C219.628872,223.797661 215.988228,223.797661 215.988228,223.797661 C215.988228,223.797661 214.798017,227.436647 216.408302,227.85653 C218.018587,228.276413 222.49938,228.696296 222.49938,228.696296 C222.49938,228.696296 224.52974,227.85653 224.949814,225.897076 C225.369888,223.867641 222.919455,221.068421 222.919455,221.068421 C222.919455,221.068421 223.339529,215.819883 224.109665,214.630214 C224.949814,213.440546 225.71995,210.571345 223.689591,208.961793 C221.659232,207.352242 218.438662,205.74269 218.438662,203.293372 C218.438662,200.844055 214.027881,187.687719 209.967162,185.238402 C205.906444,182.789084 194.984511,186.707992 194.984511,186.707992 L201.425651,200.774074 Z" id="Path" fill="#FFC507" fill-rule="nonzero"></path>
                    <path d="M209.687113,182.29922 C209.687113,182.29922 217.248451,193.28616 234.961586,181.459454 C237.482032,177.680507 238.322181,179.779922 238.322181,179.779922 C238.322181,179.779922 237.902107,181.039571 236.221809,181.879337 C234.541512,182.719103 218.018587,197.065107 208.14684,185.658285 C198.275093,174.321442 209.687113,182.29922 209.687113,182.29922 Z" id="Path" fill="#FFC507" fill-rule="nonzero"></path>
                </g>
                <path d="M232.16109,210.501365 L144.155514,210.501365 C132.533457,210.501365 123.081784,219.948733 123.081784,231.565497 L123.081784,231.565497 C123.081784,243.182261 132.533457,252.62963 144.155514,252.62963 L338.439901,252.62963 C350.061958,252.62963 359.513631,243.182261 359.513631,231.565497 L359.513631,198.464717 C359.513631,186.847953 368.965304,177.400585 380.587361,177.400585 L565,177.400585" id="Path" stroke="#24E2D3" stroke-width="1.11943998" stroke-dasharray="1.679159898772241"></path>
                <ellipse id="Oval" stroke="#FCAAC8" stroke-width="2.07675996" cx="188.82342" cy="100.981871" rx="5.18091698" ry="5.1785575"></ellipse>
                <g transform="translate(396.970260, 63.682261)">
                    <ellipse id="Oval" fill="#24E2D3" fill-rule="nonzero" cx="11.0619579" cy="10.9869396" rx="10.7118959" ry="10.7070175"></ellipse>
                    <polyline id="Path" stroke="#FFFFFF" stroke-width="1.70064997" stroke-linecap="round" stroke-linejoin="round" points="6.44114002 12.8064327 10.4318463 16.9352827 16.7329616 6.85808967"></polyline>
                </g>
                <g transform="translate(64.411400, 95.873294)" fill-rule="nonzero">
                    <ellipse id="Oval" fill="#FE4B00" cx="8.82156134" cy="9.09746589" rx="8.75154895" ry="8.74756335"></ellipse>
                    <path d="M12.3921933,8.95750487 L7.14126394,5.94834308 C7.00123916,5.87836257 6.79120198,5.94834308 6.79120198,6.1582846 L6.79120198,12.2465887 C6.79120198,12.4565302 7.00123916,12.5265107 7.14126394,12.4565302 L12.3921933,9.44736842 C12.5322181,9.2374269 12.5322181,9.02748538 12.3921933,8.95750487 Z" id="Path" stroke="#FFFFFF" stroke-width="0.5" fill="#FFFFFF" stroke-linecap="round" stroke-linejoin="round"></path>
                </g>
                <polyline id="Path" stroke="#FCAAC8" stroke-width="2.05246997" stroke-linecap="round" stroke-linejoin="round" points="73.7930607 199.374464 58.8104089 199.374464 58.8104089 209.451657 40.3271375 209.451657"></polyline>
                <polyline id="Path" stroke="#FCAAC8" stroke-width="2.05246997" stroke-linecap="round" stroke-linejoin="round" points="497.08798 80.0576998 482.105328 80.0576998 482.105328 90.2048733 463.622057 90.2048733"></polyline>
                <polyline id="Path" stroke="#FFE19D" stroke-width="2.06765996" stroke-linecap="round" stroke-linejoin="round" points="448.849442 152.767446 456.480793 136.951852 463.692069 152.137622"></polyline>
                <polyline id="Path" stroke="#FFE19D" stroke-width="2.06765996" stroke-linecap="round" stroke-linejoin="round" points="41.0272615 148.428655 48.5885998 132.683041 55.7998761 147.868811"></polyline>
                <path d="M131.063197,115.047953 L114.890335,102.871345" id="Path" stroke="#24E2D3" stroke-width="1.73522997" stroke-linecap="round" stroke-linejoin="round"></path>
                <path d="M453.960347,260.95731 L437.717472,248.780702" id="Path" stroke="#24E2D3" stroke-width="1.73522997" stroke-linecap="round" stroke-linejoin="round"></path>
                <rect id="Rectangle" fill="#FFFFFF" fill-rule="nonzero" x="91.016109" y="132.892982" width="36.6864932" height="31.4212476"></rect>
                <polygon id="Path" fill="#D2D7F8" fill-rule="nonzero" points="91.016109 152.767446 104.108426 145.979337 114.540273 155.146784 127.63259 145.979337 127.63259 164.31423 91.016109 164.31423"></polygon>
                <ellipse id="Oval" fill="#D2D7F8" fill-rule="nonzero" cx="115.240397" cy="141.360624" rx="4.55080545" ry="4.54873294"></ellipse>
                <polyline id="Path" stroke="#D2D7F8" stroke-width="0.699999988" points="348.94176 85.7961014 338.509913 96.2231969 326.047708 87.7555556"></polyline>
                <path d="M227.190211,121.136257 L227.190211,157.736062" id="Path" stroke="#FE4B00" stroke-width="1.11943998" stroke-dasharray="1.679159898772241"></path>
                <polygon id="Path" fill="#D2D7F8" fill-rule="nonzero" points="270.177819 129.603899 203.17596 129.603899 211.157373 80.1276803 260.726146 80.1276803"></polygon>
                <path d="M151.226766,45.977193 L151.226766,98.1826511 C151.226766,107.210136 158.578067,114.55809 167.609665,114.55809 L167.609665,114.55809 C176.641264,114.55809 183.992565,121.906043 183.992565,130.933528 L183.992565,159.275634" id="Path" stroke="#FE4B00" stroke-width="1.11943998" stroke-dasharray="1.679159898772241"></path>
            </g>
        </g>
    </g>
</svg>