<?xml version="1.0" encoding="UTF-8"?>
<svg width="161px" height="145px" viewBox="0 0 161 145" version="1.1" xmlns="http://www.w3.org/2000/svg" xmlns:xlink="http://www.w3.org/1999/xlink">
    <!-- Generator: Sketch 53.2 (72643) - https://sketchapp.com -->
    <title>Group 3</title>
    <desc>Created with Sketch.</desc>
    <g id="Page-1" stroke="none" stroke-width="1" fill="none" fill-rule="evenodd">
        <g id="lp" transform="translate(-183.000000, -819.000000)">
            <g id="Group-3" transform="translate(185.000000, 819.000000)">
                <ellipse id="Oval" fill="#F8F8FF" fill-rule="nonzero" cx="79.6383838" cy="72.5" rx="72.2171717" ry="72.5"></ellipse>
                <ellipse id="Oval" fill-opacity="0.5" fill="#EBEBFF" fill-rule="nonzero" cx="79.6383838" cy="72.5" rx="55.459596" ry="55.6767956"></ellipse>
                <ellipse id="Oval" stroke="#FCAAC8" stroke-width="2.37343986" cx="151.616162" cy="97.9751381" rx="5.90505051" ry="5.9281768"></ellipse>
                <path d="M27.610101,71.6187845 L9.0969697,57.679558" id="Path" stroke="#24E2D3" stroke-width="1.98311988" stroke-linecap="round" stroke-linejoin="round"></path>
                <polyline id="Path" stroke="#FCAAC8" stroke-width="2.34567986" stroke-linecap="round" stroke-linejoin="round" points="38.1434343 116.881215 20.9868687 116.881215 20.9868687 128.417127 8.52651283e-14 128.417127"></polyline>
                <g id="Group" transform="translate(40.617172, 31.243094)" fill="#2504C4" fill-rule="nonzero">
                    <path d="M67.5888889,24.5939227 L67.5888889,0 L0,0 L0,75.6243094 L11.0121212,86.679558 L67.5888889,86.679558 L67.5888889,62.3259669 L65.0353535,62.3259669 L65.0353535,84.1160221 L12.8474747,84.1160221 L12.8474747,73.781768 L2.55353535,73.781768 L2.55353535,2.56353591 L64.9555556,2.56353591 L64.9555556,24.5939227 L67.5888889,24.5939227 L67.5888889,24.5939227 Z M10.2939394,76.4254144 L10.2939394,82.3535912 L4.38888889,76.4254144 L10.2939394,76.4254144 Z" id="Shape"></path>
                    <rect id="Rectangle" x="6.38383838" y="33.4861878" width="2.55353535" height="2.56353591"></rect>
                    <rect id="Rectangle" x="11.5707071" y="33.4861878" width="2.55353535" height="2.56353591"></rect>
                    <rect id="Rectangle" x="16.6777778" y="33.4861878" width="2.55353535" height="2.56353591"></rect>
                    <rect id="Rectangle" x="74.1323232" y="60.9640884" width="2.55353535" height="2.56353591"></rect>
                    <rect id="Rectangle" x="84.4262626" y="60.9640884" width="2.55353535" height="2.56353591"></rect>
                    <rect id="Rectangle" x="79.2393939" y="60.9640884" width="2.55353535" height="2.56353591"></rect>
                    <rect id="Rectangle" x="80.9949495" y="54.0745856" width="2.55353535" height="2.56353591"></rect>
                    <rect id="Rectangle" x="70.7010101" y="54.0745856" width="2.55353535" height="2.56353591"></rect>
                    <rect id="Rectangle" x="75.8878788" y="54.0745856" width="2.55353535" height="2.56353591"></rect>
                    <rect id="Rectangle" x="13.2464646" y="40.3756906" width="43.1707071" height="2.56353591"></rect>
                    <rect id="Rectangle" x="6.38383838" y="47.1850829" width="46.1232323" height="2.56353591"></rect>
                    <rect id="Rectangle" x="38.0636364" y="54.0745856" width="2.55353535" height="2.56353591"></rect>
                    <rect id="Rectangle" x="6.38383838" y="54.0745856" width="23.9393939" height="2.56353591"></rect>
                    <rect id="Rectangle" x="32.9565657" y="54.0745856" width="2.55353535" height="2.56353591"></rect>
                    <rect id="Rectangle" x="13.2464646" y="60.9640884" width="34.2333333" height="2.56353591"></rect>
                    <rect id="Rectangle" x="44.9262626" y="67.8535912" width="2.55353535" height="2.56353591"></rect>
                    <rect id="Rectangle" x="39.7393939" y="67.8535912" width="2.55353535" height="2.56353591"></rect>
                    <rect id="Rectangle" x="6.38383838" y="67.8535912" width="30.8020202" height="2.56353591"></rect>
                    <path d="M33.7545455,14.9005525 C29.2858586,14.9005525 25.6151515,20.2679558 25.6151515,24.7541436 C25.6151515,26.9972376 26.5727273,28.519337 28.4080808,29.2403315 C29.8444444,29.801105 31.679798,29.801105 33.6747475,29.801105 L33.7545455,29.801105 C33.7545455,29.801105 33.7545455,29.801105 33.7545455,29.801105 C35.669697,29.801105 37.5848485,29.801105 39.0212121,29.2403315 C40.8565657,28.519337 41.8141414,26.9972376 41.8141414,24.7541436 C41.8939394,20.3480663 38.3030303,14.9005525 33.7545455,14.9005525 Z M38.1434343,26.9171271 C37.1060606,27.3176796 35.510101,27.3176796 33.8343434,27.3176796 C33.8343434,27.3176796 33.8343434,27.3176796 33.8343434,27.3176796 L33.7545455,27.3176796 C33.7545455,27.3176796 33.7545455,27.3176796 33.7545455,27.3176796 C32.0787879,27.3176796 30.4030303,27.3176796 29.4454545,26.9171271 C28.8868687,26.6767956 28.2484848,26.3563536 28.2484848,24.8342541 C28.2484848,21.6298343 30.8818182,17.5441989 33.8343434,17.5441989 C36.7868687,17.5441989 39.420202,21.6298343 39.420202,24.8342541 C39.340404,26.3563536 38.7818182,26.6767956 38.1434343,26.9171271 Z" id="Shape"></path>
                    <path d="M28.6474747,6.16850829 C26.4929293,6.16850829 24.8171717,7.93093923 24.8171717,10.0138122 C24.8171717,12.0966851 26.5727273,13.859116 28.6474747,13.859116 C30.8020202,13.859116 32.4777778,12.0966851 32.4777778,10.0138122 C32.4777778,7.93093923 30.8020202,6.16850829 28.6474747,6.16850829 Z M28.6474747,11.2955801 C27.9292929,11.2955801 27.3707071,10.7348066 27.3707071,10.0138122 C27.3707071,9.29281768 27.9292929,8.7320442 28.6474747,8.7320442 C29.3656566,8.7320442 29.9242424,9.29281768 29.9242424,10.0138122 C29.9242424,10.7348066 29.3656566,11.2955801 28.6474747,11.2955801 Z" id="Shape"></path>
                    <path d="M21.3060606,13.538674 C19.1515152,13.538674 17.4757576,15.301105 17.4757576,17.3839779 C17.4757576,19.4668508 19.2313131,21.2292818 21.3060606,21.2292818 C23.4606061,21.2292818 25.1363636,19.4668508 25.1363636,17.3839779 C25.1363636,15.301105 23.3808081,13.538674 21.3060606,13.538674 Z M21.3060606,18.7458564 C20.5878788,18.7458564 20.0292929,18.1850829 20.0292929,17.4640884 C20.0292929,16.7430939 20.5878788,16.1823204 21.3060606,16.1823204 C22.0242424,16.1823204 22.5828283,16.7430939 22.5828283,17.4640884 C22.5828283,18.1049724 22.0242424,18.7458564 21.3060606,18.7458564 Z" id="Shape"></path>
                    <path d="M46.2828283,13.538674 C44.1282828,13.538674 42.4525253,15.301105 42.4525253,17.3839779 C42.4525253,19.4668508 44.2080808,21.2292818 46.2828283,21.2292818 C48.4373737,21.2292818 50.1131313,19.4668508 50.1131313,17.3839779 C50.1131313,15.301105 48.3575758,13.538674 46.2828283,13.538674 Z M46.2828283,18.7458564 C45.5646465,18.7458564 45.0060606,18.1850829 45.0060606,17.4640884 C45.0060606,16.7430939 45.5646465,16.1823204 46.2828283,16.1823204 C47.0010101,16.1823204 47.559596,16.7430939 47.559596,17.4640884 C47.559596,18.1049724 47.0010101,18.7458564 46.2828283,18.7458564 Z" id="Shape"></path>
                    <path d="M38.9414141,6.16850829 C36.7868687,6.16850829 35.1111111,7.93093923 35.1111111,10.0138122 C35.1111111,12.0966851 36.8666667,13.859116 38.9414141,13.859116 C41.0959596,13.859116 42.7717172,12.0966851 42.7717172,10.0138122 C42.7717172,7.93093923 41.0161616,6.16850829 38.9414141,6.16850829 Z M38.9414141,11.2955801 C38.2232323,11.2955801 37.6646465,10.7348066 37.6646465,10.0138122 C37.6646465,9.29281768 38.2232323,8.7320442 38.9414141,8.7320442 C39.659596,8.7320442 40.2181818,9.29281768 40.2181818,10.0138122 C40.2181818,10.7348066 39.659596,11.2955801 38.9414141,11.2955801 Z" id="Shape"></path>
                    <path d="M83.1494949,14.0994475 C80.1171717,12.3370166 76.1272727,13.378453 74.3717172,16.4226519 L50.9111111,57.1187845 L50.6717172,70.3370166 L62.0030303,63.5276243 L85.4636364,22.8314917 C87.2989899,19.7872928 86.2616162,15.8618785 83.1494949,14.0994475 Z M53.3848485,65.8508287 L53.4646465,59.7624309 L58.5717172,62.7265193 L53.3848485,65.8508287 Z M60.6464646,60.9640884 L53.9434343,57.1187845 L73.3343434,23.3922652 L80.0373737,27.2375691 L60.6464646,60.9640884 Z M83.3090909,21.6298343 L81.3939394,24.9944751 L74.6909091,21.1491713 L76.6060606,17.7845304 C77.6434343,15.941989 80.0373737,15.301105 81.8727273,16.3425414 C83.7080808,17.3839779 84.3464646,19.7872928 83.3090909,21.6298343 Z" id="Shape"></path>
                    <g transform="translate(59.848485, 6.408840)" id="Rectangle">
                        <rect x="0" y="0.240331492" width="2.55353535" height="8.5718232"></rect>
                        <rect x="0" y="11.4558011" width="2.55353535" height="2.56353591"></rect>
                    </g>
                    <path d="M34.3929293,19.8674033 L32.8767677,21.9502762 C32.9565657,22.0303867 34.2333333,22.9917127 34.2333333,24.8342541 L36.7868687,24.8342541 C36.7868687,21.6298343 34.4727273,19.8674033 34.3929293,19.8674033 Z" id="Path"></path>
                    <g transform="translate(68.626263, 26.436464)" id="Rectangle">
                        <polygon transform="translate(2.450197, 8.601624) rotate(-59.999272) translate(-2.450197, -8.601624) " points="1.17187248 7.32579979 3.7328518 7.32146946 3.72852146 9.87744883 1.16754214 9.88177916"></polygon>
                        <polygon transform="translate(5.475817, 3.321221) rotate(-59.999272) translate(-5.475817, -3.321221) " points="3.23712544 2.04702035 7.71883924 2.03944226 7.71450891 4.59542163 3.2327951 4.60299972"></polygon>
                    </g>
                    <g transform="translate(57.454545, 44.060773)" id="Rectangle">
                        <polygon transform="translate(2.065491, 11.090337) rotate(-59.999272) translate(-2.065491, -11.090337) " points="0.787166418 9.8145125 3.34814574 9.81018216 3.3438154 12.3661615 0.782836081 12.3704919"></polygon>
                        <polygon transform="translate(5.890926, 4.514467) rotate(-59.999272) translate(-5.890926, -4.514467) " points="2.21168366 3.24270203 9.5744992 3.23025231 9.57016886 5.78623168 2.20735332 5.79868139"></polygon>
                    </g>
                    <polygon id="Path" points="5.10707071 5.12707182 5.10707071 13.2983425 7.74040404 13.2983425 7.74040404 7.69060773 13.2464646 7.69060773 13.2464646 5.12707182"></polygon>
                    <polygon id="Path" points="59.8484848 73.3812155 59.8484848 78.9889503 54.3424242 78.9889503 54.3424242 81.5524862 62.4020202 81.5524862 62.4020202 73.3812155"></polygon>
                    <g transform="translate(31.919192, 78.508287)" id="Rectangle">
                        <rect x="0" y="0.480662983" width="2.55353535" height="2.56353591"></rect>
                        <rect x="5.10707071" y="0.480662983" width="6.86262626" height="2.56353591"></rect>
                    </g>
                </g>
            </g>
        </g>
    </g>
</svg>