<?xml version="1.0" encoding="UTF-8"?>
<svg width="155px" height="145px" viewBox="0 0 155 145" version="1.1" xmlns="http://www.w3.org/2000/svg" xmlns:xlink="http://www.w3.org/1999/xlink">
    <!-- Generator: Sketch 53.2 (72643) - https://sketchapp.com -->
    <title>Group 2</title>
    <desc>Created with Sketch.</desc>
    <g id="Page-1" stroke="none" stroke-width="1" fill="none" fill-rule="evenodd">
        <g id="lp" transform="translate(-543.000000, -819.000000)">
            <g id="Group-2" transform="translate(545.000000, 819.000000)">
                <ellipse id="Oval" fill="#F8F8FF" fill-rule="nonzero" cx="80.0246073" cy="72.5" rx="72.4947644" ry="72.5"></ellipse>
                <ellipse id="Oval" fill-opacity="0.5" fill="#EBEBFF" fill-rule="nonzero" cx="80.0246073" cy="72.5" rx="55.6727749" ry="55.6767956"></ellipse>
                <ellipse id="Oval" stroke="#FCAAC8" stroke-width="2.37343986" cx="139.382199" cy="93.1685083" rx="5.92774869" ry="5.9281768"></ellipse>
                <path d="M37.3287958,79.6298343 L18.7445026,65.6906077" id="Path" stroke="#24E2D3" stroke-width="1.98311988" stroke-linecap="round" stroke-linejoin="round"></path>
                <polyline id="Path" stroke="#FCAAC8" stroke-width="2.34567986" stroke-linecap="round" stroke-linejoin="round" points="38.2900524 116.881215 21.147644 116.881215 21.147644 128.417127 1.13686838e-13 128.417127"></polyline>
                <g id="Group" transform="translate(48.543455, 31.243094)" fill-rule="nonzero">
                    <path d="M78.8230366,51.1906077 L55.2722513,51.1906077 L55.2722513,53.9944751 L49.3445026,53.9944751 C47.4219895,43.7403315 38.3701571,36.0497238 27.6361257,36.0497238 C15.4602094,36.0497238 5.52722513,45.9834254 5.52722513,58.160221 C5.52722513,70.3370166 15.4602094,80.2707182 27.6361257,80.2707182 C38.4502618,80.2707182 47.4219895,72.5 49.3445026,62.3259669 L55.2722513,62.3259669 L55.2722513,65.1298343 L58.0759162,65.1298343 L58.0759162,83.0745856 L2.80366492,83.0745856 L2.80366492,2.8038674 L58.0759162,2.8038674 L58.0759162,35.9696133 L80.1848168,35.9696133 L80.1848168,33.1657459 L60.7994764,33.1657459 L60.7994764,0 L0,0 L0,85.718232 L60.7994764,85.718232 L60.7994764,64.9696133 L78.7429319,64.9696133 C82.5879581,64.9696133 85.6319372,61.8453039 85.6319372,58.0801105 C85.6319372,54.3149171 82.5879581,51.1906077 78.8230366,51.1906077 Z M58.0759162,53.9143646 L60.8795812,53.9143646 L60.8795812,62.2458564 L58.0759162,62.2458564 L58.0759162,53.9143646 Z M27.6361257,77.3867403 C16.982199,77.3867403 8.25078534,68.7348066 8.25078534,58 C8.25078534,47.2651934 16.9020942,38.6132597 27.6361257,38.6132597 C38.3701571,38.6132597 47.021466,47.2651934 47.021466,58 C47.021466,68.7348066 38.2900524,77.3867403 27.6361257,77.3867403 Z M49.6649215,59.441989 C49.6649215,58.961326 49.7450262,58.5607735 49.7450262,58.0801105 C49.7450262,57.5994475 49.6649215,57.1187845 49.6649215,56.718232 L55.2722513,56.718232 L55.2722513,59.5220994 L49.6649215,59.5220994 L49.6649215,59.441989 Z M78.8230366,62.2458564 L63.6031414,62.2458564 L63.6031414,53.9143646 L78.8230366,53.9143646 C81.1460733,53.9143646 82.9884817,55.7569061 82.9884817,58.0801105 C82.908377,60.3232044 81.0659686,62.2458564 78.8230366,62.2458564 Z" id="Shape" fill="#2504C4"></path>
                    <path d="M27.6361257,41.4972376 C18.5041885,41.4972376 11.0544503,48.9475138 11.0544503,58.0801105 C11.0544503,62.9668508 13.2172775,67.3729282 16.5816754,70.4171271 L16.5816754,70.4972376 L16.7418848,70.4972376 C19.7057592,73.0607735 23.4706806,74.6629834 27.7162304,74.6629834 C31.8816754,74.6629834 35.7267016,73.0607735 38.6905759,70.4972376 L38.8507853,70.4972376 L38.8507853,70.4171271 C42.2151832,67.3729282 44.3780105,62.9668508 44.3780105,58.0801105 C44.217801,48.9475138 36.7680628,41.4972376 27.6361257,41.4972376 Z M38.6905759,66.3314917 L38.6905759,66.3314917 C37.8895288,67.3729282 36.9282723,68.2541436 35.886911,69.0552486 L35.9670157,69.0552486 C35.0858639,69.6961326 34.1246073,70.2569061 33.1633508,70.7375691 C31.9617801,71.2983425 30.6801047,71.6187845 29.3984293,71.7790055 C28.7575916,71.859116 28.1968586,71.9392265 27.5560209,71.9392265 C24.9125654,71.9392265 20.3465969,69.6961326 20.2664921,69.6961326 C20.2664921,69.6961326 19.7057592,69.2955801 19.465445,69.1353591 C19.465445,69.1353591 13.9382199,65.6906077 13.9382199,58.0801105 C13.9382199,50.4696133 20.1062827,44.2209945 27.7963351,44.2209945 C35.4863874,44.2209945 41.6544503,50.3895028 41.6544503,58.0801105 C41.4942408,61.2044199 40.4528796,64.0883978 38.6905759,66.3314917 Z" id="Shape" fill="#2504C4"></path>
                    <polygon id="Path" fill="#2504C4" points="77.3811518 56.718232 80.1848168 56.718232 80.1848168 59.5220994 77.3811518 59.5220994"></polygon>
                    <polygon id="Path" fill="#2504C4" points="82.908377 33.1657459 85.7120419 33.1657459 85.7120419 35.9696133 82.908377 35.9696133"></polygon>
                    <polygon id="Path" fill="#2504C4" points="58.0759162 38.6933702 85.7120419 38.6933702 85.7120419 41.4972376 58.0759162 41.4972376"></polygon>
                    <polygon id="Path" fill="#2504C4" points="82.908377 44.2209945 85.7120419 44.2209945 85.7120419 47.0248619 82.908377 47.0248619"></polygon>
                    <polygon id="Path" fill="#2504C4" points="58.0759162 44.2209945 80.1848168 44.2209945 80.1848168 47.0248619 58.0759162 47.0248619"></polygon>
                    <polygon id="Path" fill="#2504C4" points="5.52722513 5.52762431 33.1633508 5.52762431 33.1633508 8.33149171 5.52722513 8.33149171"></polygon>
                    <polygon id="Path" fill="#2504C4" points="35.9670157 5.52762431 38.7706806 5.52762431 38.7706806 8.33149171 35.9670157 8.33149171"></polygon>
                    <polygon id="Path" fill="#2504C4" points="5.52722513 11.0552486 33.1633508 11.0552486 33.1633508 13.859116 5.52722513 13.859116"></polygon>
                    <polygon id="Path" fill="#2504C4" points="35.9670157 11.0552486 38.7706806 11.0552486 38.7706806 13.859116 35.9670157 13.859116"></polygon>
                    <polygon id="Path" fill="#2504C4" points="5.52722513 16.5828729 38.6905759 16.5828729 38.6905759 19.3867403 5.52722513 19.3867403"></polygon>
                    <polygon id="Path" fill="#2504C4" points="5.52722513 22.1104972 55.2722513 22.1104972 55.2722513 24.9143646 5.52722513 24.9143646"></polygon>
                    <polygon id="Path" fill="#2504C4" points="41.4942408 27.6381215 44.2979058 27.6381215 44.2979058 30.441989 41.4942408 30.441989"></polygon>
                    <polygon id="Path" fill="#2504C4" points="47.021466 27.6381215 49.8251309 27.6381215 49.8251309 30.441989 47.021466 30.441989"></polygon>
                    <polygon id="Path" fill="#2504C4" points="52.5486911 27.6381215 55.352356 27.6381215 55.352356 30.441989 52.5486911 30.441989"></polygon>
                    <polygon id="Path" fill="#2504C4" points="5.52722513 27.6381215 38.6905759 27.6381215 38.6905759 30.441989 5.52722513 30.441989"></polygon>
                    <polygon id="Path" fill="#2504C4" points="42.8560209 77.3867403 55.2722513 77.3867403 55.2722513 80.1906077 42.8560209 80.1906077"></polygon>
                    <polygon id="Path" fill="#2504C4" points="48.3832461 71.859116 55.2722513 71.859116 55.2722513 74.6629834 48.3832461 74.6629834"></polygon>
                    <path d="M55.2722513,5.52762431 L41.4141361,5.52762431 L41.4141361,19.3867403 L55.2722513,19.3867403 L55.2722513,5.52762431 Z M52.5486911,16.5828729 L44.217801,16.5828729 L44.217801,8.25138122 L52.5486911,8.25138122 L52.5486911,16.5828729 Z" id="Shape" fill="#2504C4"></path>
                    <ellipse id="Oval" fill="#EBEBFF" cx="27.6361257" cy="58.0801105" rx="14.0183246" ry="14.019337"></ellipse>
                    <path d="M27.4759162,55.5966851 C23.7910995,55.5966851 20.8272251,60.0027624 20.8272251,63.6077348 C20.8272251,65.4502762 21.6282723,66.7320442 23.1502618,67.2928177 C24.3518325,67.7734807 25.873822,67.7734807 27.4759162,67.7734807 L27.5560209,67.7734807 C27.5560209,67.7734807 27.5560209,67.7734807 27.5560209,67.7734807 C29.1581152,67.7734807 30.6801047,67.7734807 31.8816754,67.2928177 C33.4036649,66.7320442 34.204712,65.4502762 34.204712,63.6077348 C34.1246073,60.0027624 31.160733,55.5966851 27.4759162,55.5966851 Z M31.0806283,65.2900552 C30.2795812,65.6104972 28.917801,65.6104972 27.5560209,65.6104972 C27.5560209,65.6104972 27.5560209,65.6104972 27.5560209,65.6104972 L27.4759162,65.6104972 C27.4759162,65.6104972 27.4759162,65.6104972 27.4759162,65.6104972 C26.1141361,65.6104972 24.752356,65.6104972 23.9513089,65.2900552 C23.4706806,65.1298343 22.9900524,64.8093923 22.9900524,63.6077348 C22.9900524,60.9640884 25.1528796,57.679558 27.5560209,57.679558 C29.9591623,57.679558 32.1219895,60.9640884 32.1219895,63.6077348 C32.0418848,64.8093923 31.5612565,65.1298343 31.0806283,65.2900552 Z" id="Shape" fill="#2504C4"></path>
                    <path d="M23.3104712,48.4668508 C21.5481675,48.4668508 20.1863874,49.9088398 20.1863874,51.5911602 C20.1863874,53.3535912 21.6282723,54.7154696 23.3104712,54.7154696 C25.0727749,54.7154696 26.434555,53.2734807 26.434555,51.5911602 C26.434555,49.8287293 25.0727749,48.4668508 23.3104712,48.4668508 Z M23.3104712,52.6325967 C22.7497382,52.6325967 22.2691099,52.1519337 22.2691099,51.5911602 C22.2691099,51.0303867 22.7497382,50.5497238 23.3104712,50.5497238 C23.8712042,50.5497238 24.3518325,51.0303867 24.3518325,51.5911602 C24.3518325,52.1519337 23.8712042,52.6325967 23.3104712,52.6325967 Z" id="Shape" fill="#2504C4"></path>
                    <path d="M17.3026178,54.4751381 C15.5403141,54.4751381 14.178534,55.9171271 14.178534,57.5994475 C14.178534,59.281768 15.6204188,60.7237569 17.3026178,60.7237569 C19.0649215,60.7237569 20.4267016,59.281768 20.4267016,57.5994475 C20.4267016,55.9171271 19.0649215,54.4751381 17.3026178,54.4751381 Z M17.3026178,58.640884 C16.7418848,58.640884 16.2612565,58.160221 16.2612565,57.5994475 C16.2612565,57.038674 16.7418848,56.558011 17.3026178,56.558011 C17.8633508,56.558011 18.3439791,57.038674 18.3439791,57.5994475 C18.3439791,58.160221 17.8633508,58.640884 17.3026178,58.640884 Z" id="Shape" fill="#2504C4"></path>
                    <path d="M37.7293194,54.4751381 C35.9670157,54.4751381 34.6052356,55.9171271 34.6052356,57.5994475 C34.6052356,59.281768 36.0471204,60.7237569 37.7293194,60.7237569 C39.491623,60.7237569 40.8534031,59.281768 40.8534031,57.5994475 C40.8534031,55.9171271 39.4115183,54.4751381 37.7293194,54.4751381 Z M37.7293194,58.640884 C37.1685864,58.640884 36.6879581,58.160221 36.6879581,57.5994475 C36.6879581,57.038674 37.1685864,56.558011 37.7293194,56.558011 C38.2900524,56.558011 38.7706806,57.038674 38.7706806,57.5994475 C38.7706806,58.160221 38.2900524,58.640884 37.7293194,58.640884 Z" id="Shape" fill="#2504C4"></path>
                    <path d="M31.721466,48.4668508 C29.9591623,48.4668508 28.5973822,49.9088398 28.5973822,51.5911602 C28.5973822,53.3535912 30.039267,54.7154696 31.721466,54.7154696 C33.4837696,54.7154696 34.8455497,53.2734807 34.8455497,51.5911602 C34.8455497,49.8287293 33.4036649,48.4668508 31.721466,48.4668508 Z M31.721466,52.6325967 C31.160733,52.6325967 30.6801047,52.1519337 30.6801047,51.5911602 C30.6801047,51.0303867 31.160733,50.5497238 31.721466,50.5497238 C32.282199,50.5497238 32.7628272,51.0303867 32.7628272,51.5911602 C32.7628272,52.1519337 32.282199,52.6325967 31.721466,52.6325967 Z" id="Shape" fill="#2504C4"></path>
                    <path d="M28.0366492,59.5220994 L26.7549738,61.2044199 C26.8350785,61.2044199 27.8764398,62.0856354 27.8764398,63.6077348 L29.9591623,63.6077348 C29.9591623,61.0441989 28.1167539,59.6022099 28.0366492,59.5220994 Z" id="Path" fill="#2504C4"></path>
                </g>
            </g>
        </g>
    </g>
</svg>