<?xml version="1.0" encoding="UTF-8"?>
<svg width="119px" height="100px" viewBox="0 0 119 100" version="1.1" xmlns="http://www.w3.org/2000/svg" xmlns:xlink="http://www.w3.org/1999/xlink">
    <!-- Generator: Sketch 53.2 (72643) - https://sketchapp.com -->
    <title>Group</title>
    <desc>Created with Sketch.</desc>
    <g id="Page-1" stroke="none" stroke-width="1" fill="none" fill-rule="evenodd">
        <g id="lp" transform="translate(-1009.000000, -2187.000000)">
            <g id="Group" transform="translate(1009.000000, 2187.000000)">
                <ellipse id="Oval" fill="#9CA5EB" fill-rule="nonzero" cx="86" cy="58.8" rx="15.2" ry="14.8"></ellipse>
                <polygon id="Path" fill="#9CA5EB" fill-rule="nonzero" points="55.3 14.8 118.7 47.3 118.7 75.7 55.7 41.9"></polygon>
                <g id="Path">
                    <path d="M83.7,28.5 C83.7,28.5 78.3,16 64.5,7.6 C51.8,-2 26.1,1.3 16.5,24.7 C6.9,48.1 14.8,37.6 14.8,37.6 L75.7,71.4 L87.8,63.5 L83.7,28.5 Z" fill="#DFB52B" fill-rule="nonzero"></path>
                    <polygon fill="#DC4C12" fill-rule="nonzero" points="63.6 59.8 66.1 66.1 75.7 71.5 87.8 63.6"></polygon>
                    <path d="M62.8,62.8 C62.8,62.8 30.7,16.1 48.6,2.9 C21.9,3.5 15,27.7 15,27.7 L15.4,38.1 L63.2,64.6 L62.8,62.8 Z" fill="#EFC330" fill-rule="nonzero"></path>
                    <polygon fill="#9CA5EB" fill-rule="nonzero" points="14.8 37.7 78.2 71.5 78.2 99.1 15.2 65.3"></polygon>
                    <path d="M16.1,35.6 C16.1,35.6 4,44.4 13.2,60.6 C20.3,74.4 28.6,59.8 28.6,59.8 C28.6,59.8 34,45.2 40.7,43.9 C47.4,42.6 54.5,49.3 53.2,53.5 C51.9,57.7 50.3,60.2 46.9,59.3 C43.5,58.4 42.7,54.7 40.2,56.8 C37.7,58.9 35.2,65.1 32.3,68.9 C29.4,72.7 15.2,76.8 6.8,67.2 C-1.5,57.6 -4.9,32.1 17.2,26.7" fill="#EFC330" fill-rule="nonzero"></path>
                    <path d="M40.7,44 C39.1,44.3 37.6,45.3 36.3,46.7 C35.5,50.3 35.6,54.8 38,59.8 C38.8,58.6 39.5,57.6 40.3,56.9 C42.8,54.8 43.6,58.6 47,59.4 C50.4,60.2 52,57.7 53.3,53.6 C54.5,49.4 47.4,42.7 40.7,44 Z" fill="#DFB52B" fill-rule="nonzero"></path>
                    <path d="M78.2,71.5 L118.7,47.3 L118.7,77.8 L78.2,99.9 C78.2,99.9 78.5,71.5 78.2,71.5 Z" fill="#D1D5F5" fill-rule="nonzero"></path>
                    <path d="M82.6,61.3 C82.6,61.3 88,62.1 87.2,70.1 C86.4,78.1 80.9,75.5 78.4,71.8 C75.9,68 73.4,65.4 70.1,64.2 C66.8,63 82.6,61.3 82.6,61.3 Z" fill="#EFC330" fill-rule="nonzero"></path>
                    <path d="M99.7,55.9 C99.7,55.9 105.1,56.7 104.3,64.7 C103.5,72.6 98,70.1 95.5,66.4 C93,62.7 90.5,60 87.2,58.8 C83.9,57.5 99.7,55.9 99.7,55.9 Z" fill="#EFC330" fill-rule="nonzero"></path>
                    <g transform="translate(34.000000, 0.000000)" fill="#F6E495" fill-rule="nonzero">
                        <path d="M19.7,0.3 C19.7,0.3 5.6,3.6 1.1,17 C-3.4,30.4 12.3,3.6 25.6,3.6 C26.7,2.5 19.7,0.3 19.7,0.3 Z"></path>
                        <path d="M30.8,7 C30.8,7 16.7,10.3 12.2,23.7 C7.7,37.1 23.4,10.3 36.7,10.3 C37.9,9.2 30.8,7 30.8,7 Z"></path>
                        <path d="M42,13.7 C42,13.7 27.9,17 23.4,30.4 C18.9,43.8 34.6,17 47.9,17 C49,15.9 42,13.7 42,13.7 Z"></path>
                    </g>
                    <path d="M104,45.9 C104.7,44.4 102.2,36.3 103.4,33.5 C104.5,30.9 104.1,28.1 103.2,25.5 C99.6,25.9 96.6,28.2 93,28.4 C90.6,28.6 88.6,27.1 86.3,26.8 C83.5,26.5 80.7,26.8 78,27.1 C75.5,27.4 72.8,27.7 70.6,29.1 C68.5,30.4 66.2,31.9 63.7,31.3 C61,30.7 58.4,29.5 55.6,29.8 C55.7,33.9 56.1,38 57.4,41.9 C57.8,43.1 58,44.3 58.1,45.6 C58.4,49.4 60.9,58.2 61.9,58.3 C62.9,60.1 64.7,61.8 64.3,64 C64.3,64.1 64.2,64.1 64.2,64.2 C64.7,64.2 65.1,64.3 65.6,64.4 C65.2,63.7 64.8,63 64.5,62.3 C70.9,63.9 77.4,65.9 84,64.8 C88.8,64.6 93,62 97.7,61 C98.3,60.4 99,59.7 99.6,59.1 C101.3,57.5 102.7,55.5 103.8,53.5 C104.9,53.3 103.8,47.7 104,45.9 Z" fill="#EFC330" fill-rule="nonzero"></path>
                    <g transform="translate(52.000000, 45.000000)" stroke="#F6E495" stroke-linecap="round" stroke-linejoin="round" stroke-width="1.3639">
                        <path d="M12.9,5.7 L2.1,0.2"></path>
                        <path d="M12.2,10.3 L0.4,13.1"></path>
                    </g>
                    <g transform="translate(98.000000, 41.000000)" stroke="#F6E495" stroke-linecap="round" stroke-linejoin="round" stroke-width="1.3639">
                        <path d="M0.7,6.3 L11.5,0.9"></path>
                        <path d="M1.5,10.9 L13.3,13.8"></path>
                    </g>
                </g>
            </g>
        </g>
    </g>
</svg>