<?xml version="1.0" encoding="UTF-8"?>
<svg width="155px" height="145px" viewBox="0 0 155 145" version="1.1" xmlns="http://www.w3.org/2000/svg" xmlns:xlink="http://www.w3.org/1999/xlink">
    <!-- Generator: Sketch 53.2 (72643) - https://sketchapp.com -->
    <title>Group 4</title>
    <desc>Created with Sketch.</desc>
    <g id="Page-1" stroke="none" stroke-width="1" fill="none" fill-rule="evenodd">
        <g id="lp" transform="translate(-897.000000, -819.000000)">
            <g id="Group-4" transform="translate(899.000000, 819.000000)">
                <ellipse id="Oval" fill="#F8F8FF" fill-rule="nonzero" cx="79.9445026" cy="72.5" rx="72.4947644" ry="72.5"></ellipse>
                <ellipse id="Oval" fill-opacity="0.5" fill="#EBEBFF" fill-rule="nonzero" cx="79.9445026" cy="72.5" rx="55.6727749" ry="55.6767956"></ellipse>
                <ellipse id="Oval" stroke="#FCAAC8" stroke-width="2.37343986" cx="139.382199" cy="93.1685083" rx="5.92774869" ry="5.9281768"></ellipse>
                <path d="M37.3287958,79.6298343 L18.7445026,65.6906077" id="Path" stroke="#24E2D3" stroke-width="1.98311988" stroke-linecap="round" stroke-linejoin="round"></path>
                <polyline id="Path" stroke="#FCAAC8" stroke-width="2.34567986" stroke-linecap="round" stroke-linejoin="round" points="38.2900524 116.881215 21.0675393 116.881215 21.0675393 128.417127 1.13686838e-13 128.417127"></polyline>
                <g id="Group" transform="translate(47.181675, 37.651934)" fill="#2504C4" fill-rule="nonzero">
                    <path d="M56.3937173,26.7569061 L56.2335079,26.7569061 L56.2335079,22.2707182 L57.595288,22.2707182 C58.9570681,22.2707182 60.078534,21.1491713 60.078534,19.7872928 L60.078534,13.9392265 C60.078534,12.5773481 58.9570681,11.4558011 57.595288,11.4558011 L36.6879581,11.4558011 C35.326178,11.4558011 34.204712,12.5773481 34.204712,13.9392265 L34.204712,19.7872928 C34.204712,21.1491713 35.326178,22.2707182 36.6879581,22.2707182 L38.0497382,22.2707182 L38.0497382,26.7569061 L37.8895288,26.7569061 C34.5251309,26.7569061 31.8015707,29.480663 31.8015707,32.8453039 L31.8015707,69.0552486 C31.8015707,71.218232 33.5638743,72.980663 35.7267016,72.980663 L58.4764398,72.980663 C60.639267,72.980663 62.4015707,71.218232 62.4015707,69.0552486 L62.4015707,32.8453039 C62.4816754,29.4005525 59.7581152,26.7569061 56.3937173,26.7569061 Z M36.3675393,19.7872928 L36.3675393,13.9392265 C36.3675393,13.7790055 36.5277487,13.6187845 36.6879581,13.6187845 L57.595288,13.6187845 C57.7554974,13.6187845 57.9157068,13.7790055 57.9157068,13.9392265 L57.9157068,19.7872928 C57.9157068,19.9475138 57.7554974,20.1077348 57.595288,20.1077348 L36.6879581,20.1077348 C36.5277487,20.1077348 36.3675393,19.9475138 36.3675393,19.7872928 Z M40.2125654,22.2707182 L54.0706806,22.2707182 L54.0706806,26.7569061 L40.2125654,26.7569061 L40.2125654,22.2707182 Z M37.8895288,28.839779 L56.3937173,28.839779 C58.5565445,28.839779 60.3188482,30.6022099 60.3188482,32.7651934 L60.3188482,34.2872928 L43.4167539,34.2872928 C42.8560209,34.2872928 42.3753927,34.7679558 42.3753927,35.3287293 C42.3753927,35.8895028 42.8560209,36.3701657 43.4167539,36.3701657 L60.3188482,36.3701657 L60.3188482,40.2955801 L33.9643979,40.2955801 L33.9643979,36.3701657 L39.1712042,36.3701657 C39.7319372,36.3701657 40.2125654,35.8895028 40.2125654,35.3287293 C40.2125654,34.7679558 39.7319372,34.2872928 39.1712042,34.2872928 L33.9643979,34.2872928 L33.9643979,32.7651934 C34.0445026,30.6022099 35.7267016,28.839779 37.8895288,28.839779 Z M58.5565445,70.7375691 L35.8068063,70.7375691 C34.8455497,70.7375691 34.0445026,69.9364641 34.0445026,68.9751381 L34.0445026,62.4861878 L49.9052356,62.4861878 C50.4659686,62.4861878 50.9465969,62.0055249 50.9465969,61.4447514 C50.9465969,60.8839779 50.4659686,60.4033149 49.9052356,60.4033149 L34.0445026,60.4033149 L34.0445026,42.538674 L60.3989529,42.538674 L60.3989529,60.4033149 L54.1507853,60.4033149 C53.5900524,60.4033149 53.1094241,60.8839779 53.1094241,61.4447514 C53.1094241,62.0055249 53.5900524,62.4861878 54.1507853,62.4861878 L60.3989529,62.4861878 L60.3989529,68.9751381 C60.3188482,69.9364641 59.517801,70.7375691 58.5565445,70.7375691 Z" id="Shape"></path>
                    <path d="M40.2125654,49.6685083 L54.0706806,49.6685083 C54.6314136,49.6685083 55.1120419,49.1878453 55.1120419,48.6270718 C55.1120419,48.0662983 54.6314136,47.5856354 54.0706806,47.5856354 L40.2125654,47.5856354 C39.6518325,47.5856354 39.1712042,48.0662983 39.1712042,48.6270718 C39.1712042,49.1878453 39.6518325,49.6685083 40.2125654,49.6685083 Z" id="Path"></path>
                    <path d="M55.1921466,53.5939227 C55.1921466,53.0331492 54.7115183,52.5524862 54.1507853,52.5524862 L40.2926702,52.5524862 C39.7319372,52.5524862 39.2513089,53.0331492 39.2513089,53.5939227 C39.2513089,54.1546961 39.7319372,54.6353591 40.2926702,54.6353591 L54.1507853,54.6353591 C54.7115183,54.6353591 55.1921466,54.1546961 55.1921466,53.5939227 Z" id="Path"></path>
                    <path d="M25.7136126,12.4171271 L18.7445026,12.4171271 L18.7445026,6.56906077 L22.3492147,6.56906077 C22.9099476,6.56906077 23.3905759,6.08839779 23.3905759,5.52762431 L23.3905759,1.12154696 C23.3905759,0.560773481 22.9099476,0.0801104972 22.3492147,0.0801104972 L4.40575916,0.0801104972 C3.84502618,0.0801104972 3.36439791,0.560773481 3.36439791,1.12154696 L3.36439791,5.52762431 C3.36439791,6.08839779 3.84502618,6.56906077 4.40575916,6.56906077 L8.0104712,6.56906077 L8.0104712,12.4171271 L1.04136126,12.4171271 C0.480628272,12.4171271 0,12.8977901 0,13.4585635 L0,18.1049724 C0,18.6657459 0.480628272,19.1464088 1.04136126,19.1464088 L3.36439791,19.1464088 L3.36439791,23.2320442 C3.36439791,23.7928177 3.84502618,24.2734807 4.40575916,24.2734807 C4.96649215,24.2734807 5.44712042,23.7928177 5.44712042,23.2320442 L5.44712042,19.1464088 L7.93036649,19.1464088 L7.93036649,31.5635359 L5.44712042,31.5635359 L5.44712042,27.4779006 C5.44712042,26.9171271 4.96649215,26.4364641 4.40575916,26.4364641 C3.84502618,26.4364641 3.36439791,26.9171271 3.36439791,27.4779006 L3.36439791,48.2265193 C3.36439791,50.3895028 5.12670157,52.1519337 7.2895288,52.1519337 L9.53246073,57.9198895 C9.69267016,58.320442 10.0931937,58.5607735 10.4937173,58.640884 L10.4937173,71.859116 C10.4937173,72.2596685 10.7340314,72.660221 11.0544503,72.820442 C11.2146597,72.9005525 11.3748691,72.9005525 11.5350785,72.9005525 C11.7753927,72.9005525 12.0157068,72.820442 12.1759162,72.660221 L15.4602094,70.0966851 C15.7005236,69.8563536 15.860733,69.6160221 15.860733,69.2154696 L15.860733,58.5607735 L16.1811518,58.5607735 C16.6617801,58.5607735 16.982199,58.320442 17.1424084,57.839779 L19.3853403,52.0718232 C21.5481675,52.0718232 23.3104712,50.3093923 23.3104712,48.1464088 L23.3104712,18.9861878 L25.6335079,18.9861878 C26.1942408,18.9861878 26.6748691,18.5055249 26.6748691,17.9447514 L26.6748691,13.2983425 C26.7549738,12.8977901 26.2743455,12.4171271 25.7136126,12.4171271 Z M5.44712042,4.40607735 L5.44712042,2.16298343 L21.2277487,2.16298343 L21.2277487,4.40607735 L5.44712042,4.40607735 Z M16.6617801,6.56906077 L16.6617801,12.4171271 L10.0931937,12.4171271 L10.0931937,6.56906077 L16.6617801,6.56906077 Z M13.7780105,68.8149171 L12.5764398,69.6961326 L12.5764398,58.640884 L13.7780105,58.640884 L13.7780105,68.8149171 Z M15.5403141,56.4779006 L11.2146597,56.4779006 L9.53246073,52.2320442 L17.1424084,52.2320442 L15.5403141,56.4779006 Z M21.2277487,37.7320442 L17.6230366,37.7320442 C17.0623037,37.7320442 16.5816754,38.2127072 16.5816754,38.7734807 C16.5816754,39.3342541 17.0623037,39.8149171 17.6230366,39.8149171 L21.2277487,39.8149171 L21.2277487,43.820442 L17.6230366,43.820442 C17.0623037,43.820442 16.5816754,44.301105 16.5816754,44.8618785 C16.5816754,45.4226519 17.0623037,45.9033149 17.6230366,45.9033149 L21.2277487,45.9033149 L21.2277487,48.1464088 C21.2277487,49.1878453 20.4267016,49.9889503 19.3853403,49.9889503 L7.20942408,49.9889503 C6.16806283,49.9889503 5.36701571,49.1878453 5.36701571,48.1464088 L5.36701571,33.5662983 L21.147644,33.5662983 L21.147644,37.7320442 L21.2277487,37.7320442 Z M10.0931937,31.5635359 L10.0931937,19.1464088 L16.6617801,19.1464088 L16.6617801,31.5635359 L10.0931937,31.5635359 Z M21.2277487,31.5635359 L18.7445026,31.5635359 L18.7445026,19.1464088 L21.2277487,19.1464088 L21.2277487,31.5635359 Z M24.6722513,16.9834254 L2.08272251,16.9834254 L2.08272251,14.5 L24.6722513,14.5 L24.6722513,16.9834254 Z" id="Shape"></path>
                </g>
            </g>
        </g>
    </g>
</svg>